<svg width="250" height="171" viewBox="0 0 250 171" fill="none" xmlns="http://www.w3.org/2000/svg">
<path d="M60.8208 53.9742C60.0673 50.0985 56.3102 47.5645 52.4345 48.318L10.3068 56.5084C6.43108 57.2619 3.8971 61.019 4.65061 64.8947C5.40413 68.7705 9.16121 71.3044 13.0369 70.5509L55.1646 62.3606C59.0403 61.607 61.5743 57.85 60.8208 53.9742Z" fill="#FFC107"/>
<path d="M57.8947 76.4031L29.8096 81.8634C25.9339 82.6169 23.3999 86.3739 24.1534 90.2497C24.9069 94.1254 28.664 96.6594 32.5398 95.9059L60.6249 90.4457C64.5006 89.6921 67.0346 85.9351 66.2811 82.0593C65.5276 78.1836 61.7705 75.6496 57.8947 76.4031Z" fill="#FFC107"/>
<path d="M63.355 104.488L49.3124 107.218C45.4367 107.972 42.9027 111.729 43.6562 115.605C44.4097 119.48 48.1668 122.014 52.0425 121.261L66.0851 118.531C69.9608 117.777 72.4948 114.02 71.7413 110.144C70.9878 106.269 67.2307 103.735 63.355 104.488Z" fill="#FFC107"/>
<path d="M237.188 66.9466L209.299 35.9354C207.623 34.0607 205.083 33.2138 202.611 33.6943L153.462 43.2497C149.587 44.0032 147.053 47.7603 147.806 51.636L161.457 121.849C162.21 125.725 165.967 128.259 169.843 127.505L240.056 113.854C243.932 113.101 246.466 109.344 245.712 105.468L238.887 70.3617C238.638 69.0838 238.058 67.8995 237.188 66.9466Z" fill="#32B2F4"/>
<path d="M177.256 53.1971L201.367 48.5094L223.679 73.3184L182.717 81.2822L177.256 53.1971Z" fill="#FAFAFA"/>
<path d="M148.002 15.1646L49.7043 34.2755C45.8286 35.029 43.2946 38.7861 44.0481 42.6618L63.159 140.96C63.9125 144.835 67.6696 147.369 71.5453 146.616L176.864 126.14L156.389 20.8208C155.635 16.9451 151.878 14.4111 148.002 15.1646Z" fill="#FFC107"/>
<path d="M213.336 126.336C221.091 124.828 226.156 117.319 224.648 109.563C223.14 101.808 215.631 96.743 207.876 98.2508C200.12 99.7586 195.055 107.268 196.563 115.023C198.071 122.779 205.58 127.844 213.336 126.336Z" fill="#FAFAFA"/>
<path d="M214.701 133.357C203.088 135.615 191.8 128.002 189.542 116.389C187.284 104.775 194.897 93.4873 206.511 91.2295C218.124 88.9717 229.412 96.585 231.67 108.198C233.927 119.811 226.314 131.099 214.701 133.357ZM209.241 105.272C205.379 106.023 202.834 109.797 203.584 113.658C204.335 117.52 208.109 120.065 211.971 119.315C215.833 118.564 218.378 114.79 217.627 110.928C216.876 107.067 213.102 104.521 209.241 105.272Z" fill="#455A64"/>
<path d="M176.864 126.14L71.5453 146.616C67.6696 147.369 63.9125 144.835 63.159 140.96L59.0638 119.896L171.404 98.0548L176.864 126.14Z" fill="#32B2F4"/>
<path d="M115.038 145.447C122.794 143.939 127.858 136.43 126.35 128.674C124.843 120.919 117.333 115.854 109.578 117.362C101.822 118.869 96.7576 126.379 98.2654 134.134C99.7732 141.89 107.283 146.955 115.038 145.447Z" fill="#FAFAFA"/>
<path d="M116.403 152.468C104.79 154.726 93.5019 147.113 91.2441 135.499C88.9863 123.886 96.5995 112.598 108.213 110.34C119.826 108.083 131.114 115.696 133.372 127.309C135.63 138.922 128.016 150.21 116.403 152.468ZM110.943 124.383C107.067 125.136 104.536 128.908 105.287 132.769C106.037 136.631 109.797 139.179 113.673 138.425C117.549 137.672 120.08 133.901 119.329 130.039C118.578 126.177 114.819 123.629 110.943 124.383Z" fill="#455A64"/>
</svg>
