<svg width="106" height="106" viewBox="0 0 106 106" fill="none" xmlns="http://www.w3.org/2000/svg">
<g clip-path="url(#clip0)">
<path d="M51.5016 0.342435L4.03575 23.2571C3.44054 23.5444 3.0625 24.1469 3.0625 24.8077V81.1923C3.0625 81.8531 3.44075 82.4556 4.03575 82.7429L51.5016 105.658C52.4475 106.114 53.5502 106.114 54.4961 105.658L101.962 82.7429C102.557 82.4556 102.935 81.8531 102.935 81.1923V24.8077C102.935 24.1469 102.557 23.5444 101.962 23.2571L54.4961 0.342435C53.5502 -0.114069 52.4475 -0.114069 51.5016 0.342435Z" fill="#FFE17D"/>
<path d="M3.34882 23.8651C3.16788 24.1407 3.0625 24.4651 3.0625 24.8077V81.1923C3.0625 81.8531 3.44075 82.4556 4.03575 82.7429L51.5016 105.657C51.9745 105.886 52.4867 106 52.9989 106V47.8342L3.34882 23.8651Z" fill="#FFC350"/>
<path d="M102.65 23.8651C102.831 24.1407 102.936 24.4651 102.936 24.8077V81.1923C102.936 81.8531 102.558 82.4556 101.963 82.7429L54.4972 105.657C54.0244 105.886 53.5122 106 53 106V47.8342L102.65 23.8651Z" fill="#FFD164"/>
<path d="M17.2675 78.1868C17.017 78.1868 16.7614 78.1313 16.521 78.0154L9.19271 74.4774C8.33519 74.0638 7.97703 73.0346 8.39067 72.1788C8.80267 71.3229 9.83513 70.9664 10.6893 71.3767L18.0176 74.9149C18.8751 75.3285 19.2333 76.3577 18.8197 77.2136C18.5238 77.8286 17.9083 78.1868 17.2675 78.1868Z" fill="#FFE17D"/>
<path d="M24.0139 73.7963C23.7634 73.7963 23.5077 73.7408 23.2674 73.6249L9.20415 66.8363C8.34828 66.4227 7.98846 65.3935 8.40211 64.5376C8.8141 63.6834 9.84822 63.3253 10.7008 63.7356L24.7638 70.5242C25.6197 70.9378 25.9795 71.967 25.5658 72.8228C25.2702 73.4379 24.6547 73.7963 24.0139 73.7963Z" fill="#FFF6D8"/>
<path d="M85.8239 31.9601L35.9993 7.88997L22.8652 14.2562L72.8016 38.3635L85.8239 31.9601Z" fill="#FF8087"/>
<path d="M72.8027 38.3635V57.0392C72.8027 57.6739 73.4663 58.0905 74.0381 57.8145L84.8517 52.5942C85.447 52.3069 85.825 51.7044 85.825 51.0436V31.9602L72.8027 38.3635Z" fill="#E6646E"/>
</g>
<defs>
<clipPath id="clip0">
<rect width="106" height="106" fill="white"/>
</clipPath>
</defs>
</svg>
