<svg width="64" height="64" viewBox="0 0 64 64" fill="none" xmlns="http://www.w3.org/2000/svg">
<path d="M32 0C14.3545 0 0 14.3545 0 32C0 49.6455 14.3545 64 32 64C49.6455 64 64 49.6455 64 32C64 14.3545 49.6455 0 32 0Z" fill="#4AD295"/>
<path d="M48.2305 25.2188L30.897 42.5518C30.377 43.0718 29.6943 43.3335 29.0117 43.3335C28.3291 43.3335 27.6465 43.0718 27.1265 42.5518L18.46 33.8853C17.417 32.8428 17.417 31.1572 18.46 30.1147C19.5024 29.0718 21.1875 29.0718 22.2305 30.1147L29.0117 36.896L44.46 21.4482C45.5024 20.4053 47.1875 20.4053 48.2305 21.4482C49.2729 22.4907 49.2729 24.1758 48.2305 25.2188Z" fill="#FAFAFA"/>
</svg>
