<svg width="106" height="106" viewBox="0 0 106 106" fill="none" xmlns="http://www.w3.org/2000/svg">
<path d="M71.9527 51.0075H53H34.0473C25.2642 53.8006 18.8398 61.9378 18.8398 71.6328V97.2142H53H87.1602V71.6328C87.1602 61.9378 80.7358 53.8006 71.9527 51.0075Z" fill="#FF641A"/>
<path d="M87.1602 71.6328C87.1602 61.9377 80.7358 53.8006 71.9527 51.0075H53V97.2144H87.1602V71.6328Z" fill="#F03800"/>
<path d="M65.3535 49.8809H52.9996H40.6456C39.538 49.9949 37.884 49.7877 34.0469 51.0075C37.7536 57.712 44.8129 62.3164 52.9996 62.3164C61.1862 62.3164 68.2455 57.712 71.9522 51.0075C68.095 49.7813 65.9765 49.945 65.3535 49.8809Z" fill="#F0F7FF"/>
<path d="M71.9527 51.0075C68.0955 49.7813 65.9767 49.945 65.354 49.8809H53V62.3164C61.1866 62.3164 68.246 57.712 71.9527 51.0075Z" fill="#DFE7F4"/>
<path d="M77.8438 87.3672H53H28.1562C23.0109 87.3672 18.8398 91.5382 18.8398 96.6836C18.8398 101.829 23.0109 106 28.1562 106H31.2617L37.4727 99.7891H53H68.5273L74.7383 106H77.8438C82.9891 106 87.1602 101.829 87.1602 96.6836C87.1602 91.5382 82.9891 87.3672 77.8438 87.3672Z" fill="#FFE1BA"/>
<path d="M74.7383 106H77.8438C82.9891 106 87.1602 101.829 87.1602 96.6836C87.1602 91.5382 82.9891 87.3672 77.8438 87.3672H53V99.7891H68.5273L74.7383 106Z" fill="#FFBFAB"/>
<path d="M68.5273 34.3672V19.5847L53 19.5862L37.4727 19.5881V34.3672C37.4727 39.268 39.814 43.8778 43.6836 46.7891C43.6836 48.4786 42.3269 49.8422 40.646 49.8809C43.4828 53.6372 47.9412 56.1055 53 56.1055C58.0588 56.1055 62.5172 53.6372 65.354 49.8809C63.6731 49.8422 62.3164 48.4786 62.3164 46.7891C66.186 43.8778 68.5273 39.268 68.5273 34.3672Z" fill="#FFE1BA"/>
<path d="M65.354 49.8809C63.6731 49.8422 62.3164 48.4786 62.3164 46.7891C66.186 43.8776 68.5273 39.268 68.5273 34.3672V19.5847L53 19.5862V56.1055C58.0588 56.1055 62.5172 53.6372 65.354 49.8809Z" fill="#FFBFAB"/>
<path d="M71.6328 68.5273H62.3164L56.1055 74.7383H53H49.8945L43.6836 68.5273H34.3672C32.6521 68.5273 31.2617 69.9178 31.2617 71.6328V106H53H74.7383V71.6328C74.7383 69.9178 73.3479 68.5273 71.6328 68.5273Z" fill="#FED843"/>
<path d="M74.7383 106V71.6328C74.7383 69.9178 73.3479 68.5273 71.6328 68.5273H62.3164L56.1055 74.7383H53V106H74.7383Z" fill="#FABE2C"/>
<path d="M53 68.5273H43.6836V84.2617C43.6836 85.9782 45.0726 87.3672 46.7891 87.3672H53H59.2109C60.9274 87.3672 62.3164 85.9782 62.3164 84.2617V68.5273H53Z" fill="#FABE2C"/>
<path d="M62.3164 84.2617V68.5273H53V87.3672H59.2109C60.9274 87.3672 62.3164 85.9782 62.3164 84.2617Z" fill="#FF9100"/>
<path d="M59.2109 0H53H46.7891C41.6518 0 37.4727 4.17913 37.4727 9.31641V12.4219L42.0017 15.5273H53H63.9983L68.5273 12.4219V9.31641C68.5273 4.17913 64.3482 0 59.2109 0Z" fill="#FF641A"/>
<path d="M68.5273 12.4219V9.31641C68.5273 4.17913 64.3482 0 59.2109 0H53V15.5273H63.9983L68.5273 12.4219Z" fill="#F03800"/>
<path d="M53 12.4219H37.4727V19.5881C40.8112 24.6833 46.4402 27.9492 53 27.9492C59.5594 27.9492 65.1883 24.681 68.5273 19.5847V12.4219H53Z" fill="#613D5C"/>
<path d="M68.5273 19.5847V12.4219H53V27.9492C59.5594 27.9492 65.1883 24.681 68.5273 19.5847Z" fill="#4B2746"/>
</svg>
