<svg width="116" height="116" viewBox="0 0 116 116" fill="none" xmlns="http://www.w3.org/2000/svg">
<g clip-path="url(#clip0)">
<path d="M100.415 20.3855C90.3668 10.3375 77.0012 4.80029 62.8003 4.80029C48.3368 4.80029 34.8042 10.5045 24.7084 20.8628C23.6105 21.9846 23.6344 23.7985 24.7561 24.9202C25.8779 26.0181 27.6918 25.9943 28.8135 24.8725C37.8353 15.6359 49.8882 10.5523 62.8003 10.5523C88.9825 10.5284 110.272 31.8178 110.272 58C110.272 84.1822 88.9825 105.472 62.8003 105.472C36.6181 105.472 15.3286 84.1822 15.3286 58V57.4033L20.0543 62.129C20.6033 62.678 21.3431 62.9644 22.083 62.9644C22.8229 62.9644 23.5389 62.678 24.1117 62.129C25.2335 61.0073 25.2335 59.1934 24.1117 58.0716L14.5172 48.4532C13.3954 47.3314 11.5815 47.3314 10.4598 48.4532L0.841315 58.0716C-0.280438 59.1934 -0.280438 61.0073 0.841315 62.129C1.96307 63.2508 3.77697 63.2508 4.89872 62.129L9.6244 57.4033V58C9.6244 72.2009 15.1616 85.5665 25.2096 95.6145C35.2577 105.663 48.6232 111.2 62.8241 111.2C77.0251 111.2 90.3906 105.663 100.439 95.6145C110.487 85.5665 116 72.2009 116 58C116 43.7991 110.463 30.4335 100.415 20.3855Z" fill="#4AD295"/>
<path d="M78.0233 38.6436L42.8433 73.7998C41.7215 74.9216 41.7215 76.7355 42.8433 77.8572C43.3922 78.4062 44.1321 78.6926 44.872 78.6926C45.6118 78.6926 46.3279 78.4062 46.9007 77.8572L82.0807 42.6772C83.2025 41.5554 83.2025 39.7415 82.0807 38.6198C80.959 37.5219 79.1451 37.5219 78.0233 38.6436Z" fill="#4AD295"/>
<path d="M68.8175 62.3202C64.8317 66.306 64.8317 72.8217 68.8175 76.8075C70.7507 78.7407 73.3284 79.8147 76.0731 79.8147C78.8178 79.8147 81.3954 78.7407 83.3287 76.8075C87.3145 72.8217 87.3145 66.306 83.3287 62.3202C81.3954 60.3869 78.8178 59.3129 76.0731 59.3129C73.3284 59.3129 70.7746 60.3869 68.8175 62.3202ZM79.2713 72.774C78.412 73.6332 77.2903 74.0866 76.0731 74.0866C74.8558 74.0866 73.7341 73.6093 72.8749 72.774C71.1087 71.0078 71.1087 68.1437 72.8749 66.3776C73.7341 65.5184 74.8558 65.0649 76.0731 65.0649C77.2903 65.0649 78.412 65.5422 79.2713 66.3776C81.0374 68.1437 81.0374 71.0078 79.2713 72.774Z" fill="#4AD295"/>
<path d="M49.6222 36.0899C46.8775 36.0899 44.2999 37.1639 42.3666 39.0972C40.4334 41.0304 39.3594 43.608 39.3594 46.3528C39.3594 49.0975 40.4334 51.6751 42.3666 53.6083C44.2999 55.5416 46.8775 56.6156 49.6222 56.6156C52.3669 56.6156 54.9446 55.5416 56.8778 53.6083C58.811 51.6751 59.8851 49.0975 59.8851 46.3528C59.8851 43.608 58.811 41.0304 56.8778 39.0972C54.9207 37.1639 52.3669 36.0899 49.6222 36.0899ZM52.8204 49.5509C51.9612 50.4102 50.8394 50.8636 49.6222 50.8636C48.405 50.8636 47.2832 50.3863 46.424 49.5509C45.5648 48.6917 45.1113 47.57 45.1113 46.3528C45.1113 45.1355 45.5887 44.0138 46.424 43.1546C47.2832 42.2953 48.405 41.8419 49.6222 41.8419C50.8394 41.8419 51.9612 42.3192 52.8204 43.1546C53.6796 44.0138 54.1331 45.1355 54.1331 46.3528C54.1331 47.5461 53.6796 48.6917 52.8204 49.5509Z" fill="#4AD295"/>
</g>
<defs>
<clipPath id="clip0">
<rect width="116" height="116" fill="white"/>
</clipPath>
</defs>
</svg>
