<svg width="66" height="66" viewBox="0 0 66 66" fill="none" xmlns="http://www.w3.org/2000/svg">
<g clip-path="url(#clip0)">
<path d="M26.2867 3.35604C25.6678 3.35604 25.168 2.85624 25.168 2.23736V1.11868C25.168 0.499799 25.6678 -2.86102e-06 26.2867 -2.86102e-06C26.905 -2.86102e-06 27.4053 0.499799 27.4053 1.11868V2.23736C27.4053 2.85624 26.905 3.35604 26.2867 3.35604Z" fill="#2DA5E1"/>
<path d="M26.2916 6.711C28.1488 6.711 29.6476 8.20986 29.6476 10.067C29.6476 11.9242 28.1488 13.4231 26.2916 13.4231C24.4344 13.4231 22.9355 11.9242 22.9355 10.067C22.9355 8.20986 24.4344 6.711 26.2916 6.711Z" fill="#FFCE54"/>
<path d="M26.292 17.8978C17.1415 17.8978 12.0725 19.5644 9.51172 20.8737V17.8978C9.51172 8.63537 17.0284 1.11759 26.292 1.11759C35.5539 1.11759 43.0722 8.63537 43.0722 17.8978V20.8737C40.5093 19.5644 35.443 17.8978 26.292 17.8978ZM29.648 10.067C29.648 8.20986 28.1491 6.711 26.292 6.711C24.4348 6.711 22.9359 8.20986 22.9359 10.067C22.9359 11.9242 24.4348 13.4231 26.292 13.4231C28.1491 13.4231 29.648 11.9242 29.648 10.067Z" fill="#2DA5E1"/>
<path d="M26.2921 1.11759C25.5317 1.11759 24.7888 1.18696 24.0547 1.28309C32.2569 2.38047 38.5976 9.39463 38.5976 17.8978V19.2394C40.5689 19.7528 42.0323 20.3422 43.0723 20.8737V17.8978C43.0723 8.63537 35.554 1.11759 26.2921 1.11759Z" fill="#2DA5E1"/>
<path d="M43.0713 20.8737C44.6925 21.7012 45.3086 22.3725 45.3086 22.3725H7.27344C7.27344 22.3725 7.87648 21.7012 9.5108 20.8737C12.0715 19.5644 17.1406 17.8978 26.291 17.8978C35.442 17.8978 40.5083 19.5644 43.0713 20.8737Z" fill="#FFCE54"/>
<path d="M43.0722 22.3725V27.967C43.0722 34.4104 39.4479 40.0038 34.1227 42.812C31.7849 44.0437 29.1214 44.7473 26.292 44.7473C23.4608 44.7473 20.799 44.0426 18.4612 42.812C13.1365 40.0038 9.51172 34.4104 9.51172 27.967V22.3725H43.0722Z" fill="#EAC6BB"/>
<path d="M38.5976 22.3725V27.967C38.5976 34.4104 34.9733 40.0038 29.6481 42.812C27.9378 43.7138 26.0517 44.3278 24.0547 44.5949C24.7866 44.6937 25.5317 44.7484 26.2921 44.7484C29.1215 44.7484 31.785 44.0437 34.1228 42.8131C39.448 40.0054 43.0723 34.412 43.0723 27.9681V22.3736H38.5976V22.3725Z" fill="#D3B1A9"/>
<path d="M48.6599 48.034V48.1011H38.5918V47.9111L41.9478 43.6264H49.7786L48.6599 48.034Z" fill="#F6BB42"/>
<path d="M53.1368 43.6264L54.2555 48.1011H48.6621V48.034L49.7808 43.6264H53.1368Z" fill="#2DA5E1"/>
<path d="M60.9655 43.6264L64.3216 48.1011H54.2534L53.1348 43.6264H60.9655Z" fill="#F6BB42"/>
<path d="M48.6621 48.1011H54.2555V53.6946H48.6621V48.1011Z" fill="#2DA5E1"/>
<path d="M64.3215 48.1011V66.0001H38.5918V48.1011H48.6599V53.6946H54.2533V48.1011H64.3215Z" fill="#FFCE54"/>
<path d="M60.9629 48.1011H64.3211V66.0001H60.9629V48.1011Z" fill="#F6BB42"/>
<path d="M38.5923 48.1011V66.0001H2.79446C2.17831 66.0001 1.67578 65.4964 1.67578 64.8814V57.0506C1.67578 52.1061 5.68075 48.1011 10.6362 48.1011H18.456L22.9307 50.3385L26.2868 49.2198L29.6428 50.3385L34.1176 48.1011H38.5923Z" fill="#2DA5E1"/>
<path d="M34.1186 42.8109V48.1011L29.6439 50.3385L26.2878 49.2198L22.9318 50.3385L18.457 48.1011V42.8109C20.7949 44.0426 23.4578 44.7462 26.2878 44.7462C29.1167 44.7462 31.7807 44.0415 34.1186 42.8109Z" fill="#FFCE54"/>
<path d="M26.3214 55.9308C25.7031 55.9308 25.1973 55.4305 25.1973 54.8121C25.1973 54.1933 25.6916 53.6935 26.3094 53.6935H26.3214C26.9392 53.6935 27.4401 54.1933 27.4401 54.8121C27.4401 55.4305 26.9392 55.9308 26.3214 55.9308Z" fill="#FFCE54"/>
</g>
<defs>
<clipPath id="clip0">
<rect width="66" height="66" fill="white"/>
</clipPath>
</defs>
</svg>
