<svg width="66" height="67" viewBox="0 0 66 67" fill="none" xmlns="http://www.w3.org/2000/svg">
<path fill-rule="evenodd" clip-rule="evenodd" d="M52.8842 19.5408C53.0838 19.4772 53.3465 19.6044 53.6091 19.9543C53.6091 19.9543 53.6091 19.9543 65.4795 31.6808C66.1728 32.3806 66.1728 33.4409 65.4795 33.9604C65.4795 33.9604 65.4795 33.9604 53.6091 45.8672C53.3465 46.2171 53.0838 46.3019 52.8842 46.1959C52.6847 46.0899 52.5586 45.7824 52.5586 45.3371V20.3042C52.5586 19.8695 52.6847 19.6044 52.8842 19.5408Z" fill="#ED1C24"/>
<path fill-rule="evenodd" clip-rule="evenodd" d="M32.5803 0H33.4206L34.2295 0.339287C34.2295 0.339287 34.2295 0.339286 46.4466 12.596C46.9718 13.2958 46.7933 13.8259 45.9214 13.8259C45.9214 13.8259 45.9214 13.8259 40.858 13.8259C39.9861 13.8259 39.2928 14.5257 39.2928 15.4057C39.2928 15.4057 39.2928 15.4057 39.2928 24.5028C39.2928 25.3828 38.589 26.0826 37.5385 26.0826C37.5385 26.0826 37.5385 26.0826 28.641 26.0826C27.7691 26.0826 27.0652 25.3828 27.0652 24.5028C27.0652 24.5028 27.0652 24.5028 27.0652 15.4057C27.0652 14.5257 26.3719 13.8259 25.4895 13.8259H20.0795C19.2076 13.8259 19.0291 13.2958 19.5543 12.596C19.5543 12.596 19.5543 12.596 31.7819 0.339287L32.5803 0Z" fill="#ED1C24"/>
<path fill-rule="evenodd" clip-rule="evenodd" d="M13.4409 19.2757C13.6615 19.3817 13.7981 19.6892 13.7981 20.1345V45.687C13.7981 46.1323 13.6615 46.3973 13.4409 46.4822C13.2308 46.567 12.9262 46.4822 12.569 46.2171C12.569 46.2171 12.569 46.2171 0.519988 33.9604C-0.173329 33.4409 -0.173329 32.3806 0.519988 31.6808C0.519988 31.6808 0.519989 31.6808 12.569 19.6044C12.9262 19.2545 13.2308 19.1696 13.4409 19.2757Z" fill="#ED1C24"/>
<path fill-rule="evenodd" clip-rule="evenodd" d="M28.6411 39.389C28.6411 39.389 28.6411 39.389 37.5386 39.389C38.5891 39.389 39.2929 40.0888 39.2929 40.9688C39.2929 40.9688 39.2929 40.9688 39.2929 50.596C39.2929 51.6457 39.9863 52.3455 40.8582 52.3455H45.5748C46.4467 52.3455 46.7934 52.865 46.1001 53.3951C46.1001 53.3951 46.1001 53.3951 34.2296 65.4716C33.8725 65.8215 33.4418 66.0017 33.0006 66.0017C32.5699 66.0017 32.1287 65.8215 31.782 65.4716C31.782 65.4716 31.782 65.4716 19.9116 53.3951C19.2078 52.865 19.5544 52.3455 20.4263 52.3455C20.4263 52.3455 20.4263 52.3455 25.4896 52.3455C26.372 52.3455 27.0653 51.6457 27.0653 50.596C27.0653 50.596 27.0653 50.596 27.0653 40.9688C27.0653 40.0888 27.7692 39.389 28.6411 39.389Z" fill="#ED1C24"/>
</svg>
