<svg width="117" height="27" viewBox="0 0 117 27" fill="none" xmlns="http://www.w3.org/2000/svg">
<path d="M66.8473 2.98028C66.6529 2.39487 66.398 1.89816 65.8494 1.87598H65.8148H65.3569H64.4756C64.4368 1.87155 64.3936 1.86711 64.3504 1.86711H63.9097C63.8665 1.86711 63.8233 1.87155 63.7845 1.87598C63.3266 1.94694 63.0976 2.41705 62.9248 2.96698L56.1426 22.4231C56.1426 22.6804 56.3456 22.8888 56.5962 22.8888H58.0131C58.5747 22.8888 58.8641 22.4143 59.0326 21.8421L60.3847 17.7886C60.4798 17.5092 60.7346 17.3229 61.0241 17.3229H68.5666C68.8517 17.3229 69.1066 17.5092 69.2016 17.7842L70.6099 21.8821C70.7827 22.4542 71.0851 22.9287 71.6726 22.9287H73.1543C73.4178 22.9287 73.6295 22.7203 73.6295 22.463L66.8473 2.98028ZM61.3135 15.0212L64.7348 4.78531L68.2556 15.0212H61.3135Z" fill="#76A62D"/>
<path d="M86.6738 1.9292C86.4924 1.85825 85.4426 1.86712 85.4426 1.86712C84.7385 1.88485 84.2892 1.86712 83.9739 2.31505C83.9264 2.38157 83.8918 2.45253 83.8572 2.52349L79.654 11.8591L75.3255 2.52792C75.2909 2.45696 75.2563 2.386 75.2088 2.31948C74.8935 1.87155 74.4442 1.88485 73.7401 1.87155C73.7401 1.87155 72.6903 1.86268 72.5089 1.93364C72.0769 2.10217 72.362 2.64767 72.565 3.0956L77.8742 13.9701C78.1161 14.4668 78.2414 15.0123 78.2414 15.5667V22.1304C78.2414 22.5739 78.5913 22.9331 79.0233 22.9331H80.1335C80.5655 22.9331 80.9154 22.5739 80.9154 22.1304V15.5977C80.9154 15.0434 81.0407 14.4979 81.2826 14.0011L86.6133 3.09116C86.8207 2.64323 87.1058 2.09773 86.6738 1.9292Z" fill="#76A62D"/>
<path d="M106.97 12.0853L94.2266 1.12648C94.1315 1.04665 93.9933 1.05108 93.9069 1.14422L92.0234 3.15769L102.43 12.0853L92.0234 21.0128L93.9069 23.0263C93.9933 23.1194 94.1315 23.1239 94.2266 23.044L106.97 12.0853Z" fill="#76A62D"/>
<path d="M116.128 12.174L103.385 1.21518C103.29 1.13535 103.152 1.13978 103.065 1.23292L101.182 3.24639L111.588 12.174L101.182 21.1015L103.065 23.115C103.152 23.2081 103.29 23.2126 103.385 23.1327L116.128 12.174Z" fill="#76A62D"/>
<path d="M16.4774 1.85382H14.8704C14.5335 1.85382 14.2656 2.13322 14.2656 2.47471V22.2324C14.2656 22.5917 14.5507 22.8888 14.905 22.8888H16.4515C16.8014 22.8888 17.0908 22.5961 17.0908 22.2324V2.47915C17.0865 2.13322 16.8144 1.85382 16.4774 1.85382Z" fill="#76A62D"/>
<path d="M10.7263 20.3831H3.55097V2.47915C3.55097 2.13322 3.27881 1.85825 2.94618 1.85825H1.48174C1.14479 1.85825 0.876953 2.13766 0.876953 2.47915V20.3875V22.024C0.876953 22.432 1.19663 22.7602 1.59406 22.7602H3.55529H10.7306C11.0762 22.7602 11.3527 22.4764 11.3527 22.1216V21.0217C11.3484 20.6713 11.0676 20.3831 10.7263 20.3831Z" fill="#76A62D"/>
<path d="M54.0391 3.01577C53.1449 2.39488 51.9094 1.95582 49.5464 1.95582H45.8184H44.9717C44.4274 1.95582 43.9824 2.40818 43.9824 2.97142V21.8466C43.9824 22.4231 44.436 22.8932 45.0019 22.8932H45.7881C46.3497 22.8932 46.8076 22.4276 46.8076 21.8466V14.7551C47.6543 14.7551 50.5832 14.7551 50.9288 14.7551C51.3306 14.7551 56.4885 13.9258 56.4885 8.16032C56.4842 5.65014 55.2314 3.84954 54.0391 3.01577ZM49.9914 12.582C49.7236 12.582 47.1187 12.582 47.1187 12.582H46.8033V4.12895H49.0756C50.6351 4.12895 51.4515 4.41722 52.0433 4.82967C52.8339 5.3796 53.659 6.56817 53.659 8.22684C53.6633 12.0365 50.2592 12.582 49.9914 12.582Z" fill="#76A62D"/>
<path d="M41.3676 23.3589C41.2553 23.2746 41.13 23.2126 40.9961 23.1593C39.9334 22.7425 38.3826 21.6381 37.5186 21.066C36.849 20.6225 36.9527 20.2722 37.0434 20.1258C37.0607 20.1037 37.0823 20.077 37.0996 20.0549C37.1039 20.0504 37.1039 20.0504 37.1039 20.0504C38.5727 18.2011 39.4237 15.5667 39.4237 12.2405C39.4237 6.35973 36.9743 1.59216 30.326 1.59216C24.209 1.59216 21.2715 6.35973 21.2715 12.2405C21.2715 18.1212 23.2457 23.1549 30.326 23.1549C31.7645 23.1549 33.0864 22.8711 34.2485 22.3211H34.2528C34.594 22.1703 34.9267 22.1748 35.3846 22.5163C38.6677 25.0131 40.2963 25.9312 41.4627 25.9312C42.0243 25.9312 41.9249 24.1572 41.9249 24.1572C41.9249 24.1572 41.8428 23.7093 41.3676 23.3589ZM24.1745 12.2848C24.1745 12.2715 24.1745 12.2582 24.1745 12.2405C24.1831 8.24902 25.6 4.01364 30.3346 4.01364C35.6999 4.01364 36.5207 8.24902 36.525 12.2405C36.525 12.2538 36.525 12.2671 36.525 12.2848C36.525 17.0347 35.026 20.6447 30.3346 20.6447C24.9477 20.6447 24.1745 16.2896 24.1745 12.2848Z" fill="#76A62D"/>
</svg>
