<svg width="64" height="64" viewBox="0 0 64 64" fill="none" xmlns="http://www.w3.org/2000/svg">
<path d="M32 0C14.3541 0 0 14.3541 0 32C0 49.6459 14.3541 64 32 64C49.6459 64 64 49.6459 64 32C64 14.3541 49.6459 0 32 0ZM30.6666 53.3334C28.4609 53.3334 26.6666 51.5391 26.6666 49.3334C26.6666 47.1276 28.4609 45.3334 30.6666 45.3334C32.8724 45.3334 34.6666 47.1276 34.6666 49.3334C34.6666 51.5391 32.8724 53.3334 30.6666 53.3334ZM34.6666 37.0677V41.3334C34.6666 42.0704 34.0702 42.6668 33.3332 42.6668H28C27.263 42.6668 26.6666 42.0704 26.6666 41.3334V34.6668C26.6666 31.7266 29.0599 29.3334 32 29.3334C34.9401 29.3334 37.3334 26.9401 37.3334 24C37.3334 21.0599 34.9401 18.6666 32 18.6666C29.0599 18.6666 26.6666 21.0599 26.6666 24V25.3334C26.6666 26.0704 26.0702 26.6667 25.3333 26.6667H20C19.263 26.6667 18.6666 26.0704 18.6666 25.3334V24C18.6666 16.6484 24.6484 10.6666 32 10.6666C39.3516 10.6666 45.3334 16.6485 45.3334 24C45.3334 30.3985 40.8255 35.8204 34.6666 37.0677Z" fill="#FF7878"/>
</svg>
