<svg width="72" height="72" viewBox="0 0 72 72" fill="none" xmlns="http://www.w3.org/2000/svg">
<path d="M53.36 2.56H5.31187C2.38375 2.56 0 4.94375 0 7.87187V55.92C0 58.8481 2.38375 61.2319 5.31187 61.2319H53.36C56.2881 61.2319 58.6719 58.8481 58.6719 55.92V7.87187C58.6719 4.94375 56.2881 2.56 53.36 2.56V2.56Z" fill="#AD6327"/>
<path d="M5.31188 2.56C2.38375 2.56 0 4.94375 0 7.87187V55.92C0 58.8481 2.38375 61.2319 5.31188 61.2319H29.3281V2.56L5.31188 2.56Z" fill="#D1833D"/>
<path d="M19.791 2.56V22.6562C19.791 23.3762 20.1591 24.0481 20.751 24.4637C21.3591 24.8637 22.111 24.9437 22.7829 24.6562L29.3273 21.92L35.871 24.6562C36.1429 24.7681 36.431 24.8162 36.7029 24.8162C37.1191 24.8162 37.5354 24.6881 37.9029 24.4481C38.511 24.0481 38.8629 23.3762 38.8629 22.64V2.56H19.791Z" fill="#F99C18"/>
<path d="M19.791 2.56V22.6562C19.791 23.3762 20.1591 24.0481 20.751 24.4637C21.3591 24.8637 22.111 24.9437 22.7829 24.6562L29.3273 21.92V2.56H19.791Z" fill="#FDC578"/>
<path d="M52.2079 29.7281C41.296 29.7281 32.416 38.6081 32.416 49.52C32.416 60.4319 41.296 69.3119 52.2079 69.3119C63.1198 69.3119 71.9998 60.4319 71.9998 49.52C71.9998 38.6081 63.1198 29.7281 52.2079 29.7281Z" fill="#2DA5E1"/>
<path d="M54.5595 40.3838H52.7357C51.5357 40.3838 50.5757 41.36 50.5757 42.5438C50.5757 43.7438 51.5513 44.7038 52.7357 44.7038H54.5595C56.0632 44.7038 57.2957 45.9363 57.2957 47.44C57.2957 48.9438 56.0632 50.1763 54.5595 50.1763H50.5276L50.9432 49.7919C51.8232 48.9919 51.8876 47.6163 51.0876 46.7363C50.2876 45.8563 48.9113 45.7919 48.0313 46.5919L43.4876 50.7363C43.0395 51.1519 42.7832 51.7281 42.7832 52.3363C42.7832 52.9438 43.0395 53.52 43.4876 53.9363L48.0313 58.08C48.4476 58.4638 48.9757 58.64 49.4876 58.64C50.0795 58.64 50.6557 58.4 51.0876 57.9363C51.8876 57.0563 51.8232 55.68 50.9432 54.88L50.5276 54.4963H54.5595C58.4632 54.4963 61.6313 51.3281 61.6313 47.4238C61.6313 43.5519 58.4632 40.3838 54.5595 40.3838Z" fill="white"/>
</svg>
