<svg width="108" height="108" viewBox="0 0 108 108" fill="none" xmlns="http://www.w3.org/2000/svg">
<g clip-path="url(#clip0)">
<path d="M104.753 15.8123C102.945 17.8115 100.348 19.8494 97.0154 21.8915C96.3048 22.3281 95.5598 22.7648 94.7808 23.2016C92.0259 24.7427 88.9114 26.2562 85.5187 27.7032C84.5062 28.1357 83.5836 28.5124 82.7852 28.8292C80.9036 29.574 79.7048 29.9936 79.6342 30.0172C79.4629 30.0771 79.2853 30.105 79.1077 30.105C78.8122 30.105 78.519 30.0238 78.2622 29.8651C77.849 29.6103 77.5752 29.1823 77.5151 28.7029C77.2647 26.7293 77.2926 24.7001 77.5942 22.673C77.7248 21.7953 78.5447 21.1939 79.418 21.3224C80.2957 21.453 80.9013 22.2708 80.7707 23.1483C80.6144 24.1863 80.5437 25.2245 80.5566 26.2499C80.8819 26.1256 81.2436 25.9845 81.6353 25.8303C82.4059 25.5222 83.2921 25.1604 84.2575 24.7495C87.5454 23.3474 90.5572 21.8854 93.2114 20.3997C93.8813 20.023 94.6093 19.6014 95.3583 19.139C100.252 16.1228 106.17 11.4309 104.468 7.13895C103.636 5.03696 102.167 3.86183 100.108 3.64351C95.4053 3.14464 88.7376 7.44291 84.5786 13.6464L83.337 15.7526C82.8875 16.5168 81.9028 16.7716 81.1386 16.3219C80.3744 15.8724 80.1198 14.8877 80.5693 14.1235L81.8343 11.9766C81.8492 11.9509 81.8663 11.9251 81.8834 11.8994C86.7339 4.63871 94.5426 -0.177623 100.446 0.449705C103.694 0.794377 106.181 2.75082 107.452 5.95517C108.711 9.12746 107.802 12.4453 104.753 15.8123Z" fill="#DB5C6E"/>
<path d="M79.106 30.1056C78.8105 30.1056 78.5167 30.024 78.2595 29.8643C77.8484 29.6091 77.5742 29.1819 77.5132 28.7018C77.2633 26.7281 77.2899 24.6995 77.5926 22.6728C77.7235 21.7957 78.543 21.1925 79.4174 21.3222C80.2942 21.4532 80.899 22.2703 80.7682 23.1472C80.6132 24.1859 80.5425 25.2237 80.5562 26.2501C81.5282 25.8761 82.8038 25.3684 84.2573 24.7489C87.5446 23.348 90.5566 21.8848 93.2095 20.3993C98.256 17.5721 106.429 12.0897 104.467 7.13917C103.634 5.0376 102.167 3.8612 100.107 3.64267C95.4033 3.14402 88.7357 7.44208 84.5763 13.6455L83.3357 15.753C82.8856 16.517 81.902 16.7714 81.1378 16.3221C80.3738 15.8724 80.1189 14.8884 80.5687 14.1242L81.8328 11.9768C81.8482 11.9507 81.8647 11.9247 81.8815 11.8994C86.7323 4.6383 94.5416 -0.177827 100.446 0.449712C103.692 0.794173 106.181 2.74956 107.452 5.95581C108.709 9.12789 107.801 12.444 104.752 15.8125C102.557 18.2372 99.2014 20.7229 94.7787 23.2008C92.0251 24.7423 88.9089 26.2569 85.5164 27.7026C82.1267 29.1478 79.7329 29.982 79.6327 30.0168C79.4612 30.0763 79.2832 30.1056 79.106 30.1056Z" fill="#DB5C6E"/>
<path d="M95.4251 56.496C96.2887 55.4823 96.889 54.267 97.1569 52.9635C98.1074 48.3349 99.4122 36.3987 93.089 19.2145C92.2884 17.037 90.5701 15.3187 88.3926 14.5182C71.2084 8.19492 59.2721 9.49999 54.645 10.4517C53.3399 10.7179 52.1247 11.3183 51.1124 12.1835C32.1791 28.3333 17.8653 42.4853 1.94053 60.8612C-0.547474 63.7316 -0.654841 67.9704 1.7007 70.9497C11.9936 83.9613 23.6458 95.6137 36.6577 105.907C39.637 108.262 43.8755 108.155 46.746 105.667C65.1233 89.7434 79.2738 75.4281 95.4251 56.496ZM74.7144 32.8928C72.2884 30.4668 72.2884 26.5326 74.7144 24.1066C77.1406 21.6804 81.0746 21.6804 83.5008 24.1066C85.927 26.5328 85.9268 30.4668 83.5008 32.893C81.0746 35.319 77.1404 35.319 74.7144 32.8928Z" fill="#FFD064"/>
<path d="M54.6434 10.4522C53.3377 10.7194 52.1233 11.3189 51.111 12.1835C32.176 28.3335 17.8639 42.487 1.93766 60.8616C-0.549713 63.7314 -0.656236 67.9721 1.69867 70.9505C1.87691 71.1764 2.05705 71.4023 2.2353 71.6261C1.81173 69.3474 2.56541 66.7339 4.39255 64.6722C20.8727 46.0848 35.4932 31.6054 54.624 14.8688C55.6451 13.9716 56.8377 13.3089 58.089 12.9526C61.6235 11.938 69.5531 10.337 80.565 12.0424C67.5804 8.60329 58.532 9.6527 54.6434 10.4522Z" fill="#FFC250"/>
<path d="M25.7219 70.9005C25.4374 70.616 25.2034 70.2711 25.0414 69.875C24.3892 68.2794 25.1541 66.4573 26.7496 65.8051L65.1426 50.1112C66.7379 49.4592 68.5595 50.2232 69.2124 51.8191C69.8646 53.4147 69.0998 55.2367 67.5042 55.889L29.1113 71.5829C27.9117 72.0733 26.5842 71.7628 25.7219 70.9005Z" fill="#DB5C6E"/>
<path d="M37.9941 49.8724C34.012 45.8903 34.3767 39.0466 38.8069 34.6163C43.237 30.186 50.0808 29.8217 54.0629 33.8036C58.045 37.7857 57.6805 44.6295 53.2504 49.0596C48.8203 53.4897 41.9762 53.8545 37.9941 49.8724ZM49.6488 38.2174C48.1269 36.6955 45.1829 37.0676 43.2203 39.0302C41.2577 40.9927 40.8856 43.9366 42.4076 45.4587C43.9297 46.9808 46.8735 46.6087 48.8361 44.6462C50.7989 42.6834 51.171 39.7396 49.6488 38.2174Z" fill="#DB5C6E"/>
<path d="M39.2442 88.1044C35.2621 84.1223 35.6266 77.2784 40.0567 72.8483C44.4868 68.4182 51.3307 68.0537 55.3128 72.0358C59.2949 76.0179 58.9302 82.8615 54.5 87.2916C50.0701 91.7217 43.2263 92.0862 39.2442 88.1044ZM50.8991 76.4495C49.377 74.9273 46.4332 75.2994 44.4706 77.262C42.508 79.2245 42.1359 82.1684 43.6581 83.6905C45.18 85.2124 48.124 84.8403 50.0866 82.8778C52.049 80.9152 52.421 77.9714 50.8991 76.4495Z" fill="#DB5C6E"/>
<path d="M79.1058 36.3152C77.1038 36.3152 75.1016 35.5531 73.5774 34.0289C70.5289 30.9804 70.5289 26.0204 73.5774 22.9719C75.0541 21.4952 77.0175 20.682 79.106 20.682C81.1943 20.682 83.1575 21.4952 84.6345 22.9719C87.6829 26.0204 87.6829 30.9804 84.6345 34.0289C83.11 35.5531 81.108 36.3152 79.1058 36.3152ZM79.106 23.8929C77.8752 23.8929 76.7182 24.3721 75.8479 25.2425C74.0511 27.039 74.0511 29.9622 75.8479 31.7586C77.6447 33.5553 80.5676 33.5549 82.3637 31.7586C84.1605 29.962 84.1605 27.0388 82.3637 25.2425C81.4936 24.3721 80.3366 23.8929 79.106 23.8929Z" fill="#FFC250"/>
<path d="M97.0125 21.8915C96.3018 22.3281 95.5568 22.7648 94.7778 23.2016C92.023 24.7427 88.9085 26.2562 85.5158 27.7032C84.5033 28.1357 83.5806 28.5124 82.7822 28.8292C82.2085 27.9365 81.8104 26.9198 81.6328 25.8303C82.4034 25.5222 83.2895 25.1604 84.255 24.7495C87.5429 23.3474 90.5546 21.8854 93.2089 20.3997C93.8788 20.023 94.6067 19.6014 95.3558 19.139C96.0833 19.9264 96.6507 20.8598 97.0125 21.8915Z" fill="#DB5C6E"/>
</g>
<defs>
<clipPath id="clip0">
<rect width="108" height="108" fill="white"/>
</clipPath>
</defs>
</svg>
