<svg width="132" height="132" viewBox="0 0 132 132" fill="none" xmlns="http://www.w3.org/2000/svg">
<g clip-path="url(#clip0)">
<path d="M129.193 67.8546V88.7828C129.194 91.3309 127.128 93.3966 124.58 93.3969C124.58 93.3969 124.58 93.3969 124.579 93.3969H117.514L117.337 93.447C115.419 86.9181 108.571 83.1803 102.042 85.0984C97.986 86.2902 94.8239 89.4782 93.6657 93.5442L93.1972 93.3969H84.0781V59.3218H116.394L126.397 63.6147C128.094 64.3404 129.194 66.009 129.193 67.8546Z" fill="#00EFD1"/>
<path d="M117.337 93.447C119.255 99.9759 115.518 106.824 108.989 108.742C102.46 110.66 95.6124 106.922 93.6943 100.393C91.7761 93.8645 95.5137 87.0168 102.043 85.0987C103.171 84.7672 104.34 84.599 105.516 84.599C110.988 84.5848 115.809 88.1933 117.337 93.447Z" fill="#D4E1F4"/>
<path d="M108.253 43.5233L116.394 59.3218H84.0781V38.5232H100.051C103.505 38.5244 106.669 40.4537 108.253 43.5233Z" fill="#D4E1F4"/>
<path d="M84.0781 70.6802V93.3969H36.3111L36.0695 93.4676C34.1629 86.9357 27.3222 83.1862 20.7901 85.0928C16.7738 86.2652 13.6268 89.3957 12.4335 93.4057L12.404 93.3969H7.41874C4.8707 93.3972 2.80498 91.3321 2.80469 88.784C2.80469 88.7837 2.80469 88.7831 2.80469 88.7828V70.6802H84.0781Z" fill="#00CEB4"/>
<path d="M84.0781 59.3218V70.6802H2.80469V31.9145C2.80498 26.8175 6.93583 22.6855 12.0328 22.6834H74.85C79.9469 22.6855 84.0778 26.8175 84.0781 31.9145V59.3218Z" fill="#00ACEA"/>
<path d="M36.0689 93.4676C37.9755 99.9995 34.2257 106.84 27.6938 108.747C21.1619 110.653 14.321 106.903 12.4147 100.372C10.5081 93.8397 14.258 86.9988 20.7898 85.0925C21.9115 84.7651 23.0739 84.599 24.2421 84.599C29.7262 84.5713 34.5592 88.1953 36.0689 93.4676Z" fill="#D4E1F4"/>
<path d="M127.49 60.9073L118.494 57.0325L110.854 42.19C108.779 38.1387 104.604 35.5966 100.052 35.6122H86.9194V31.9145C86.9194 25.1999 81.5641 19.7017 74.851 19.7017H12.0339C5.32079 19.7017 0.000775458 25.1999 0.000775458 31.9145V88.7828C-0.0578578 92.8798 3.21588 96.2487 7.31285 96.3071C7.3485 96.3076 7.38415 96.3079 7.4198 96.3079H8.98934C8.98227 96.6026 8.97844 96.7084 8.97844 96.9002C8.97668 105.331 15.8097 112.167 24.2405 112.169C32.6713 112.17 39.5072 105.337 39.509 96.9066C39.509 96.9034 39.509 96.9005 39.509 96.8972C39.509 96.7054 39.5049 96.6026 39.4978 96.3079H90.2642C90.2571 96.6026 90.253 96.7084 90.253 96.9002C90.1796 105.331 96.9546 112.224 105.385 112.297C113.816 112.371 120.709 105.596 120.782 97.1653C120.783 97.0758 120.783 96.9865 120.782 96.8969C120.782 96.7051 120.778 96.6023 120.771 96.3076H124.58C128.678 96.3079 132 92.9868 132 88.8895C132 88.8539 132 88.8182 131.999 88.7825V67.8543C132.033 64.8419 130.255 62.1035 127.49 60.9073ZM100.052 41.505C102.39 41.4655 104.551 42.749 105.635 44.8214L111.563 56.237H86.9194V41.505H100.052ZM12.0339 25.5945H74.851C78.2921 25.6248 81.0573 28.4389 81.0269 31.88C81.0269 31.8915 81.0266 31.903 81.0266 31.9145V67.7279H5.89357V31.9145C5.89357 28.4492 8.57007 25.5945 12.0339 25.5945ZM24.2437 106.29C19.0648 106.288 14.8686 102.088 14.8709 96.9087C14.8712 96.0083 15.0015 95.1129 15.2572 94.2496L15.2593 94.2428C16.7378 89.2811 21.9585 86.4576 26.9202 87.9361C29.9706 88.845 32.3516 91.2398 33.2426 94.2958C34.6893 99.2673 31.8316 104.47 26.8601 105.917C26.0098 106.165 25.1291 106.29 24.2437 106.29ZM24.2437 81.6172C18.3223 81.6308 12.939 85.0565 10.4192 90.4151H7.4198C6.50023 90.4151 5.89357 89.7024 5.89357 88.7828V73.6207H81.0266V90.4151H38.0682C35.5505 85.0548 30.166 81.6278 24.2437 81.6172ZM105.517 106.29C100.336 106.286 96.1402 102.083 96.1446 96.9019C96.1452 96.0401 96.2648 95.1827 96.4996 94.3536V94.3483C97.918 89.3695 103.104 86.4832 108.083 87.9019C113.062 89.3203 115.948 94.5062 114.529 99.485C113.382 103.512 109.703 106.29 105.515 106.29H105.517ZM126.107 88.7828C126.107 89.7024 125.5 90.4151 124.58 90.4151H119.342C115.772 82.779 106.688 79.4823 99.0524 83.0515C95.8105 84.5668 93.2044 87.1732 91.6888 90.4151H86.9194V62.1298H115.79L125.17 66.2547C125.771 66.5558 126.139 67.1831 126.107 67.8546V88.7828Z" fill="#083863"/>
</g>
<defs>
<clipPath id="clip0">
<rect width="132" height="132" fill="white"/>
</clipPath>
</defs>
</svg>
