<svg width="32" height="32" viewBox="0 0 32 32" fill="none" xmlns="http://www.w3.org/2000/svg">
<path d="M32 16C32 7.16341 24.8366 0 16 0C7.16347 0 6.67572e-05 7.16341 6.67572e-05 16C6.67572e-05 24.8365 7.16347 31.9999 16 31.9999C24.8324 31.99 31.99 24.8324 32 16Z" fill="#0077fa" fill-opacity="1"/>
<path d="M22.8187 16.9277C23.3271 16.4121 23.3271 15.5763 22.8187 15.0608L18.0034 10.1844C17.2345 9.40508 15.9879 9.40508 15.219 10.1844C14.4746 10.9741 14.4746 12.2176 15.219 13.0072L16.0004 13.7994L10.9706 13.7994C9.77182 13.7994 8.80001 14.7846 8.80001 15.9999C8.80001 17.2152 9.77182 18.2004 10.9706 18.2004H16.0004L15.219 18.9926C14.4746 19.7823 14.4746 21.0257 15.219 21.8154C15.9879 22.5948 17.2345 22.5948 18.0034 21.8154L22.8187 16.9277Z" fill="white"/>
</svg>
