<svg width="7" height="7" viewBox="0 0 7 7" fill="none" xmlns="http://www.w3.org/2000/svg">
<g clip-path="url(#clip0)">
<path d="M1.77806 0.111887L1.54717 0.341182C1.47506 0.413345 1.43534 0.509354 1.43534 0.611964C1.43534 0.714518 1.47506 0.810641 1.54717 0.882804L4.16292 3.49843L1.54427 6.11708C1.47216 6.18913 1.4325 6.28525 1.4325 6.38781C1.4325 6.49036 1.47216 6.58654 1.54427 6.65865L1.77373 6.888C1.92295 7.03733 2.16602 7.03733 2.31524 6.888L5.44427 3.77019C5.51632 3.69814 5.56708 3.60213 5.56708 3.49866V3.49747C5.56708 3.39486 5.51626 3.29885 5.44427 3.2268L2.32372 0.111887C2.25167 0.0397239 2.15276 0.000113487 2.05021 0C1.9476 0 1.85005 0.0397239 1.77806 0.111887Z" fill="#889CB2"/>
</g>
<defs>
<clipPath id="clip0">
<rect width="7" height="7" fill="white" transform="translate(0 7) rotate(-90)"/>
</clipPath>
</defs>
</svg>
