<svg width="20" height="20" viewBox="0 0 20 20" fill="none" xmlns="http://www.w3.org/2000/svg">
<path d="M8.62 15.347L4.85442 9.07057C4.74853 8.89408 4.55778 8.78607 4.352 8.78607C4.14614 8.78607 3.95543 8.89408 3.84957 9.07057L0.0839929 15.347C-0.0246018 15.5281 -0.0274924 15.7535 0.076571 15.9372C0.180556 16.1209 0.375324 16.2344 0.586458 16.2344H8.11766C8.32875 16.2344 8.52356 16.1209 8.62754 15.9372C8.73149 15.7534 8.7286 15.528 8.62 15.347ZM1.62123 15.0625L4.35196 10.5109L7.08273 15.0625H1.62123Z" fill="#E4F3FB"/>
<path d="M8.61953 15.347L4.85395 9.07057C4.74805 8.89408 4.55731 8.78611 4.35156 8.78607V10.511L7.08229 15.0625H4.35156V16.2344H8.1171C8.3282 16.2344 8.52301 16.1209 8.62699 15.9372C8.73102 15.7534 8.72812 15.528 8.61953 15.347Z" fill="#E4F3FB"/>
<path d="M8.11714 15.0624H0.585943C0.262346 15.0624 0 15.3248 0 15.6484C0 18.0478 1.95209 19.9997 4.35148 19.9997C6.75096 19.9997 8.703 18.0477 8.703 15.6484C8.70308 15.3248 8.44074 15.0624 8.11714 15.0624Z" fill="#E4F3FB"/>
<path d="M19.9163 12.209L16.1507 5.93257C16.0449 5.75608 15.8541 5.64807 15.6483 5.64807C15.4424 5.64807 15.2517 5.75608 15.1459 5.93257L11.3804 12.209C11.2718 12.39 11.2689 12.6154 11.373 12.7992C11.4769 12.9829 11.6717 13.0964 11.8828 13.0964H19.414C19.6251 13.0964 19.8199 12.9829 19.9238 12.7992C20.0278 12.6155 20.025 12.39 19.9163 12.209ZM12.9175 11.9245L15.6483 7.37293L18.379 11.9245H12.9175Z" fill="#E4F3FB"/>
<path d="M19.9164 12.209L16.1508 5.93257C16.045 5.75608 15.8543 5.64811 15.6484 5.64807V7.37297L18.3791 11.9245H15.6484V13.0964H19.4139C19.625 13.0964 19.8198 12.9829 19.9238 12.7992C20.0279 12.6155 20.0251 12.39 19.9164 12.209Z" fill="#E4F3FB"/>
<path d="M19.4139 11.9246H11.8828C11.5592 11.9246 11.2969 12.1869 11.2969 12.5105C11.2969 14.9099 13.249 16.8619 15.6484 16.8619C16.8107 16.8619 17.9034 16.4093 18.7254 15.5874C19.5473 14.7655 19.9999 13.6728 19.9998 12.5105C19.9999 12.1869 19.7375 11.9246 19.4139 11.9246Z" fill="#E4F3FB"/>
<path d="M19.9782 5.03136C19.8915 4.71956 19.5685 4.53702 19.2568 4.62363L10.5855 7.0322V0.585941C10.5855 0.262346 10.3232 0 9.9996 0C9.67601 0 9.41366 0.262346 9.41366 0.585941V7.35771L0.428796 9.85343C0.116958 9.94003 -0.0655432 10.263 0.0210199 10.5748C0.0930907 10.8342 0.3286 11.0041 0.585242 11.0041C0.637157 11.0041 0.68997 10.9971 0.742392 10.9825L19.5704 5.75273C19.8822 5.66617 20.0648 5.34316 19.9782 5.03136Z" fill="#E4F3FB"/>
<path d="M19.9791 5.03131C19.8924 4.71951 19.5694 4.53697 19.2577 4.62357L10.5864 7.03215V0.585882C10.5864 0.262285 10.3241 -6.10352e-05 10.0005 -6.10352e-05V8.41115L19.5714 5.75268C19.8832 5.66612 20.0657 5.34311 19.9791 5.03131Z" fill="#E4F3FB"/>
<path d="M8.11759 15.0624H4.35205V19.9997C6.75148 19.9997 8.70353 18.0477 8.70353 15.6484C8.70353 15.3248 8.44118 15.0624 8.11759 15.0624Z" fill="#E4F3FB"/>
<path d="M19.4144 11.9246H15.6489V16.8619C16.8113 16.8619 17.904 16.4093 18.7259 15.5874C19.5479 14.7655 20.0005 13.6728 20.0004 12.5105C20.0004 12.1869 19.738 11.9246 19.4144 11.9246Z" fill="#E4F3FB"/>
</svg>
