<svg width="20" height="12" viewBox="0 0 20 12" fill="none" xmlns="http://www.w3.org/2000/svg">
<path d="M0.319677 10.9192L0.974806 11.5789C1.18099 11.7849 1.4553 11.8984 1.74847 11.8984C2.04148 11.8984 2.31612 11.7849 2.5223 11.5789L9.99553 4.10534L17.4774 11.5872C17.6832 11.7932 17.9579 11.9065 18.2509 11.9065C18.5439 11.9065 18.8187 11.7932 19.0247 11.5872L19.68 10.9316C20.1067 10.5052 20.1067 9.81076 19.68 9.38441L10.772 0.444337C10.5661 0.238482 10.2918 0.0934391 9.99618 0.0934391H9.99276C9.69959 0.0934391 9.42528 0.238645 9.21942 0.444337L0.319677 9.36018C0.113497 9.56604 0.000326157 9.84864 0 10.1417C0 10.4348 0.113497 10.7135 0.319677 10.9192Z" fill="white"/>
</svg>
