<svg width="18" height="18" viewBox="0 0 18 18" fill="none" xmlns="http://www.w3.org/2000/svg">
<path d="M15.3721 2.14979C14.6415 1.76163 13.8052 1.53955 12.9142 1.53955C11.3444 1.53955 9.93394 2.22893 9.003 3.30796C8.06573 2.22882 6.66 1.53955 5.08626 1.53955C4.19611 1.53955 3.35789 1.76099 2.62804 2.14979C1.06148 2.97998 0 4.58017 0 6.42825C0 6.95765 0.0894111 7.46038 0.251529 7.93614C1.12155 11.7055 6.69287 16.4603 9.00343 16.4603C11.2502 16.4603 16.875 11.7055 17.7488 7.93614C17.9109 7.46038 18 6.95765 18 6.42825C18.0007 4.58017 16.9383 2.97998 15.3721 2.14979Z" fill="#E4F3FB"/>
</svg>
