<svg width="24" height="24" viewBox="0 0 24 24" fill="none" xmlns="http://www.w3.org/2000/svg">
<path d="M21.75 0.625H16.875C15.978 0.625 15.25 1.353 15.25 2.25C15.25 3.147 15.978 3.875 16.875 3.875H17.85L14.1125 7.61331C13.8525 7.87331 13.625 8.217 13.625 8.75C13.625 9.63888 14.3229 10.375 15.25 10.375C15.7708 10.375 16.1023 10.1735 16.3875 9.8875L20.125 6.15V7.125C20.125 8.022 20.853 8.75 21.75 8.75C22.647 8.75 23.375 8.022 23.375 7.125V2.25C23.375 1.353 22.647 0.625 21.75 0.625ZM8.75 13.625C8.22919 13.625 7.89769 13.8265 7.6125 14.1125L3.875 17.85V16.875C3.875 15.978 3.147 15.25 2.25 15.25C1.353 15.25 0.625 15.978 0.625 16.875V21.75C0.625 22.647 1.353 23.375 2.25 23.375H7.125C8.022 23.375 8.75 22.647 8.75 21.75C8.75 20.853 8.022 20.125 7.125 20.125H6.15L9.8875 16.3867C10.1475 16.1267 10.375 15.783 10.375 15.25C10.375 14.3611 9.67706 13.625 8.75 13.625Z" fill="#0077FA"/>
</svg>
