<svg width="16" height="16" viewBox="0 0 16 16" fill="none" xmlns="http://www.w3.org/2000/svg">
<g clip-path="url(#clip0)">
<path d="M15.1006 6.7454L15.1256 6.75086H4.41913L7.78485 3.37772C7.94966 3.21304 8.04007 2.98995 8.04007 2.7558C8.04007 2.52166 7.94966 2.30013 7.78485 2.13505L7.26114 1.61109C7.09646 1.4464 6.87701 1.35535 6.643 1.35535C6.40885 1.35535 6.18927 1.44575 6.02459 1.61044L0.255093 7.37941C0.0897596 7.54475 -0.000646921 7.76497 3.48506e-06 7.99925C-0.000646921 8.23483 0.0897596 8.45519 0.255093 8.62026L6.02459 14.3898C6.18927 14.5543 6.40872 14.6448 6.643 14.6448C6.87701 14.6448 7.09646 14.5542 7.26114 14.3898L7.78485 13.8658C7.94966 13.7014 8.04007 13.4818 8.04007 13.2476C8.04007 13.0136 7.94966 12.8056 7.78485 12.6411L4.38114 9.24907H15.1126C15.5948 9.24907 16 8.83346 16 8.35151V7.61044C16 7.12849 15.5828 6.7454 15.1006 6.7454Z" fill="#2DA5E1"/>
</g>
<defs>
<clipPath id="clip0">
<rect width="16" height="16" fill="white"/>
</clipPath>
</defs>
</svg>
