<svg width="25" height="25" viewBox="0 0 25 25" fill="none" xmlns="http://www.w3.org/2000/svg">
<path d="M23.1613 4.1666C23.1613 6.03638 21.6458 7.55215 19.776 7.55215C17.9062 7.55215 16.3906 6.03638 16.3906 4.1666C16.3906 2.29702 17.9062 0.78125 19.776 0.78125C21.6458 0.78125 23.1613 2.29702 23.1613 4.1666Z" fill="#2DA5E1"/>
<path d="M19.776 8.3334C17.478 8.3334 15.6094 6.46458 15.6094 4.1666C15.6094 1.86882 17.478 0 19.776 0C22.074 0 23.9426 1.86882 23.9426 4.1666C23.9426 6.46458 22.074 8.3334 19.776 8.3334ZM19.776 1.5625C18.3396 1.5625 17.1719 2.73132 17.1719 4.1666C17.1719 5.60207 18.3396 6.7709 19.776 6.7709C21.2124 6.7709 22.3801 5.60207 22.3801 4.1666C22.3801 2.73132 21.2124 1.5625 19.776 1.5625Z" fill="#2DA5E1"/>
<path d="M23.1613 20.8334C23.1613 22.703 21.6458 24.2188 19.776 24.2188C17.9062 24.2188 16.3906 22.703 16.3906 20.8334C16.3906 18.9636 17.9062 17.4479 19.776 17.4479C21.6458 17.4479 23.1613 18.9636 23.1613 20.8334Z" fill="#2DA5E1"/>
<path d="M19.776 25C17.478 25 15.6094 23.1312 15.6094 20.8334C15.6094 18.5354 17.478 16.6666 19.776 16.6666C22.074 16.6666 23.9426 18.5354 23.9426 20.8334C23.9426 23.1312 22.074 25 19.776 25ZM19.776 18.2291C18.3396 18.2291 17.1719 19.3979 17.1719 20.8334C17.1719 22.2687 18.3396 23.4375 19.776 23.4375C21.2124 23.4375 22.3801 22.2687 22.3801 20.8334C22.3801 19.3979 21.2124 18.2291 19.776 18.2291Z" fill="#2DA5E1"/>
<path d="M8.57754 12.5C8.57754 14.3698 7.06177 15.8853 5.19199 15.8853C3.32241 15.8853 1.80664 14.3698 1.80664 12.5C1.80664 10.6302 3.32241 9.11462 5.19199 9.11462C7.06177 9.11462 8.57754 10.6302 8.57754 12.5Z" fill="#2DA5E1"/>
<path d="M5.19199 16.6666C2.89421 16.6666 1.02539 14.7979 1.02539 12.5C1.02539 10.202 2.89421 8.33337 5.19199 8.33337C7.48997 8.33337 9.35879 10.202 9.35879 12.5C9.35879 14.7979 7.48997 16.6666 5.19199 16.6666ZM5.19199 9.89587C3.75557 9.89587 2.58789 11.0645 2.58789 12.5C2.58789 13.9354 3.75557 15.1041 5.19199 15.1041C6.62861 15.1041 7.79629 13.9354 7.79629 12.5C7.79629 11.0645 6.62861 9.89587 5.19199 9.89587Z" fill="#2DA5E1"/>
<path d="M7.65208 12.0001C7.28949 12.0001 6.9374 11.8115 6.74571 11.4741C6.46132 10.9751 6.63642 10.3386 7.13538 10.0531L16.8009 4.54275C17.2998 4.25627 17.9363 4.43136 18.2218 4.93223C18.5062 5.43119 18.3311 6.06768 17.8322 6.35321L8.16649 11.8635C8.00399 11.9562 7.82698 12.0001 7.65208 12.0001Z" fill="#2DA5E1"/>
<path d="M17.3155 20.5938C17.1404 20.5938 16.9634 20.55 16.8009 20.4573L7.13524 14.9469C6.63627 14.6626 6.46137 14.0261 6.74576 13.526C7.029 13.026 7.66643 12.85 8.16654 13.1365L17.8322 18.6468C18.3312 18.9312 18.5061 19.5677 18.2217 20.0678C18.0291 20.4052 17.677 20.5938 17.3155 20.5938Z" fill="#2DA5E1"/>
</svg>
