<svg width="21" height="21" viewBox="0 0 21 21" fill="none" xmlns="http://www.w3.org/2000/svg">
<g clip-path="url(#clip0)">
<path d="M1.16642 6.38788H12.9208V4.05502H1.16642C0.522252 4.05502 0 4.57727 0 5.22143C0 5.86559 0.522252 6.38788 1.16642 6.38788Z" fill="#2DA5E1"/>
<path d="M1.16642 11.0689H12.9208V8.73602H1.16642C0.522252 8.73602 0 9.25828 0 9.90251C0 10.5467 0.522252 11.0689 1.16642 11.0689Z" fill="#2DA5E1"/>
<path d="M1.16642 13.4121V13.4121C0.522252 13.4121 0 13.9343 0 14.5785C0 15.2227 0.522252 15.745 1.16642 15.745H9.33249C9.24024 15.4609 9.19154 15.1612 9.19154 14.8539C9.19154 14.3391 9.32651 13.8454 9.5786 13.4121H1.16642Z" fill="#2DA5E1"/>
<path d="M20.5685 13.8147C19.9925 13.2386 19.0585 13.2386 18.4824 13.8147L17.2713 15.0259V2.41823C17.2713 1.60354 16.6109 0.943169 15.7962 0.943169C14.9815 0.943169 14.3211 1.60358 14.3211 2.41823V15.0259L13.1099 13.8147C12.5339 13.2387 11.5999 13.2386 11.0238 13.8147C10.4478 14.3908 10.4478 15.3247 11.0238 15.9008L14.7529 19.6298C15.3278 20.2049 16.263 20.2069 16.8395 19.6298L20.5685 15.9008C21.1446 15.3247 21.1446 14.3908 20.5685 13.8147Z" fill="#2DA5E1"/>
</g>
<defs>
<clipPath id="clip0">
<rect width="21" height="21" fill="white"/>
</clipPath>
</defs>
</svg>
