<svg width="17" height="17" viewBox="0 0 17 17" fill="none" xmlns="http://www.w3.org/2000/svg">
<g clip-path="url(#clip0)">
<path d="M4.31774 0.271727L3.75701 0.828585C3.5819 1.00384 3.48543 1.237 3.48543 1.4862C3.48543 1.73526 3.5819 1.9687 3.75701 2.14395L10.1095 8.4962L3.74997 14.8558C3.57485 15.0307 3.47852 15.2642 3.47852 15.5132C3.47852 15.7623 3.57485 15.9959 3.74997 16.171L4.30724 16.728C4.66963 17.0907 5.25994 17.0907 5.62233 16.728L13.2214 9.15616C13.3964 8.98119 13.5197 8.74802 13.5197 8.49675V8.49385C13.5197 8.24465 13.3962 8.01149 13.2214 7.83651L5.64292 0.271727C5.46795 0.0964737 5.22773 0.000276566 4.97867 0C4.72948 0 4.49258 0.0964737 4.31774 0.271727Z" fill="#2DA5E1"/>
</g>
<defs>
<clipPath id="clip0">
<rect width="17" height="17" fill="white" transform="translate(0 17) rotate(-90)"/>
</clipPath>
</defs>
</svg>
