<svg width="11" height="11" viewBox="0 0 11 11" fill="none" xmlns="http://www.w3.org/2000/svg">
<path d="M10.0874 7.78932L7.01795 10.863C6.83555 11.0458 6.54026 11.0454 6.35788 10.8634C6.17547 10.6815 6.17547 10.3862 6.35741 10.2034L8.63664 7.92134L3.96342 7.92134C2.21226 7.92134 0.783424 6.4967 0.777344 4.74414L0.777344 0.466492C0.777344 0.208527 0.985852 1.90735e-05 1.24382 1.90735e-05C1.50178 1.90735e-05 1.71029 0.208527 1.71029 0.466492L1.71029 4.74272C1.71448 5.98122 2.72535 6.98835 3.9634 6.98835L8.6273 6.98835L6.35693 4.7152C6.175 4.53234 6.175 4.23751 6.35741 4.05513C6.44837 3.96463 6.56778 3.91891 6.68722 3.91891C6.80663 3.91891 6.92651 3.96463 7.01748 4.0556L10.0869 7.12972C10.2693 7.3121 10.2693 7.60739 10.0874 7.78932Z" fill="#4AD295"/>
</svg>
