<svg width="22" height="22" viewBox="0 0 22 22" fill="none" xmlns="http://www.w3.org/2000/svg">
<g clip-path="url(#clip0)">
<path d="M21.9383 9.9482C21.444 5.53502 17.9161 1.99818 13.5029 1.49484C7.73254 0.834209 2.82051 5.3193 2.75759 10.9414H0.169001C0.0251902 10.9414 -0.0512092 11.1212 0.0386724 11.2425L3.95302 16.5725C4.02043 16.6624 4.15075 16.6624 4.21817 16.5725L8.13251 11.2425C8.22239 11.1212 8.1415 10.9414 8.00218 10.9414H5.41808C5.481 6.9911 8.84257 3.82727 12.8603 4.09691C16.3162 4.32611 19.1205 7.1439 19.3407 10.5998C19.5744 14.2625 16.9589 17.3769 13.4984 17.9342C12.8558 18.0375 12.3884 18.5993 12.3884 19.2465C12.3884 20.0509 13.103 20.6801 13.8984 20.5542C18.8284 19.7723 22.527 15.2198 21.9383 9.9482Z" fill="#2DA5E1"/>
</g>
<defs>
<clipPath id="clip0">
<rect width="22" height="22" fill="white" transform="translate(0 22) rotate(-90)"/>
</clipPath>
</defs>
</svg>
