<svg width="7" height="11" viewBox="0 0 7 11" fill="none" xmlns="http://www.w3.org/2000/svg">
<path d="M3.80416 10.874C3.80429 10.8738 3.80444 10.8737 3.80457 10.8736L6.03894 8.62838C6.20632 8.46018 6.2057 8.18812 6.03748 8.0207C5.86928 7.85329 5.59722 7.85394 5.42981 8.02214L3.92969 9.52957L3.92969 0.429688C3.92969 0.192371 3.73732 0 3.5 0C3.26269 0 3.07032 0.192371 3.07032 0.429688L3.07032 9.52954L1.57019 8.02216C1.40279 7.85396 1.13073 7.85331 0.962532 8.02072C0.794287 8.18815 0.793707 8.46023 0.961071 8.6284L3.19544 10.8736C3.19557 10.8737 3.19572 10.8738 3.19585 10.874C3.36382 11.0423 3.63675 11.0417 3.80416 10.874Z" fill="#D32543"/>
</svg>
