<svg xmlns="http://www.w3.org/2000/svg" width="22" height="20" fill="none" style=""><rect id="backgroundrect" width="100%" height="100%" x="0" y="0" fill="none" stroke="none"/>

<g class="currentLayer" style=""><title>Layer 1</title><path d="M21.9383,9.652425301742554 C21.444,5.239245301742554 17.9161,1.7024023017425538 13.5029,1.1990643017425537 C7.73254,0.5384343017425537 2.82051,5.023525301742554 2.75759,10.645615301742554 H0.16900100000000004 C0.025190200000000003,10.645615301742554 -0.05120920000000001,10.825425301742554 0.03867240000000001,10.946725301742553 L3.95302,16.27672530174255 C4.02043,16.366625301742552 4.15075,16.366625301742552 4.21817,16.27672530174255 L8.13251,10.946725301742553 C8.22239,10.825425301742554 8.1415,10.645615301742554 8.00218,10.645615301742554 H5.41808 C5.481,6.695325301742554 8.84257,3.5314953017425537 12.8603,3.8011353017425535 C16.3162,4.030335301742554 19.1205,6.848125301742554 19.340700000000002,10.304065301742554 C19.5744,13.966725301742553 16.9589,17.081125301742553 13.4984,17.638425301742554 C12.8558,17.741725301742555 12.3884,18.303525301742553 12.3884,18.950725301742555 C12.3884,19.755125301742552 13.103,20.384325301742553 13.8984,20.258425301742555 C18.8284,19.476525301742555 22.527,14.924025301742553 21.9383,9.652425301742554 z" fill="#ffffff" id="svg_1" class="selected" fill-opacity="1"/></g></svg>