<svg width="7" height="11" xmlns="http://www.w3.org/2000/svg">

 <g>
  <title>background</title>
  <rect fill="none" id="canvas_background" height="402" width="582" y="-1" x="-1"/>
 </g>
 <g>
  <title>Layer 1</title>
  <path transform="rotate(-179.42080688476562 3.5000047683715816,5.746912956237793) " id="svg_1" fill="#D32543" d="m3.80416,11.120914c0.00013,-0.0002 0.00028,-0.0003 0.00041,-0.0004l2.23437,-2.24522c0.16738,-0.1682 0.16676,-0.44026 -0.00146,-0.60768c-0.1682,-0.16741 -0.44026,-0.16676 -0.60767,0.00144l-1.50012,1.50743l0,-9.09988c0,-0.23732 -0.19237,-0.42969 -0.42969,-0.42969c-0.23731,0 -0.42968,0.19237 -0.42968,0.42969l0,9.09985l-1.50013,-1.50738c-0.1674,-0.1682 -0.43946,-0.16885 -0.60766,-0.00144c-0.16824,0.16743 -0.16882,0.43951 -0.00146,0.60768l2.23437,2.2452c0.00013,0.0001 0.00028,0.0002 0.00041,0.0004c0.16797,0.1683 0.4409,0.1677 0.60831,0z"/>
 </g>
</svg>