<svg width="300" height="300" viewBox="0 0 300 300" fill="none" xmlns="http://www.w3.org/2000/svg">
<path d="M59.891 276.569C56.727 276.569 53.5312 275.885 50.4961 274.488C42.4799 270.802 37.5 263.03 37.5 254.206V229.681H26.9531C12.0914 229.681 0 217.59 0 202.728V50.3842C0 35.5225 12.0914 23.4311 26.9531 23.4311H273.047C287.909 23.4311 300 35.5225 300 50.3842V202.728C300 217.59 287.909 229.681 273.047 229.681H116.351L74.843 270.707C74.6848 270.862 74.5219 271.012 74.3537 271.157C70.1906 274.725 65.0842 276.568 59.891 276.569ZM26.9531 42.1811C22.4297 42.1811 18.75 45.8607 18.75 50.3842V202.728C18.75 207.251 22.4297 210.931 26.9531 210.931H46.875C52.0523 210.931 56.25 215.129 56.25 220.306V254.206C56.25 256.199 57.5537 257.096 58.3313 257.454C59.0766 257.797 60.5139 258.183 61.9646 257.072L105.91 213.639C107.665 211.904 110.033 210.932 112.5 210.932H273.047C277.57 210.932 281.25 207.252 281.25 202.728V50.3848C281.25 45.8613 277.57 42.1816 273.047 42.1816H26.9531V42.1811Z" fill="#96D2F0"/>
<path d="M187.661 192.181C186.154 192.181 184.643 191.818 183.261 191.084L150 173.405L116.739 191.085C113.584 192.762 109.75 192.5 106.852 190.409C103.955 188.317 102.498 184.761 103.096 181.239L109.471 143.656L82.482 117.058C79.949 114.561 79.0466 110.846 80.1523 107.466C81.258 104.086 84.1812 101.622 87.6998 101.105L124.914 95.6379L141.575 61.5064C143.147 58.2861 146.417 56.2441 150 56.2441C153.583 56.2441 156.853 58.2867 158.424 61.5064L175.085 95.6379L212.299 101.105C215.818 101.622 218.742 104.086 219.847 107.466C220.953 110.846 220.05 114.561 217.517 117.058L190.528 143.656L196.903 181.239C197.501 184.761 196.044 188.317 193.147 190.409C191.519 191.583 189.594 192.181 187.661 192.181ZM150 153.413C151.512 153.413 153.025 153.779 154.401 154.51L175.231 165.582L171.226 141.976C170.714 138.957 171.708 135.879 173.888 133.73L190.947 116.92L167.468 113.47C164.406 113.02 161.763 111.088 160.406 108.307L150 86.99L139.595 108.307C138.237 111.088 135.594 113.02 132.532 113.47L109.054 116.92L126.112 133.73C128.292 135.879 129.286 138.957 128.774 141.976L124.77 165.582L145.6 154.51C146.976 153.779 148.488 153.413 150 153.413Z" fill="#96D2F0"/>
</svg>
