<svg width="11" height="11" viewBox="0 0 11 11" fill="none" xmlns="http://www.w3.org/2000/svg">
<path d="M5.5 0C2.46712 0 0 2.46712 0 5.5C0 8.53288 2.46712 11 5.5 11C8.53288 11 11 8.53288 11 5.5C11 2.46712 8.53288 0 5.5 0ZM5.27083 9.16667C4.89171 9.16667 4.58333 8.85829 4.58333 8.47917C4.58333 8.10006 4.89171 7.79167 5.27083 7.79167C5.64994 7.79167 5.95833 8.10006 5.95833 8.47917C5.95833 8.85829 5.64994 9.16667 5.27083 9.16667ZM5.95833 6.37102V7.10417C5.95833 7.23085 5.85582 7.33335 5.72915 7.33335H4.8125C4.68583 7.33335 4.58333 7.23085 4.58333 7.10417V5.95835C4.58333 5.45301 4.99467 5.04167 5.5 5.04167C6.00533 5.04167 6.41667 4.63033 6.41667 4.125C6.41667 3.61967 6.00533 3.20833 5.5 3.20833C4.99467 3.20833 4.58333 3.61967 4.58333 4.125V4.35417C4.58333 4.48085 4.48082 4.58335 4.35415 4.58335H3.4375C3.31083 4.58335 3.20833 4.48085 3.20833 4.35417V4.125C3.20833 2.86144 4.23644 1.83333 5.5 1.83333C6.76356 1.83333 7.79167 2.86146 7.79167 4.125C7.79167 5.22474 7.01688 6.15663 5.95833 6.37102Z" fill="#C4C4C4"/>
</svg>
