<svg width="11" height="11" viewBox="0 0 11 11" fill="none" xmlns="http://www.w3.org/2000/svg">
<path d="M5.5 0C2.4673 0 0 2.46733 0 5.50003C0 8.53273 2.4673 11 5.5 11C8.5327 11 11 8.53273 11 5.50003C11 2.46733 8.5327 0 5.5 0ZM5.5 10C3.01867 10 1 7.98133 1 5.50003C1 3.01873 3.01867 1 5.5 1C7.98133 1 10 3.01873 10 5.50003C10 7.98133 7.9813 10 5.5 10Z" fill="#CCDBEB"/>
<path d="M5.50052 2.33331C5.13298 2.33331 4.83398 2.63251 4.83398 3.00028C4.83398 3.36771 5.13298 3.66665 5.50052 3.66665C5.86805 3.66665 6.16705 3.36771 6.16705 3.00028C6.16705 2.63251 5.86805 2.33331 5.50052 2.33331Z" fill="#CCDBEB"/>
<path d="M5.5 4.66666C5.22387 4.66666 5 4.89052 5 5.16666V8.16666C5 8.44279 5.22387 8.66666 5.5 8.66666C5.77613 8.66666 6 8.44279 6 8.16666V5.16666C6 4.89052 5.77613 4.66666 5.5 4.66666Z" fill="#CCDBEB"/>
</svg>
