<svg width="26" height="26" viewBox="0 0 26 26" fill="none" xmlns="http://www.w3.org/2000/svg">
<path d="M7.75 20.5C6.375 20.5 5.2625 21.625 5.2625 23C5.2625 24.375 6.375 25.5 7.75 25.5C9.125 25.5 10.25 24.375 10.25 23C10.25 21.625 9.125 20.5 7.75 20.5ZM1.5 3H2.75L7.25 12.4875L5.5625 15.5375C4.65 17.2125 5.85 19.25 7.75 19.25H21.5C22.1875 19.25 22.75 18.6875 22.75 18C22.75 17.3125 22.1875 16.75 21.5 16.75H7.75L9.125 14.25H18.4375C19.375 14.25 20.2 13.7375 20.625 12.9625L25.1 4.85C25.5625 4.025 24.9625 3 24.0125 3H5.5125L4.675 1.2125C4.475 0.775 4.025 0.5 3.55 0.5H1.5C0.8125 0.5 0.25 1.0625 0.25 1.75C0.25 2.4375 0.8125 3 1.5 3ZM20.25 20.5C18.875 20.5 17.7625 21.625 17.7625 23C17.7625 24.375 18.875 25.5 20.25 25.5C21.625 25.5 22.75 24.375 22.75 23C22.75 21.625 21.625 20.5 20.25 20.5Z" fill="#0077FA"/>
</svg>
