<svg width="20" height="10" viewBox="0 0 20 10" fill="none" xmlns="http://www.w3.org/2000/svg">
<path d="M0.229141 5.55305C0.229376 5.55328 0.22957 5.55355 0.229843 5.55379L4.31203 9.61628C4.61785 9.92062 5.1125 9.91949 5.41691 9.61363C5.72129 9.30781 5.72012 8.81316 5.4143 8.50879L2.67352 5.78129L19.2188 5.78129C19.6502 5.78129 20 5.43152 20 5.00004C20 4.56856 19.6502 4.21879 19.2188 4.21879L2.67355 4.21879L5.41426 1.49129C5.72008 1.18692 5.72125 0.692271 5.41687 0.386452C5.11246 0.0805531 4.61777 0.0794992 4.31199 0.383796L0.229805 4.44629C0.22957 4.44652 0.229374 4.4468 0.229101 4.44703C-0.0768757 4.75242 -0.0758991 5.24867 0.229141 5.55305Z" fill="#2DA5E1"/>
</svg>
