<svg width="57" height="57" viewBox="0 0 57 57" fill="none" xmlns="http://www.w3.org/2000/svg">
<path d="M16.625 42.75C14.0125 42.75 11.8987 44.8875 11.8987 47.5C11.8987 50.1125 14.0125 52.25 16.625 52.25C19.2375 52.25 21.375 50.1125 21.375 47.5C21.375 44.8875 19.2375 42.75 16.625 42.75ZM4.75 9.5H7.125L15.675 27.5263L12.4687 33.3213C10.735 36.5038 13.015 40.375 16.625 40.375H42.75C44.0562 40.375 45.125 39.3063 45.125 38C45.125 36.6938 44.0562 35.625 42.75 35.625H16.625L19.2375 30.875H36.9312C38.7125 30.875 40.28 29.9013 41.0875 28.4288L49.59 13.015C50.4687 11.4475 49.3287 9.5 47.5237 9.5H12.3737L10.7825 6.10375C10.4025 5.2725 9.5475 4.75 8.645 4.75H4.75C3.44375 4.75 2.375 5.81875 2.375 7.125C2.375 8.43125 3.44375 9.5 4.75 9.5ZM40.375 42.75C37.7625 42.75 35.6487 44.8875 35.6487 47.5C35.6487 50.1125 37.7625 52.25 40.375 52.25C42.9875 52.25 45.125 50.1125 45.125 47.5C45.125 44.8875 42.9875 42.75 40.375 42.75Z" fill="#4AD295"/>
</svg>
