<svg width="18" height="18" viewBox="0 0 18 18" fill="none" xmlns="http://www.w3.org/2000/svg">
<g clip-path="url(#clip0)">
<path d="M15.5816 3.1633C14.0224 1.60412 11.9485 0.744904 9.74487 0.744904C7.50054 0.744904 5.40065 1.63004 3.83406 3.23737C3.6637 3.41143 3.6674 3.6929 3.84147 3.86697C4.01553 4.03733 4.297 4.03362 4.47107 3.85956C5.87099 2.4263 7.74127 1.63745 9.74487 1.63745C13.8076 1.63375 17.1112 4.93728 17.1112 9.00003C17.1112 13.0628 13.8076 16.3663 9.74487 16.3663C5.68212 16.3663 2.37858 13.0628 2.37858 9.00003V8.90745L3.11188 9.64074C3.19706 9.72592 3.31187 9.77036 3.42668 9.77036C3.54148 9.77036 3.65259 9.72592 3.74147 9.64074C3.91554 9.46668 3.91554 9.18521 3.74147 9.01115L2.25266 7.51863C2.0786 7.34456 1.79713 7.34456 1.62306 7.51863L0.130549 9.01115C-0.0435163 9.18521 -0.0435163 9.46668 0.130549 9.64074C0.304614 9.81481 0.586081 9.81481 0.760146 9.64074L1.49344 8.90745V9.00003C1.49344 11.2036 2.35266 13.2776 3.91184 14.8368C5.47101 16.396 7.54498 17.2552 9.74857 17.2552C11.9522 17.2552 14.0261 16.396 15.5853 14.8368C17.1445 13.2776 18 11.2036 18 9.00003C18 6.79644 17.1408 4.72248 15.5816 3.1633Z" fill="#4AD295"/>
<path d="M12.1071 5.99646L6.64813 11.4517C6.47406 11.6258 6.47406 11.9073 6.64813 12.0813C6.73331 12.1665 6.84812 12.211 6.96293 12.211C7.07773 12.211 7.18884 12.1665 7.27772 12.0813L12.7367 6.62236C12.9108 6.44829 12.9108 6.16683 12.7367 5.99276C12.5626 5.8224 12.2812 5.8224 12.1071 5.99646Z" fill="#4AD295"/>
<path d="M10.6787 9.67038C10.0602 10.2889 10.0602 11.2999 10.6787 11.9184C10.9787 12.2184 11.3787 12.3851 11.8046 12.3851C12.2305 12.3851 12.6305 12.2184 12.9304 11.9184C13.5489 11.2999 13.5489 10.2889 12.9304 9.67038C12.6305 9.37039 12.2305 9.20374 11.8046 9.20374C11.3787 9.20374 10.9824 9.37039 10.6787 9.67038ZM12.3008 11.2925C12.1675 11.4258 11.9935 11.4962 11.8046 11.4962C11.6157 11.4962 11.4416 11.4221 11.3083 11.2925C11.0342 11.0185 11.0342 10.574 11.3083 10.3C11.4416 10.1666 11.6157 10.0963 11.8046 10.0963C11.9935 10.0963 12.1675 10.1704 12.3008 10.3C12.5749 10.574 12.5749 11.0185 12.3008 11.2925Z" fill="#4AD295"/>
<path d="M7.69993 5.60022C7.27403 5.60022 6.87405 5.76688 6.57406 6.06686C6.27408 6.36685 6.10742 6.76683 6.10742 7.19273C6.10742 7.61863 6.27408 8.01861 6.57406 8.3186C6.87405 8.61858 7.27403 8.78524 7.69993 8.78524C8.12584 8.78524 8.52581 8.61858 8.8258 8.3186C9.12578 8.01861 9.29244 7.61863 9.29244 7.19273C9.29244 6.76683 9.12578 6.36685 8.8258 6.06686C8.52211 5.76688 8.12584 5.60022 7.69993 5.60022ZM8.1962 7.689C8.06288 7.82233 7.88881 7.8927 7.69993 7.8927C7.51105 7.8927 7.33699 7.81862 7.20366 7.689C7.07033 7.55568 6.99997 7.38161 6.99997 7.19273C6.99997 7.00385 7.07404 6.82979 7.20366 6.69646C7.33699 6.56313 7.51105 6.49277 7.69993 6.49277C7.88881 6.49277 8.06288 6.56684 8.1962 6.69646C8.32953 6.82979 8.39989 7.00385 8.39989 7.19273C8.39989 7.37791 8.32953 7.55568 8.1962 7.689Z" fill="#4AD295"/>
</g>
<defs>
<clipPath id="clip0">
<rect width="18" height="18" fill="white"/>
</clipPath>
</defs>
</svg>
