<svg width="18" height="18" viewBox="0 0 18 18" fill="none" xmlns="http://www.w3.org/2000/svg">
<g clip-path="url(#clip0)">
<path d="M15.5613 5.55895V2.07507C15.5556 1.94003 15.483 1.81671 15.3678 1.74602C15.2579 1.67841 15.1255 1.65748 15.0001 1.68797L7.31619 4.74604H3.52263C2.80745 4.76015 2.15588 5.16 1.81939 5.79119L1.471 5.92667C0.588966 6.23234 -0.00185069 7.06415 3.86759e-05 7.99764C-0.00551829 8.92784 0.588225 9.75597 1.471 10.0493L1.70325 10.146C1.88207 10.609 2.22716 10.9885 2.67097 11.2106L3.69679 14.9267C3.97197 15.9375 5.01446 16.5338 6.02523 16.2586C6.43293 16.1476 6.79191 15.9036 7.04519 15.5654C7.39647 15.0793 7.5102 14.4608 7.35486 13.8815L6.65809 11.3267H7.31615L15 14.4428L15.1355 14.4815C15.2167 14.4828 15.2967 14.4628 15.3677 14.4235C15.4826 14.3618 15.5562 14.244 15.5613 14.1138V10.4364C16.9081 10.4364 18 9.3445 17.9999 7.9976C17.9999 6.65078 16.9082 5.55899 15.5613 5.55895ZM1.62586 9.27507C1.10862 9.0681 0.781385 8.55386 0.812948 7.99764C0.781385 7.44143 1.10862 6.92718 1.62586 6.72021V9.27507ZM6.42585 15.0815C6.21269 15.3686 5.8736 15.5345 5.51618 15.5267C5.00727 15.5111 4.56782 15.1659 4.43231 14.6751L3.52263 11.3267H5.86456L6.60004 14.0751C6.70055 14.4194 6.63627 14.791 6.42585 15.0815ZM7.04523 10.5525H3.52263C2.9356 10.5847 2.43362 10.1348 2.40142 9.54781C2.39998 9.52143 2.3995 9.49502 2.40005 9.46861V6.72021C2.37834 6.07923 2.88036 5.54198 3.52134 5.52024C3.52178 5.52024 3.52219 5.5202 3.52263 5.5202H7.04523V10.5525ZM14.7872 13.5332L7.81939 10.746V5.44281L14.7872 2.6557V13.5332ZM15.5613 9.66217V6.33315C16.4807 6.33318 17.2258 7.07844 17.2258 7.99775C17.2257 8.91695 16.4806 9.66214 15.5613 9.66217Z" fill="#0077fa"/>
</g>
<defs>
<clipPath id="clip0">
<rect width="18" height="18" fill="white"/>
</clipPath>
</defs>
</svg>
