<svg width="32" height="32" viewBox="0 0 32 32" fill="none" xmlns="http://www.w3.org/2000/svg">
<path d="M29.875 14.1125L26.7125 3.83125C26.7125 3.81875 26.7188 3.8125 26.725 3.8125H29.1875C29.7062 3.8125 30.125 3.39375 30.125 2.875C30.125 2.35625 29.7062 1.9375 29.1875 1.9375H2.8125C2.29375 1.9375 1.875 2.35625 1.875 2.875C1.875 3.39375 2.29375 3.8125 2.8125 3.8125H5.26875C5.28125 3.8125 5.2875 3.825 5.28125 3.83125L2.125 14.1125C2.125 14.1188 2.11875 14.125 2.1125 14.125H0.84375C0.38125 14.125 0 14.5063 0 14.9688C0 18.725 3.10625 21.7813 6.85625 21.6188C10.3375 21.4625 13.125 18.5813 13.125 15.0625C13.125 14.5438 12.7063 14.125 12.1875 14.125H11.0188C11.0125 14.125 11.0063 14.1188 11.0063 14.1125L7.8375 3.83125C7.8375 3.81875 7.84375 3.8125 7.85 3.8125H15.0437C15.05 3.8125 15.0625 3.81875 15.0625 3.83125V24.425C15.0625 24.4313 15.0562 24.4438 15.0437 24.4438H11.3125C10.7937 24.4438 10.375 24.8625 10.375 25.3813V28.175C10.375 28.1813 10.3687 28.1938 10.3562 28.1938H9.4375C8.91875 28.1938 8.5 28.6125 8.5 29.1313C8.5 29.65 8.91875 30.0688 9.4375 30.0688H22.5625C23.0812 30.0688 23.5 29.65 23.5 29.1313C23.5 28.6125 23.0812 28.1938 22.5625 28.1938H21.6437C21.6375 28.1938 21.625 28.1875 21.625 28.175V25.375C21.625 24.8563 21.2062 24.4375 20.6875 24.4375H16.9562C16.95 24.4375 16.9375 24.4313 16.9375 24.4188V3.83125C16.9375 3.825 16.9437 3.8125 16.9562 3.8125H24.15C24.1625 3.8125 24.1688 3.825 24.1625 3.83125L21 14.1125C21 14.1188 20.9937 14.125 20.9875 14.125H19.725C19.2563 14.125 18.8813 14.5063 18.8813 14.9688C18.8813 18.725 21.9875 21.7813 25.7375 21.6188C29.2125 21.4625 32 18.5813 32 15.0625C32 14.5438 31.5812 14.125 31.0625 14.125H29.8937C29.8875 14.125 29.8813 14.1188 29.875 14.1125ZM4.33125 13.3188L5.96875 8.00625C6.15 7.41875 6.98125 7.41875 7.1625 8.00625L8.8 13.3188C8.925 13.7188 8.625 14.125 8.2 14.125H4.925C4.50625 14.125 4.20625 13.7188 4.33125 13.3188ZM26.0375 8.00625L27.675 13.3188C27.8 13.7188 27.5 14.125 27.075 14.125H23.8062C23.3875 14.125 23.0875 13.7188 23.2062 13.3188L24.8438 8.00625C25.0187 7.41875 25.8563 7.41875 26.0375 8.00625Z" fill="white"/>
</svg>
