<svg width="48" height="48" viewBox="0 0 48 48" fill="none" xmlns="http://www.w3.org/2000/svg">
<path d="M44.8125 21.1688L40.0687 5.74687C40.0687 5.72812 40.0781 5.71875 40.0875 5.71875H43.7812C44.5594 5.71875 45.1875 5.09063 45.1875 4.3125C45.1875 3.53437 44.5594 2.90625 43.7812 2.90625H4.21875C3.44062 2.90625 2.8125 3.53437 2.8125 4.3125C2.8125 5.09063 3.44062 5.71875 4.21875 5.71875H7.90313C7.92188 5.71875 7.93125 5.7375 7.92188 5.74687L3.1875 21.1688C3.1875 21.1781 3.17812 21.1875 3.16875 21.1875H1.26562C0.571875 21.1875 0 21.7594 0 22.4531C0 28.0875 4.65937 32.6719 10.2844 32.4281C15.5062 32.1937 19.6875 27.8719 19.6875 22.5938C19.6875 21.8156 19.0594 21.1875 18.2812 21.1875H16.5281C16.5188 21.1875 16.5094 21.1781 16.5094 21.1688L11.7563 5.74687C11.7563 5.72812 11.7656 5.71875 11.775 5.71875H22.5656C22.575 5.71875 22.5938 5.72812 22.5938 5.74687V36.6375C22.5938 36.6469 22.5844 36.6656 22.5656 36.6656H16.9688C16.1906 36.6656 15.5625 37.2938 15.5625 38.0719V42.2625C15.5625 42.2719 15.5531 42.2906 15.5344 42.2906H14.1562C13.3781 42.2906 12.75 42.9188 12.75 43.6969C12.75 44.475 13.3781 45.1031 14.1562 45.1031H33.8438C34.6219 45.1031 35.25 44.475 35.25 43.6969C35.25 42.9188 34.6219 42.2906 33.8438 42.2906H32.4656C32.4562 42.2906 32.4375 42.2812 32.4375 42.2625V38.0625C32.4375 37.2844 31.8094 36.6562 31.0312 36.6562H25.4344C25.425 36.6562 25.4062 36.6469 25.4062 36.6281V5.74687C25.4062 5.7375 25.4156 5.71875 25.4344 5.71875H36.225C36.2437 5.71875 36.2531 5.7375 36.2438 5.74687L31.5 21.1688C31.5 21.1781 31.4906 21.1875 31.4812 21.1875H29.5875C28.8844 21.1875 28.3219 21.7594 28.3219 22.4531C28.3219 28.0875 32.9812 32.6719 38.6062 32.4281C43.8187 32.1937 48 27.8719 48 22.5938C48 21.8156 47.3719 21.1875 46.5938 21.1875H44.8406C44.8312 21.1875 44.8219 21.1781 44.8125 21.1688ZM6.49688 19.9781L8.95312 12.0094C9.225 11.1281 10.4719 11.1281 10.7437 12.0094L13.2 19.9781C13.3875 20.5781 12.9375 21.1875 12.3 21.1875H7.3875C6.75938 21.1875 6.30938 20.5781 6.49688 19.9781ZM39.0563 12.0094L41.5125 19.9781C41.7 20.5781 41.25 21.1875 40.6125 21.1875H35.7094C35.0812 21.1875 34.6312 20.5781 34.8094 19.9781L37.2656 12.0094C37.5281 11.1281 38.7844 11.1281 39.0563 12.0094Z" fill="#4AD295"/>
</svg>
