<svg width="25" height="25" viewBox="0 0 25 25" fill="none" xmlns="http://www.w3.org/2000/svg">
<g clip-path="url(#clip0)">
<path d="M10.2539 12.7627C10.2539 12.3623 9.92188 12.0352 9.52149 12.0352H8.60841C8.60352 12.0352 8.59864 12.0303 8.59864 12.0254L6.12306 3.99317C6.12306 3.9834 6.12794 3.97852 6.13282 3.97852H11.7529C11.7578 3.97852 11.7676 3.9834 11.7676 3.99317V20.082C11.7676 20.0869 11.7627 20.0967 11.7529 20.0967H8.8379C8.43262 20.0967 8.10548 20.4238 8.10548 20.8291V21.8984C8.10548 22.3037 8.43262 22.6309 8.8379 22.6309H16.1621C16.5674 22.6309 16.8945 22.3037 16.8945 21.8984V20.8242C16.8945 20.4189 16.5674 20.0918 16.1621 20.0918H13.2471C13.2422 20.0918 13.2324 20.0869 13.2324 20.0772V3.99317C13.2324 3.98828 13.2373 3.97852 13.2471 3.97852H18.8672C18.877 3.97852 18.8818 3.98828 18.877 3.99317L16.4063 12.0254C16.4063 12.0303 16.4014 12.0352 16.3965 12.0352H15.4102C15.044 12.0352 14.751 12.333 14.751 12.6943C14.751 15.6289 17.1777 18.0166 20.1074 17.8897C22.8223 17.7676 25.0049 15.5117 25 12.7627C25 12.3623 24.668 12.0352 24.2676 12.0352H23.3545C23.3496 12.0352 23.3447 12.0303 23.3399 12.0254L20.8692 3.99317C20.8692 3.9834 20.874 3.97852 20.8789 3.97852H22.7832C23.1787 3.97852 23.5156 3.67578 23.5352 3.28028C23.5547 2.86035 23.2178 2.51367 22.8027 2.51367H2.2168C1.8213 2.51367 1.48438 2.81641 1.46485 3.21192C1.44532 3.63184 1.78223 3.97852 2.19727 3.97852H4.11622C4.12598 3.97852 4.13087 3.98828 4.12598 3.99317L1.66016 12.0254C1.66016 12.0303 1.65528 12.0352 1.6504 12.0352H0.659187C0.297859 12.0352 7.35558e-06 12.3281 7.35558e-06 12.6846C-0.00487546 15.624 2.42188 18.0166 5.35645 17.8897C8.07618 17.7676 10.2588 15.5117 10.2539 12.7627ZM20.2832 7.87988L21.4063 11.5225C21.4942 11.7959 21.2842 12.0742 20.9961 12.0742H18.75C18.4619 12.0742 18.2568 11.7959 18.3447 11.5225L19.4678 7.87988C19.5899 7.47949 20.1611 7.47949 20.2832 7.87988ZM3.59864 11.4736L4.72169 7.83106C4.84376 7.43067 5.41505 7.43067 5.542 7.83106L6.66505 11.4736C6.75294 11.7471 6.54298 12.0254 6.25489 12.0254H4.00391C3.71583 12.0254 3.51075 11.7471 3.59864 11.4736Z" fill="#C4C4C4"/>
<path d="M13.9062 3.75879H11.0938V20.4629H13.9062V3.75879Z" fill="#C4C4C4"/>
<path d="M23.5352 2.61621V3.24609C23.5352 3.65137 23.208 3.97852 22.8027 3.97852H2.1875C1.78223 3.97852 1.45508 3.65137 1.45508 3.24609V2.61621C1.45508 2.21094 1.78223 1.88379 2.1875 1.88379H22.8027C23.208 1.88379 23.5352 2.21094 23.5352 2.61621Z" fill="#C4C4C4"/>
</g>
<defs>
<clipPath id="clip0">
<rect width="25" height="25" fill="white"/>
</clipPath>
</defs>
</svg>
