<svg width="18" height="18" viewBox="0 0 18 18" fill="none" xmlns="http://www.w3.org/2000/svg">
<path d="M0 12.3868C0 12.5714 0.129319 12.7162 0.31386 12.7162H0.814971C1.15168 11.9735 1.91829 11.4115 2.8084 11.4115C3.69856 11.4115 4.46499 11.9735 4.80188 12.7162H11.3154V10.0512H0V12.3868Z" fill="white"/>
<path d="M2.80817 12.1158C1.99237 12.1158 1.33105 12.7771 1.33105 13.5929C1.33105 14.4087 1.99237 15.07 2.80817 15.07C3.62358 15.0691 4.28437 14.4083 4.28529 13.5929C4.28529 12.7771 3.62397 12.1158 2.80817 12.1158Z" fill="white"/>
<path d="M17.8068 8.96566L16.4 8.34734H12.0137V12.7162H12.8651C13.202 11.9735 13.9684 11.4115 14.8585 11.4115C15.7486 11.4115 16.5152 11.9735 16.8519 12.7162H17.6852C17.8697 12.7162 17.999 12.5714 17.999 12.3868V9.28346C18.0037 9.14876 17.9283 9.02408 17.8068 8.96566Z" fill="white"/>
<path d="M14.9537 5.82844C14.7782 5.49182 14.4277 5.28311 14.048 5.28914H12.0137V7.64834H15.8983L14.9537 5.82844Z" fill="white"/>
<path d="M10.3121 2.92993H0.998027C0.436233 2.92993 0 3.39242 0 3.95421V9.35218H11.3154V3.95421C11.3154 3.95264 11.3154 3.95107 11.3154 3.9495C11.3199 3.39094 10.8707 2.93443 10.3121 2.92993Z" fill="white"/>
<path d="M14.8599 12.1158C14.0441 12.1158 13.3828 12.7771 13.3828 13.5929C13.3829 14.4087 14.0442 15.07 14.86 15.07C15.6754 15.0691 16.3361 14.4083 16.337 13.5929V13.5928C16.337 12.7771 15.6757 12.1158 14.8599 12.1158Z" fill="white"/>
</svg>
