<svg width="38" height="33" viewBox="0 0 38 33" fill="none" xmlns="http://www.w3.org/2000/svg">
<g clip-path="url(#clip0_3_3525)">
<path d="M7 13.4999C7 12.8559 6.496 12.3333 5.875 12.3333H-0.875C-1.496 12.3333 -2 12.8559 -2 13.4999C-2 14.1439 -1.496 14.6666 -0.875 14.6666H5.875C6.496 14.6666 7 14.1439 7 13.4999Z" fill="#0077FA"/>
<path d="M5.875 17H1.375C0.754 17 0.25 17.5227 0.25 18.1667C0.25 18.8107 0.754 19.3333 1.375 19.3333H5.875C6.496 19.3333 7 18.8107 7 18.1667C7 17.5227 6.496 17 5.875 17Z" fill="#0077FA"/>
<path d="M5.875 21.6665H3.625C3.004 21.6665 2.5 22.1892 2.5 22.8332C2.5 23.4772 3.004 23.9998 3.625 23.9998H5.875C6.496 23.9998 7 23.4772 7 22.8332C7 22.1892 6.496 21.6665 5.875 21.6665Z" fill="#0077FA"/>
<path d="M33.8403 21.0671L30.4653 15.2337C30.2627 14.8814 29.896 14.6667 29.5 14.6667H21.625C21.004 14.6667 20.5 15.1894 20.5 15.8334V27.5001C20.5 28.1441 21.004 28.6667 21.625 28.6667H32.875C33.496 28.6667 34 28.1441 34 27.5001V21.6667C34 21.4544 33.946 21.2467 33.8403 21.0671Z" fill="#0077FA"/>
<path d="M25 17H28.8633L31.5633 21.6667H25V17Z" fill="#FAFAFA"/>
<path d="M21.625 10H5.875C5.254 10 4.75 10.5227 4.75 11.1667V27.5C4.75 28.144 5.254 28.6667 5.875 28.6667H22.75V11.1667C22.75 10.5227 22.246 10 21.625 10Z" fill="#0077FA"/>
<path d="M28.375 29.8334C29.6176 29.8334 30.625 28.7887 30.625 27.5001C30.625 26.2114 29.6176 25.1667 28.375 25.1667C27.1324 25.1667 26.125 26.2114 26.125 27.5001C26.125 28.7887 27.1324 29.8334 28.375 29.8334Z" fill="#FAFAFA"/>
<path d="M28.375 31C26.5142 31 25 29.4297 25 27.5C25 25.5703 26.5142 24 28.375 24C30.2358 24 31.75 25.5703 31.75 27.5C31.75 29.4297 30.2358 31 28.375 31ZM28.375 26.3333C27.7562 26.3333 27.25 26.8583 27.25 27.5C27.25 28.1417 27.7562 28.6667 28.375 28.6667C28.9938 28.6667 29.5 28.1417 29.5 27.5C29.5 26.8583 28.9938 26.3333 28.375 26.3333Z" fill="#FCBC3C"/>
<path d="M22.75 28.6667H5.875C5.254 28.6667 4.75 28.144 4.75 27.5V24H22.75V28.6667Z" fill="#0077FA"/>
<path d="M12.625 29.8334C13.8676 29.8334 14.875 28.7887 14.875 27.5001C14.875 26.2114 13.8676 25.1667 12.625 25.1667C11.3824 25.1667 10.375 26.2114 10.375 27.5001C10.375 28.7887 11.3824 29.8334 12.625 29.8334Z" fill="#FAFAFA"/>
<path d="M12.625 31C10.7642 31 9.25 29.4297 9.25 27.5C9.25 25.5703 10.7642 24 12.625 24C14.4858 24 16 25.5703 16 27.5C16 29.4297 14.4858 31 12.625 31ZM12.625 26.3333C12.004 26.3333 11.5 26.8583 11.5 27.5C11.5 28.1417 12.004 28.6667 12.625 28.6667C13.246 28.6667 13.75 28.1417 13.75 27.5C13.75 26.8583 13.246 26.3333 12.625 26.3333Z" fill="#FCBC3C"/>
<path d="M8.77903 16.9575L9.50403 19.1875L10.139 16.9175C10.189 16.7475 10.284 16.6625 10.424 16.6625C10.5107 16.6625 10.5807 16.6892 10.634 16.7425C10.6874 16.7925 10.714 16.8542 10.714 16.9275C10.714 16.9575 10.709 16.9875 10.699 17.0175L9.85903 19.9275C9.79903 20.1275 9.68069 20.2275 9.50403 20.2275C9.32403 20.2275 9.20069 20.1292 9.13403 19.9325L8.37403 17.6775L7.62903 19.9275C7.56236 20.1275 7.43736 20.2275 7.25403 20.2275C7.07403 20.2275 6.95403 20.1275 6.89403 19.9275L6.03903 17.0925C6.02903 17.0558 6.02403 17.0192 6.02403 16.9825C6.02403 16.8892 6.05403 16.8125 6.11403 16.7525C6.17736 16.6925 6.26236 16.6625 6.36903 16.6625C6.52236 16.6625 6.62403 16.7475 6.67403 16.9175L7.31403 19.1825L8.02403 16.9575C8.09069 16.7608 8.21736 16.6625 8.40403 16.6625C8.58736 16.6625 8.71236 16.7608 8.77903 16.9575ZM12.3254 18.8525V18.8425C12.3254 18.6992 12.2787 18.5842 12.1854 18.4975C12.0921 18.4075 11.9671 18.3625 11.8104 18.3625C11.4837 18.3625 11.2871 18.5258 11.2204 18.8525H12.3254ZM12.6754 19.2375H11.2404C11.2637 19.4008 11.3354 19.5292 11.4554 19.6225C11.5787 19.7158 11.7321 19.7625 11.9154 19.7625C12.0654 19.7625 12.2054 19.7342 12.3354 19.6775C12.3854 19.6542 12.4287 19.6425 12.4654 19.6425C12.5387 19.6425 12.5987 19.6775 12.6454 19.7475C12.6687 19.7842 12.6804 19.8208 12.6804 19.8575C12.6804 19.9408 12.6421 20.0058 12.5654 20.0525C12.3487 20.1792 12.1121 20.2425 11.8554 20.2425C11.4954 20.2425 11.2037 20.1342 10.9804 19.9175C10.7571 19.7042 10.6454 19.4192 10.6454 19.0625C10.6454 18.7258 10.7537 18.4442 10.9704 18.2175C11.1837 17.9942 11.4721 17.8825 11.8354 17.8825C12.1354 17.8825 12.3871 17.9792 12.5904 18.1725C12.7971 18.3692 12.9004 18.6208 12.9004 18.9275V19.0325C12.8837 19.1692 12.8087 19.2375 12.6754 19.2375ZM15.4976 20.0425L14.1826 18.3825V19.9225C14.1826 20.0058 14.1526 20.0775 14.0926 20.1375C14.0326 20.1975 13.9609 20.2275 13.8776 20.2275C13.7909 20.2275 13.7176 20.1992 13.6576 20.1425C13.5976 20.0825 13.5676 20.0092 13.5676 19.9225V16.9675C13.5676 16.8808 13.5976 16.8092 13.6576 16.7525C13.7176 16.6925 13.7909 16.6625 13.8776 16.6625C13.9609 16.6625 14.0326 16.6925 14.0926 16.7525C14.1526 16.8092 14.1826 16.8808 14.1826 16.9675V18.3475L15.4426 16.8275C15.5326 16.7175 15.6259 16.6625 15.7226 16.6625C15.8026 16.6625 15.8676 16.6875 15.9176 16.7375C15.9709 16.7875 15.9976 16.8475 15.9976 16.9175C15.9976 16.9975 15.9676 17.0708 15.9076 17.1375L14.8626 18.3175L15.9976 19.7075C16.0642 19.7908 16.0976 19.8725 16.0976 19.9525C16.0976 20.0325 16.0692 20.0992 16.0126 20.1525C15.9559 20.2025 15.8826 20.2275 15.7926 20.2275C15.6892 20.2275 15.5909 20.1658 15.4976 20.0425ZM17.3097 18.1825V19.9475C17.3097 20.0242 17.2813 20.0908 17.2247 20.1475C17.1713 20.2008 17.1047 20.2275 17.0247 20.2275C16.9413 20.2275 16.8713 20.2008 16.8147 20.1475C16.7613 20.0908 16.7347 20.0242 16.7347 19.9475V18.1825C16.7347 18.1058 16.7613 18.0408 16.8147 17.9875C16.8713 17.9308 16.9413 17.9025 17.0247 17.9025C17.1047 17.9025 17.1713 17.9308 17.2247 17.9875C17.2813 18.0408 17.3097 18.1058 17.3097 18.1825ZM17.0347 16.7925C17.1247 16.7925 17.2013 16.8242 17.2647 16.8875C17.3313 16.9508 17.3647 17.0308 17.3647 17.1275C17.3647 17.2342 17.3313 17.3208 17.2647 17.3875C17.2013 17.4542 17.1247 17.4875 17.0347 17.4875C16.9313 17.4875 16.8447 17.4542 16.7747 17.3875C16.708 17.3208 16.6747 17.2342 16.6747 17.1275C16.6747 17.0275 16.708 16.9475 16.7747 16.8875C16.8447 16.8242 16.9313 16.7925 17.0347 16.7925ZM20.1764 16.9675V19.9075C20.1764 20.0008 20.1514 20.0775 20.1014 20.1375C20.0547 20.1975 19.9847 20.2275 19.8914 20.2275C19.808 20.2275 19.7397 20.2025 19.6864 20.1525C19.633 20.1025 19.6047 20.0358 19.6014 19.9525C19.428 20.1358 19.213 20.2275 18.9564 20.2275C18.6364 20.2275 18.3797 20.1225 18.1864 19.9125C17.993 19.7092 17.8964 19.4342 17.8964 19.0875C17.8964 18.7342 18.0114 18.4442 18.2414 18.2175C18.468 17.9942 18.7647 17.8825 19.1314 17.8825C19.3214 17.8825 19.478 17.9192 19.6014 17.9925V16.9675C19.6014 16.8908 19.628 16.8258 19.6814 16.7725C19.738 16.7158 19.808 16.6875 19.8914 16.6875C19.9714 16.6875 20.038 16.7158 20.0914 16.7725C20.148 16.8258 20.1764 16.8908 20.1764 16.9675ZM19.6014 19.4625V18.5575C19.458 18.4675 19.3097 18.4225 19.1564 18.4225C18.973 18.4225 18.8197 18.4808 18.6964 18.5975C18.573 18.7142 18.5114 18.8708 18.5114 19.0675C18.5114 19.2575 18.5647 19.4092 18.6714 19.5225C18.778 19.6358 18.913 19.6925 19.0764 19.6925C19.273 19.6925 19.448 19.6158 19.6014 19.4625ZM20.6647 19.7925C20.6647 19.7325 20.6814 19.6858 20.7147 19.6525C20.7647 19.5925 20.8247 19.5625 20.8947 19.5625C20.948 19.5625 21.003 19.5808 21.0597 19.6175C21.2164 19.7142 21.3897 19.7625 21.5797 19.7625C21.6697 19.7625 21.7414 19.7442 21.7947 19.7075C21.848 19.6708 21.8747 19.6192 21.8747 19.5525C21.8747 19.4492 21.733 19.3575 21.4497 19.2775C21.3364 19.2475 21.243 19.2192 21.1697 19.1925C21.0997 19.1658 21.0197 19.1275 20.9297 19.0775C20.8397 19.0242 20.7714 18.9558 20.7247 18.8725C20.6814 18.7858 20.6597 18.6842 20.6597 18.5675C20.6597 18.3575 20.7364 18.1908 20.8897 18.0675C21.043 17.9442 21.2414 17.8825 21.4847 17.8825C21.748 17.8825 21.9764 17.9392 22.1697 18.0525C22.2497 18.1025 22.2897 18.1675 22.2897 18.2475C22.2897 18.2875 22.2797 18.3258 22.2597 18.3625C22.213 18.4392 22.1464 18.4775 22.0597 18.4775C22.0164 18.4775 21.9714 18.4675 21.9247 18.4475C21.7914 18.3908 21.6547 18.3625 21.5147 18.3625C21.4347 18.3625 21.368 18.3825 21.3147 18.4225C21.2614 18.4592 21.2347 18.5042 21.2347 18.5575C21.2347 18.5975 21.2497 18.6342 21.2797 18.6675C21.3097 18.6975 21.353 18.7258 21.4097 18.7525C21.4697 18.7758 21.528 18.7958 21.5847 18.8125C21.6447 18.8292 21.718 18.8508 21.8047 18.8775C21.8914 18.9008 21.963 18.9225 22.0197 18.9425C22.1464 18.9892 22.2497 19.0625 22.3297 19.1625C22.4097 19.2625 22.4497 19.3825 22.4497 19.5225C22.4497 19.7425 22.3664 19.9175 22.1997 20.0475C22.0364 20.1775 21.8164 20.2425 21.5397 20.2425C21.223 20.2425 20.963 20.1575 20.7597 19.9875C20.6964 19.9342 20.6647 19.8692 20.6647 19.7925Z" fill="white"/>
</g>
<defs>
<clipPath id="clip0_3_3525">
<rect width="38" height="33" fill="white"/>
</clipPath>
</defs>
</svg>
