<svg width="10" height="10" viewBox="0 0 10 10" fill="none" xmlns="http://www.w3.org/2000/svg">
<path d="M6.5987 5.00029L9.59714 2.00185C9.92843 1.67056 9.92843 1.13344 9.59714 0.802663L9.19741 0.402933C8.86601 0.0715326 8.32889 0.0715326 7.99811 0.402933L4.99978 3.40127L2.00133 0.402312C1.67004 0.071015 1.13292 0.071015 0.802144 0.402312L0.401793 0.802042C0.0704962 1.13344 0.0704962 1.67056 0.401793 2.00134L3.40075 5.00029L0.402414 7.99863C0.0710138 8.33003 0.0710138 8.86715 0.402414 9.19793L0.802144 9.59766C1.13344 9.92895 1.67056 9.92895 2.00133 9.59766L4.99978 6.59922L7.99811 9.59766C8.32951 9.92895 8.86663 9.92895 9.19741 9.59766L9.59714 9.19793C9.92843 8.86653 9.92843 8.32941 9.59714 7.99863L6.5987 5.00029Z" fill="white"/>
</svg>
