<svg width="15" height="13" viewBox="0 0 15 13" fill="none" xmlns="http://www.w3.org/2000/svg">
<path d="M14.1568 5.3238L14.1802 5.32892H4.14293L7.2983 2.16661C7.45281 2.01222 7.53756 1.80307 7.53756 1.58356C7.53756 1.36404 7.45281 1.15636 7.2983 1.00161L6.80732 0.510386C6.65293 0.355996 6.4472 0.27063 6.22781 0.27063C6.0083 0.27063 5.80244 0.355386 5.64805 0.509776L0.23915 5.91819C0.0841496 6.07319 -0.000606489 6.27966 3.26724e-06 6.49929C-0.000606489 6.72014 0.0841496 6.92673 0.23915 7.08149L5.64805 12.4904C5.80244 12.6447 6.00817 12.7295 6.22781 12.7295C6.4472 12.7295 6.65293 12.6445 6.80732 12.4904L7.2983 11.9992C7.45281 11.845 7.53756 11.6392 7.53756 11.4197C7.53756 11.2003 7.45281 11.0053 7.2983 10.851L4.10732 7.671H14.1681C14.6201 7.671 15 7.28136 15 6.82953V6.13478C15 5.68295 14.6089 5.3238 14.1568 5.3238Z" fill="#0077fa"/>
</svg>
