<svg width="16" height="16" viewBox="0 0 16 16" fill="none" xmlns="http://www.w3.org/2000/svg">
<g clip-path="url(#clip0)">
<path d="M14.8333 0H13.1667C12.5233 0 12 0.523333 12 1.16667V1.41067C10.992 0.897332 8.70267 0 4.97933 0H3.91267C2.36733 0 1.05533 1.10533 0.793333 2.628L0.0466661 6.96133C-0.112001 7.886 0.143332 8.826 0.745999 9.542C1.348 10.2567 2.23067 10.6667 3.166 10.6667H6.19C6.00133 11.1733 5.81267 11.912 5.81267 12.8333C5.81267 15.338 7.23 16 7.97933 16C9.36333 16 9.47933 14.7093 9.47933 13.5C9.47933 12.024 11.1347 10.7973 12.0087 10.252C12.0533 10.8547 12.5527 11.3333 13.1667 11.3333H14.8333C15.4767 11.3333 16 10.81 16 10.1667V1.16667C16 0.523333 15.4767 0 14.8333 0ZM8.47933 13.5C8.47933 15 8.22533 15 7.97933 15C7.51 15 6.81267 14.4227 6.81267 12.8333C6.81267 11.356 7.39133 10.4507 7.39533 10.444C7.49733 10.2907 7.50733 10.0933 7.42 9.93067C7.33333 9.768 7.16333 9.66667 6.97933 9.66667H3.166C2.526 9.66667 1.92267 9.38667 1.51067 8.898C1.098 8.40867 0.923333 7.76467 1.032 7.132L1.77867 2.79867C1.958 1.75733 2.85533 1.00067 3.91267 1.00067H4.97933C9.51467 0.999999 11.7867 2.41867 12 2.55933V9.09933C11.4447 9.394 8.47933 11.0807 8.47933 13.5ZM15 10.1667C15 10.2587 14.9253 10.3333 14.8333 10.3333H13.1667C13.0747 10.3333 13 10.2587 13 10.1667V1.16667C13 1.076 13.076 1 13.1667 1H14.8333C14.9253 1 15 1.07467 15 1.16667V10.1667Z" fill="#FF3D3D"/>
</g>
<defs>
<clipPath id="clip0">
<rect width="16" height="16" fill="white" transform="translate(16 16) rotate(-180)"/>
</clipPath>
</defs>
</svg>
