<svg width="18" height="18" viewBox="0 0 18 18" fill="none" xmlns="http://www.w3.org/2000/svg">
<path d="M17.2263 12.2371C17.5952 11.7666 17.7721 11.2622 17.7495 10.7428C17.7269 10.1706 17.471 9.72271 17.2602 9.44793C17.5048 8.83814 17.5989 7.87829 16.7821 7.133C16.1836 6.5872 15.1673 6.34253 13.7596 6.41029C12.7696 6.45546 11.9415 6.6399 11.9076 6.64743H11.9038C11.7156 6.6813 11.5161 6.72271 11.3129 6.76788C11.2978 6.52698 11.3392 5.92848 11.7834 4.58093C12.3104 2.97742 12.2803 1.75031 11.6855 0.929736C11.0607 0.0677541 10.0632 0 9.76959 0C9.48728 0 9.22756 0.116688 9.04312 0.331242C8.6253 0.816813 8.67423 1.71267 8.72693 2.12673C8.23007 3.45922 6.83734 6.72647 5.65918 7.63363C5.63659 7.64868 5.61777 7.6675 5.59895 7.68632C5.25265 8.05144 5.01928 8.44668 4.86118 8.79297C4.6391 8.67252 4.3869 8.60477 4.11589 8.60477H1.81978C0.954032 8.60477 0.253906 9.30866 0.253906 10.1706V16.2873C0.253906 17.1531 0.957796 17.8532 1.81978 17.8532H4.11589C4.45089 17.8532 4.76332 17.7478 5.01928 17.5671L5.90384 17.6725C6.03935 17.6913 8.44839 17.9962 10.9214 17.9473C11.3693 17.9812 11.7909 18 12.1824 18C12.8562 18 13.4434 17.9473 13.9327 17.8419C15.0845 17.5972 15.8712 17.1079 16.2702 16.389C16.5751 15.8394 16.5751 15.2936 16.5262 14.9473C17.2752 14.2698 17.407 13.5207 17.3806 12.9937C17.3656 12.6888 17.2978 12.4291 17.2263 12.2371ZM1.81978 16.8369C1.51488 16.8369 1.27022 16.5885 1.27022 16.2873V10.1669C1.27022 9.86198 1.51865 9.61731 1.81978 9.61731H4.11589C4.42078 9.61731 4.66545 9.86575 4.66545 10.1669V16.2836C4.66545 16.5885 4.41702 16.8331 4.11589 16.8331H1.81978V16.8369ZM16.2627 11.7967C16.1046 11.9624 16.0745 12.2146 16.1949 12.4103C16.1949 12.4141 16.3493 12.6775 16.3681 13.0389C16.3944 13.532 16.1573 13.9686 15.6604 14.3413C15.4835 14.4768 15.412 14.7102 15.4873 14.921C15.4873 14.9247 15.6491 15.4216 15.3856 15.8921C15.1335 16.3438 14.5726 16.6675 13.7219 16.8482C13.0406 16.995 12.1146 17.0213 10.9779 16.931C10.9628 16.931 10.944 16.931 10.9252 16.931C8.50485 16.9837 6.05817 16.6675 6.03182 16.6637H6.02806L5.64788 16.6186C5.67047 16.5132 5.68176 16.4003 5.68176 16.2873V10.1669C5.68176 10.005 5.65541 9.84693 5.61024 9.70013C5.678 9.44793 5.8662 8.88708 6.31037 8.40903C8.00046 7.06901 9.6529 2.54831 9.72442 2.35257C9.75453 2.27353 9.76206 2.18695 9.747 2.10038C9.68301 1.6788 9.7056 1.16311 9.79594 1.00878C9.99544 1.01255 10.5337 1.06901 10.8574 1.51694C11.2414 2.04768 11.2263 2.99624 10.8122 4.25345C10.1799 6.16938 10.1272 7.17817 10.6278 7.62233C10.8762 7.84442 11.2075 7.85571 11.4484 7.76913C11.678 7.71644 11.8963 7.67127 12.1033 7.63739C12.1184 7.63363 12.1372 7.62986 12.1523 7.6261C13.3079 7.3739 15.3781 7.21957 16.0971 7.87453C16.7069 8.43162 16.274 9.16938 16.225 9.24843C16.0858 9.45922 16.1272 9.734 16.3154 9.90339C16.3192 9.90715 16.7144 10.2798 16.7332 10.7804C16.7483 11.1154 16.5902 11.458 16.2627 11.7967Z" fill="#2DA5E1"/>
</svg>
