<svg width="16" height="16" viewBox="0 0 16 16" fill="none" xmlns="http://www.w3.org/2000/svg">
<g clip-path="url(#clip0)">
<path d="M1.16667 16H2.83333C3.47667 16 4 15.4767 4 14.8333V14.5893C5.008 15.1027 7.29733 16 11.0207 16H12.0873C13.6327 16 14.9447 14.8947 15.2067 13.372L15.9533 9.03867C16.112 8.114 15.8567 7.174 15.254 6.458C14.652 5.74333 13.7693 5.33333 12.834 5.33333H9.81C9.99867 4.82667 10.1873 4.088 10.1873 3.16667C10.1873 0.662 8.77 0 8.02067 0C6.63667 0 6.52067 1.29067 6.52067 2.5C6.52067 3.976 4.86533 5.20267 3.99133 5.748C3.94667 5.14533 3.44733 4.66667 2.83333 4.66667H1.16667C0.523333 4.66667 0 5.19 0 5.83333V14.8333C0 15.4767 0.523333 16 1.16667 16ZM7.52067 2.5C7.52067 1 7.77467 1 8.02067 1C8.49 1 9.18733 1.57733 9.18733 3.16667C9.18733 4.644 8.60867 5.54933 8.60467 5.556C8.50267 5.70933 8.49267 5.90667 8.58 6.06933C8.66667 6.232 8.83667 6.33333 9.02067 6.33333H12.834C13.474 6.33333 14.0773 6.61333 14.4893 7.102C14.902 7.59133 15.0767 8.23533 14.968 8.868L14.2213 13.2013C14.042 14.2427 13.1447 14.9993 12.0873 14.9993H11.0207C6.48533 15 4.21333 13.5813 4 13.4407V6.90067C4.55533 6.606 7.52067 4.91933 7.52067 2.5ZM1 5.83333C1 5.74133 1.07467 5.66667 1.16667 5.66667H2.83333C2.92533 5.66667 3 5.74133 3 5.83333V14.8333C3 14.924 2.924 15 2.83333 15H1.16667C1.07467 15 1 14.9253 1 14.8333V5.83333Z" fill="#4AD295"/>
</g>
<defs>
<clipPath id="clip0">
<rect width="16" height="16" fill="white"/>
</clipPath>
</defs>
</svg>
