<svg width="14" height="14" viewBox="0 0 14 14" fill="none" xmlns="http://www.w3.org/2000/svg">
<g clip-path="url(#clip0)">
<path d="M1.45832 6.125C0.6545 6.125 0 6.7795 0 7.58332V12.25C0 13.0538 0.6545 13.7083 1.45832 13.7083H3.20832C3.53675 13.7083 3.8389 13.5975 4.08332 13.4131V6.125H1.45832Z" fill="white"/>
<path d="M14.0003 8.31251C14.0003 7.96194 13.8615 7.63526 13.6206 7.39433C13.893 7.09626 14.0318 6.69666 13.9939 6.28076C13.9256 5.53933 13.2577 4.95833 12.4726 4.95833H8.86932C9.04782 4.41641 9.33364 3.42301 9.33364 2.62501C9.33364 1.35976 8.25857 0.291687 7.58364 0.291687C6.97757 0.291687 6.54472 0.632937 6.52607 0.646937C6.45724 0.702363 6.41699 0.786363 6.41699 0.875011V2.85309L4.73699 6.49251L4.66699 6.52809V12.7803C5.14182 13.0043 5.74264 13.125 6.12532 13.125H11.4797C12.115 13.125 12.6709 12.6968 12.8016 12.1059C12.8686 11.802 12.8296 11.4958 12.696 11.2298C13.1271 11.0128 13.417 10.5688 13.417 10.0625C13.417 9.85601 13.3697 9.65826 13.2799 9.47919C13.711 9.26219 14.0003 8.81826 14.0003 8.31251Z" fill="white"/>
</g>
<defs>
<clipPath id="clip0">
<rect width="14" height="14" fill="white"/>
</clipPath>
</defs>
</svg>
