<svg width="16" height="16" viewBox="0 0 16 16" fill="none" xmlns="http://www.w3.org/2000/svg">
<g clip-path="url(#clip0)">
<path d="M15.6008 6.92799C15.6003 6.92763 15.5999 6.92714 15.5995 6.92677L9.07279 0.400269C8.79459 0.121949 8.42471 -0.03125 8.03128 -0.03125C7.63785 -0.03125 7.26797 0.121949 6.98965 0.400269L0.466326 6.92348C0.464129 6.92567 0.461809 6.92799 0.459734 6.93019C-0.111556 7.50478 -0.11058 8.43703 0.462542 9.01015C0.724383 9.27211 1.07009 9.42372 1.43984 9.43972C1.45498 9.44118 1.47011 9.44191 1.48537 9.44191H1.74538V14.2449C1.74538 15.1955 2.51882 15.9688 3.46938 15.9688H6.02285C6.28177 15.9688 6.49161 15.7588 6.49161 15.5V11.7344C6.49161 11.3007 6.84451 10.9479 7.27823 10.9479H8.78433C9.21805 10.9479 9.57083 11.3007 9.57083 11.7344V15.5C9.57083 15.7588 9.78067 15.9688 10.0396 15.9688H12.5931C13.5437 15.9688 14.3171 15.1955 14.3171 14.2449V9.44191H14.5583C14.9516 9.44191 15.3215 9.28871 15.5999 9.01027C16.1736 8.4363 16.1739 7.50233 15.6008 6.92799ZM14.9369 8.34743C14.8357 8.44862 14.7012 8.50441 14.5583 8.50441H13.8483C13.5894 8.50441 13.3796 8.71425 13.3796 8.97316V14.2449C13.3796 14.6785 13.0268 15.0313 12.5931 15.0313H10.5083V11.7344C10.5083 10.7838 9.73502 10.0104 8.78433 10.0104H7.27823C6.32754 10.0104 5.5541 10.7838 5.5541 11.7344V15.0313H3.46938C3.03579 15.0313 2.68288 14.6785 2.68288 14.2449V8.97316C2.68288 8.71425 2.47304 8.50441 2.21413 8.50441H1.51638C1.50905 8.50392 1.50185 8.50356 1.4944 8.50343C1.35476 8.50099 1.22377 8.44557 1.12563 8.34731C0.916888 8.13857 0.916888 7.79884 1.12563 7.58998C1.12551 7.5901 1.12575 7.58998 1.12563 7.58998L7.65274 1.06311C7.75381 0.961916 7.88821 0.906252 8.03128 0.906252C8.17423 0.906252 8.30863 0.961916 8.40982 1.06311L14.9349 7.58803C14.9358 7.589 14.9369 7.58998 14.9379 7.59096C15.1456 7.80006 15.1452 8.13905 14.9369 8.34743Z" fill="#889CB2"/>
</g>
<defs>
<clipPath id="clip0">
<rect width="16" height="16" fill="white"/>
</clipPath>
</defs>
</svg>
