<svg width="22" height="22" viewBox="0 0 22 22" fill="none" xmlns="http://www.w3.org/2000/svg">
<path d="M17.5477 0.667969H5.94365C4.58783 0.668583 3.48875 1.76751 3.48829 3.12333V4.18404H2.33427C2.06296 4.18404 1.8432 4.40395 1.8432 4.67511C1.8432 4.94627 2.06296 5.16618 2.33427 5.16618H3.48323V8.38761H2.33427C2.06296 8.38761 1.8432 8.60736 1.8432 8.87868C1.8432 9.14985 2.06296 9.36975 2.33427 9.36975H3.48323V12.5912H2.33427C2.06296 12.5912 1.8432 12.8111 1.8432 13.0823C1.8432 13.3536 2.06296 13.5733 2.33427 13.5733H3.48323V16.7948H2.33427C2.06296 16.7948 1.8432 17.0147 1.8432 17.2858C1.8432 17.557 2.06296 17.7769 2.33427 17.7769H3.48323V18.8376C3.48384 20.1934 4.58277 21.2924 5.93858 21.293H17.5426C18.8984 21.2924 19.9977 20.1934 19.998 18.8376V3.12333C20 1.76843 18.9026 0.66889 17.5477 0.667969ZM19.0209 18.8376C19.0184 19.6502 18.3602 20.3085 17.5477 20.3108H5.94365C5.13108 20.3085 4.47273 19.6502 4.47043 18.8376V17.7769H5.61939C5.8907 17.7769 6.11046 17.557 6.11046 17.2858C6.11046 17.0147 5.8907 16.7948 5.61939 16.7948H4.47043V13.5733H5.61939C5.8907 13.5733 6.11046 13.3536 6.11046 13.0823C6.11046 12.8111 5.8907 12.5912 5.61939 12.5912H4.47043V9.36975H5.61939C5.8907 9.36975 6.11046 9.14985 6.11046 8.87868C6.11046 8.60736 5.8907 8.38761 5.61939 8.38761H4.47043V5.16618H5.61939C5.8907 5.16618 6.11046 4.94627 6.11046 4.67511C6.11046 4.40395 5.8907 4.18404 5.61939 4.18404H4.47043V3.12333C4.47273 2.31076 5.13108 1.65241 5.94365 1.65011H17.5477C18.3602 1.65241 19.0184 2.31076 19.0209 3.12333V18.8376Z" fill="#2DA5E1"/>
<path d="M11.7431 10.8379C13.0584 10.8379 14.1248 9.77162 14.1248 8.45616C14.1248 7.1407 13.0584 6.07446 11.7431 6.07446C10.4277 6.07446 9.36145 7.1407 9.36145 8.45616C9.36268 9.771 10.4281 10.8366 11.7431 10.8379ZM11.7431 7.0517C12.516 7.0517 13.1427 7.67843 13.1427 8.45125C13.1427 9.22407 12.516 9.8508 11.7431 9.8508C10.9702 9.8508 10.3436 9.22407 10.3436 8.45125C10.345 7.67904 10.9706 7.05308 11.7431 7.0517Z" fill="#2DA5E1"/>
<path d="M11.7431 11.6287C9.70029 11.6287 8.09924 13.2836 8.09924 15.4001C8.10001 15.6709 8.31946 15.8904 8.59031 15.8912H14.8958C15.1667 15.8904 15.3861 15.6709 15.3869 15.4001C15.3869 13.2836 13.7859 11.6287 11.7431 11.6287ZM9.12067 14.909C9.33199 13.5684 10.3878 12.6108 11.7431 12.6108C13.0984 12.6108 14.1592 13.5684 14.3655 14.909H9.12067Z" fill="#2DA5E1"/>
</svg>
