<svg width="24" height="24" viewBox="0 0 24 24" fill="none" xmlns="http://www.w3.org/2000/svg">
<g clip-path="url(#clip0)">
<path d="M23.1853 11.0865L21.5511 10.3792L20.1633 7.67868C19.7882 6.93924 19.0273 6.47843 18.1968 6.48379H15.807V5.80865C15.807 4.58697 14.8318 3.59033 13.6101 3.59033H2.18631C0.964629 3.59033 0.000142572 4.59233 0.000142572 5.80865V16.1501C-0.0105739 16.8949 0.584193 17.5057 1.32899 17.5164C1.33435 17.5164 1.33971 17.5164 1.35042 17.5164H1.63441C1.63441 17.57 1.62905 17.5914 1.62905 17.6236C1.62369 19.1561 2.86145 20.4045 4.39391 20.4099C5.92637 20.4152 7.17485 19.1775 7.18021 17.645C7.18021 17.6343 7.18021 17.629 7.18021 17.6182C7.18021 17.5807 7.18021 17.5647 7.17485 17.5111H16.4071C16.4071 17.5647 16.4071 17.5861 16.4071 17.6182C16.4018 19.1507 17.6395 20.3992 19.172 20.4045C20.7044 20.4099 21.9529 19.1721 21.9583 17.6397C21.9583 17.629 21.9583 17.6236 21.9583 17.6129C21.9583 17.5754 21.9583 17.5593 21.9583 17.5057H22.6495C23.3943 17.5057 23.9998 16.9002 23.9998 16.1554C23.9998 16.1501 23.9998 16.1447 23.9998 16.134V12.3296C24.0105 11.8045 23.689 11.3062 23.1853 11.0865ZM4.40999 19.3436C3.46693 19.3436 2.70606 18.5827 2.70606 17.6397C2.70606 16.6966 3.46693 15.9357 4.40999 15.9357C5.35304 15.9357 6.11391 16.6966 6.11391 17.6397C6.11391 18.5774 5.34768 19.3436 4.40999 19.3436ZM14.7353 16.4555H6.92301C6.47292 15.4749 5.487 14.848 4.40999 14.8534C3.32762 14.848 2.34706 15.4696 1.89697 16.4555H1.35042C1.18432 16.4555 1.07179 16.3269 1.07179 16.1608V13.4013H14.7353V16.4555ZM14.7353 5.81401V12.3296H1.07179V5.81401C1.07179 5.18709 1.5594 4.66734 2.18631 4.66734H13.6101C14.237 4.6727 14.7407 5.18709 14.7353 5.80865V5.81401ZM15.807 7.5608H18.1968C18.6201 7.55544 19.0166 7.78585 19.2148 8.16628L20.2865 10.2399H15.807V7.5608ZM19.1881 19.3436C18.245 19.3436 17.4841 18.5827 17.4841 17.6397C17.4841 16.6966 18.245 15.9357 19.1881 15.9357C20.1311 15.9357 20.892 16.6966 20.892 17.6397C20.892 18.5774 20.1311 19.3436 19.1881 19.3436ZM22.9335 16.1608C22.9335 16.3269 22.821 16.4555 22.6549 16.4555H21.7011C21.0527 15.0677 19.4024 14.4676 18.0146 15.1159C17.4252 15.3892 16.9483 15.8661 16.675 16.4555H15.807V11.3116H21.0581L22.762 12.0617C22.8692 12.1153 22.9388 12.2332 22.9335 12.3511V16.1608Z" fill="#2DA5E1"/>
</g>
<defs>
<clipPath id="clip0">
<rect width="24" height="24" fill="white"/>
</clipPath>
</defs>
</svg>
