<svg width="24" height="24" viewBox="0 0 24 24" fill="none" xmlns="http://www.w3.org/2000/svg">
<g clip-path="url(#clip0)">
<path d="M22.1948 6.51181L22.194 6.49313C22.1836 6.2626 22.1766 6.01871 22.1724 5.74734C22.1528 4.42404 21.1009 3.32944 19.7774 3.25547C17.018 3.10148 14.8834 2.2017 13.0595 0.423934L13.0439 0.409102C12.449 -0.136367 11.5516 -0.136367 10.9565 0.409102L10.9409 0.423934C9.11704 2.2017 6.9824 3.10148 4.22301 3.25565C2.89971 3.32944 1.84759 4.42404 1.82799 5.74753C1.82397 6.01706 1.81682 6.26095 1.80639 6.49313L1.80529 6.53653C1.75164 9.3503 1.68499 12.8522 2.8565 16.0307C3.50066 17.7786 4.47624 19.298 5.75596 20.547C7.21348 21.9693 9.12253 23.0986 11.43 23.9031C11.5051 23.9293 11.5831 23.9505 11.6626 23.9665C11.7746 23.9888 11.8874 24 12.0002 24C12.113 24 12.226 23.9888 12.3379 23.9665C12.4173 23.9505 12.4959 23.9291 12.5713 23.9028C14.8761 23.0967 16.7831 21.967 18.2393 20.5448C19.5185 19.2955 20.4941 17.7757 21.1388 16.0274C22.3147 12.8394 22.2482 9.33089 22.1948 6.51181ZM19.8175 15.5402C18.5819 18.8903 16.0596 21.191 12.1066 22.5734C12.0925 22.5782 12.0775 22.5824 12.0619 22.5855C12.0211 22.5935 11.9795 22.5935 11.9381 22.5853C11.9228 22.5822 11.9077 22.5782 11.8938 22.5734C7.93656 21.1935 5.41264 18.8941 4.17796 15.5438C3.09819 12.614 3.15935 9.39937 3.21337 6.56344L3.21373 6.5477C3.22472 6.30398 3.23204 6.04874 3.23607 5.76822C3.24486 5.18063 3.71288 4.69449 4.30156 4.66172C5.86308 4.57456 7.2349 4.2728 8.4954 3.73923C9.75424 3.2064 10.8723 2.4553 11.9131 1.4431C11.966 1.39842 12.0346 1.39824 12.0874 1.4431C13.1283 2.4553 14.2464 3.2064 15.505 3.73923C16.7655 4.2728 18.1373 4.57456 19.699 4.66172C20.2877 4.69449 20.7557 5.18063 20.7643 5.7684C20.7686 6.05038 20.7759 6.30563 20.7869 6.5477C20.8407 9.38692 20.9004 12.6041 19.8175 15.5402Z" fill="#2DA5E1"/>
<path d="M11.9999 6.01929C8.70184 6.01929 6.0188 8.70252 6.0188 12.0004C6.0188 15.2985 8.70184 17.9818 11.9999 17.9818C15.2978 17.9818 17.9811 15.2985 17.9811 12.0004C17.9811 8.70252 15.2978 6.01929 11.9999 6.01929ZM11.9999 16.5733C9.47839 16.5733 7.42706 14.522 7.42706 12.0004C7.42706 9.47888 9.47839 7.42755 11.9999 7.42755C14.5213 7.42755 16.5726 9.47888 16.5726 12.0004C16.5726 14.522 14.5213 16.5733 11.9999 16.5733Z" fill="#2DA5E1"/>
<path d="M13.7189 10.1434L10.9408 12.9215L10.1868 12.1675C9.91176 11.8924 9.4659 11.8924 9.19087 12.1675C8.91603 12.4425 8.91603 12.8884 9.19087 13.1632L10.4429 14.4153C10.5805 14.5528 10.7606 14.6214 10.9408 14.6214C11.121 14.6214 11.3012 14.5528 11.4387 14.4153L14.7148 11.1391C14.9896 10.8641 14.9896 10.4183 14.7148 10.1434C14.4398 9.86821 13.9939 9.86821 13.7189 10.1434Z" fill="#2DA5E1"/>
</g>
<defs>
<clipPath id="clip0">
<rect width="24" height="24" fill="white"/>
</clipPath>
</defs>
</svg>
