<svg width="30" height="30" viewBox="0 0 30 30" fill="none" xmlns="http://www.w3.org/2000/svg">
<g clip-path="url(#clip0)">
<path d="M23.0544 12.4766L21.0525 6.63967C20.9215 6.25783 20.5511 6 20.1336 6H17.9036C17.3691 6 16.9359 6.41726 16.9359 6.93204C16.9359 7.44682 17.3691 7.86408 17.9036 7.86408H19.4341L19.9536 9.37864H10.306L10.1604 9.14563H10.4039C10.9383 9.14563 11.3716 8.72837 11.3716 8.21359C11.3716 7.69882 10.9383 7.28155 10.4039 7.28155H7.37978C6.84536 7.28155 6.41207 7.69882 6.41207 8.21359C6.41207 8.72837 6.84536 9.14563 7.37978 9.14563H7.90144L8.65534 10.3519L7.57296 12.6361C5.54906 12.1059 3.3373 12.6222 1.76641 14.1352C-0.588321 16.4032 -0.589288 20.0298 1.76641 22.2987C5.23752 25.642 11.1348 23.768 11.9266 19.165H14.7015C14.9993 19.165 15.2805 19.0329 15.4639 18.807L20.893 12.1174L21.2155 13.0577C19.2855 14.0241 17.9641 15.968 17.9641 18.2039C17.9641 21.3998 20.6638 24 23.9821 24C27.3003 24 30 21.3998 30 18.2039C29.9999 14.6727 26.7212 11.9276 23.0544 12.4766ZM9.86528 12.2881L12.998 17.3009H11.9317C11.6593 15.6652 10.6725 14.2819 9.33249 13.4125L9.86528 12.2881ZM8.51496 15.1377C9.22278 15.6742 9.74159 16.4314 9.95878 17.3009H7.48992L8.51496 15.1377ZM6.00437 22.1349C3.76134 22.1349 1.93649 20.3773 1.93649 18.217C1.93649 15.7816 4.2377 13.9138 6.75295 14.3667L5.10428 17.846C4.81197 18.4629 5.28131 19.165 5.98465 19.165H9.95122C9.50976 20.8687 7.90797 22.1349 6.00437 22.1349ZM14.81 16.5857L11.4709 11.2427H19.1462L14.81 16.5857ZM23.982 22.1359C21.7309 22.1359 19.8995 20.372 19.8995 18.2038C19.8995 16.7942 20.674 15.5561 21.8342 14.8619L23.0778 18.4877C23.2122 18.8795 23.5904 19.1276 23.9965 19.1276C24.6548 19.1276 25.1223 18.506 24.9155 17.903L23.6743 14.2841C26.0597 14.1119 28.0645 15.9348 28.0645 18.2038C28.0645 20.372 26.2331 22.1359 23.982 22.1359Z" fill="#2DA5E1"/>
</g>
<defs>
<clipPath id="clip0">
<rect width="30" height="30" fill="white"/>
</clipPath>
</defs>
</svg>
