<svg width="18" height="18" viewBox="0 0 18 18" fill="none" xmlns="http://www.w3.org/2000/svg">
<path d="M7.81521 6.98864C8.50956 6.23551 8.89213 5.22528 8.89213 4.14376C8.89213 2.08457 7.4213 0 4.60966 0C3.30118 0 2.19731 0.449427 1.41724 1.29967C0.726261 2.05291 0.345825 3.06291 0.345825 4.14376C0.345825 6.20318 1.81042 8.28763 4.60966 8.28763C5.92303 8.28769 7.03172 7.83859 7.81521 6.98864ZM4.60966 1.92671C6.15021 1.92671 6.8518 3.07672 6.8518 4.14522C6.8518 4.72645 6.65622 5.26452 6.30077 5.66011C5.90422 6.10196 5.32792 6.3356 4.63464 6.3356C3.05513 6.3356 2.33558 5.1857 2.33558 4.11732C2.33558 3.02709 3.03885 1.92671 4.60966 1.92671Z" fill="#FF3D3D"/>
<path d="M14.8353 1.59853C14.5805 1.60314 14.2327 1.762 14.0622 1.95146L1.41382 16.0143C1.24345 16.2039 1.36414 16.4696 1.61894 16.4696H3.2744C3.52921 16.4696 3.87675 16.3142 4.04684 16.1245L16.6171 2.06452C16.7871 1.87461 16.7758 1.56564 16.3548 1.56575L14.8353 1.59853Z" fill="#FF3D3D"/>
<path d="M13.4529 9.87C12.1696 9.87 11.0867 10.3111 10.3214 11.1451C9.64362 11.8838 9.2702 12.8747 9.2702 13.9351C9.2702 15.9551 10.707 18 13.4529 18C14.7416 18 15.8289 17.5593 16.5977 16.7256C17.2789 15.9868 17.654 14.9957 17.654 13.9351C17.654 11.915 16.211 9.87 13.4529 9.87ZM13.4777 16.1346C11.9409 16.1346 11.2408 14.9806 11.2408 13.9089C11.2408 13.3252 11.4362 12.7852 11.7914 12.388C12.1873 11.9449 12.7618 11.7107 13.4529 11.7107C14.9898 11.7107 15.6896 12.8645 15.6896 13.9365C15.6896 14.52 15.4941 15.0602 15.1392 15.4574C14.7432 15.9004 14.1686 16.1346 13.4777 16.1346Z" fill="#FF3D3D"/>
</svg>
