<svg width="24" height="24" viewBox="0 0 24 24" fill="none" xmlns="http://www.w3.org/2000/svg">
<g clip-path="url(#clip0)">
<path fill-rule="evenodd" clip-rule="evenodd" d="M1.61525 10.6936C1.56864 10.4671 1.49895 10.1285 1.48762 9.92632H15.9036C16.0284 9.92632 16.1314 9.9281 16.2584 9.9303C16.6758 9.93752 17.2968 9.94827 17.7069 9.92654C17.6893 10.0698 17.6624 10.2379 17.6311 10.4076C17.5681 10.7495 17.4885 11.0939 17.4311 11.2594L17.369 11.4392C17.2709 11.7246 17.2564 11.7669 17.0817 12.142C16.9523 12.4199 16.8838 12.5315 16.7803 12.7003L16.7799 12.7C16.7442 12.7581 16.704 12.8237 16.6392 12.9332C16.5547 13.0761 16.4449 13.2134 16.3344 13.3515C16.2987 13.3963 16.2629 13.441 16.214 13.5043C16.017 13.7594 15.758 14.01 15.5119 14.2481C15.461 14.2974 15.4106 14.3462 15.3613 14.3944C15.333 14.4221 15.3204 14.4309 15.3009 14.4444C15.2924 14.4503 15.2827 14.4571 15.2403 14.4893C15.1953 14.5235 15.169 14.5505 15.1428 14.5776C15.1283 14.5925 15.1137 14.6076 15.1037 14.6152C15.0906 14.6253 15.0649 14.644 15.0319 14.6674C15.0053 14.6864 14.9821 14.7025 14.9675 14.712L14.9461 14.7259L14.914 14.7571L14.3186 15.1613L14.3183 15.1607C13.9817 15.3747 13.6566 15.5192 13.2996 15.6778L13.2721 15.69C13.2487 15.7004 13.231 15.7094 13.2159 15.7171C13.2078 15.7213 13.2027 15.7239 13.1739 15.7304L13.1014 15.7468L13.0622 15.7849L12.222 16.0614C12.0711 16.1048 11.9214 16.142 11.7686 16.1764C11.5962 16.2152 11.44 16.2468 11.2812 16.278C11.1139 16.3108 10.9101 16.3304 10.7071 16.3499C10.5422 16.3658 10.3778 16.3816 10.2214 16.4057C9.95222 16.4472 9.52274 16.44 9.06795 16.4063C8.51178 16.3652 7.92585 16.2838 7.54659 16.2027C7.06265 16.0992 6.58825 15.9584 6.13622 15.7789C5.70254 15.6067 5.28378 15.3974 4.89046 15.1496C4.06385 14.6289 3.31605 13.9548 2.73613 13.1733C2.19971 12.4505 1.80714 11.6354 1.62971 10.7651V10.7641L1.61523 10.6936H1.61525ZM11.8787 17.5968C11.8393 17.632 11.8007 17.6679 11.7628 17.7047C11.0757 18.372 10.6506 19.2939 10.6506 20.3121C10.6506 21.3303 11.0757 22.2521 11.7628 22.9195C12.45 23.5868 13.3992 23.9996 14.4477 23.9996C15.4961 23.9996 16.4454 23.5868 17.1325 22.9195C17.8197 22.2522 18.2447 21.3303 18.2447 20.3121C18.2447 19.2939 17.8197 18.372 17.1325 17.7047C16.4639 17.0553 15.5471 16.6471 14.5322 16.6255C15.273 16.256 15.9392 15.8274 16.3875 15.389C16.4043 15.3725 16.4158 15.361 16.4265 15.3502C16.4493 15.3272 16.4696 15.3068 16.4924 15.2874L16.5055 15.2756L16.8574 14.9332L16.8726 14.9175C16.8965 14.8898 16.9281 14.8616 16.9596 14.8335C17.0012 14.7964 17.0427 14.7593 17.0913 14.7033L17.1004 14.6934L17.7096 13.9099C17.8392 13.7368 18.061 13.3836 18.2443 13.052C18.3739 12.8176 18.4866 12.5889 18.5401 12.43L18.5748 12.3963L18.5917 12.3259C18.6135 12.2351 18.653 12.1339 18.6912 12.0361C18.7135 11.979 18.7354 11.923 18.757 11.8603C18.8297 11.6495 18.9384 11.2608 19.0179 10.8985C19.0692 10.6649 19.1094 10.438 19.1225 10.267L19.1564 10.2341V10.131C19.1564 10.0235 19.1637 9.94181 19.172 9.84853C19.1754 9.81073 19.179 9.77011 19.1845 9.69133C19.1863 9.66641 19.1894 9.65403 19.1925 9.642C19.2035 9.59909 19.2141 9.55755 19.2152 9.44982C19.2183 9.138 19.2609 8.95354 19.2984 8.79107C19.3184 8.70441 19.3372 8.62296 19.3499 8.53543L19.3824 8.50393L19.3902 8.41276C19.3952 8.35495 19.437 8.25611 19.4921 8.14927C19.5752 7.98838 19.6848 7.82214 19.7592 7.72807C19.815 7.65755 19.9557 7.51032 20.0977 7.39236C20.133 7.36303 20.1664 7.33654 20.1954 7.31557C20.2275 7.34085 20.2481 7.36174 20.2804 7.39444C20.3052 7.4195 20.3355 7.4502 20.381 7.49411L20.3961 7.50876L20.7523 7.75515L20.8057 7.80704L20.9525 7.86401L20.9745 7.88539L21.0172 7.90528C21.1895 7.98555 21.5079 8.02524 21.8208 8.02444C22.1319 8.02365 22.4542 7.98395 22.6377 7.90555C22.8114 7.83133 23.0297 7.70241 23.2189 7.55184L23.2194 7.55243C23.3724 7.43069 23.5096 7.29109 23.5965 7.1478L23.6179 7.12703L23.6323 7.10617C23.6778 7.0401 23.7312 6.95551 23.7784 6.86426C23.8171 6.78929 23.8511 6.71072 23.8726 6.63492L23.8746 6.62804L23.9996 6.13983V5.69683L23.9592 5.63495C23.9516 5.62336 23.9639 5.62732 23.96 5.60133V5.60034C23.9504 5.53654 23.9384 5.45659 23.9037 5.34862C23.8863 5.29449 23.8646 5.23398 23.8412 5.17398C23.8193 5.11795 23.795 5.06089 23.7705 5.0091C23.6189 4.68748 23.3408 4.397 23.0068 4.19076C22.6845 3.99177 22.3055 3.86736 21.9328 3.8648C21.771 3.81722 21.5489 3.84351 21.3233 3.90968C21.0525 3.9891 20.7506 4.12897 20.5692 4.25237L20.5563 4.26116C20.4516 4.35304 20.3474 4.44594 20.242 4.53702L20.1946 4.58296L20.1802 4.60381C20.1606 4.63232 20.1278 4.67498 20.0952 4.71751C19.9757 4.87315 19.8573 5.02725 19.7635 5.36081C19.6738 5.67944 19.6672 5.85304 19.6631 5.96013C19.6627 5.96843 19.6627 5.96959 19.5951 6.00563L19.5615 6.02356L19.5365 6.04785L19.5322 6.05198C19.222 6.21928 18.9388 6.47018 18.698 6.75706C18.4194 7.08901 18.1954 7.47166 18.0522 7.82745C18.0081 7.93686 17.9362 8.13872 17.8841 8.33459C17.8707 8.38469 17.8587 8.4346 17.8485 8.48292C16.9117 8.48394 15.8042 8.49096 14.6955 8.49799C13.6926 8.50434 12.6877 8.5107 11.4601 8.51124C11.4352 8.45168 11.412 8.38899 11.3884 8.32523C11.3627 8.25572 11.3366 8.18506 11.3188 8.14094L11.3178 8.13897L10.8799 7.08191V7.08092C10.8547 7.02056 10.8463 6.99875 10.8385 6.97846C10.8171 6.92276 10.7975 6.8721 10.7682 6.80965L10.0129 4.9618L10.0134 4.9616C10.0001 4.9285 9.98401 4.88493 9.96777 4.84084C9.95533 4.80697 9.94243 4.77205 9.90908 4.69047V4.68949L9.36258 3.36729L9.35752 3.35648C9.31797 3.27209 9.27926 3.17019 9.23975 3.0661C9.21045 2.98893 9.18067 2.9105 9.14821 2.83329L9.14803 2.83335L8.17754 0.444676L8.17654 0.443686C8.15304 0.386409 8.14673 0.372182 8.14052 0.358173C8.11655 0.304101 8.09273 0.250397 8.08327 0.210853L8.03263 -0.000488281L7.8103 0.0174297C7.67484 0.0283348 7.51241 0.081921 7.39199 0.121649L7.35597 0.133477L7.35193 0.13544L5.88367 0.647982L5.87357 0.650934C5.66569 0.733142 5.50171 0.804831 5.33698 0.883952C5.17276 0.962821 5.0169 1.04473 4.82043 1.14974C4.65603 1.23761 4.45755 1.35963 4.25725 1.49043C4.00786 1.65327 3.76229 1.82508 3.57803 1.96019C3.40165 2.08952 3.14566 2.30212 2.90776 2.51427C2.68708 2.71107 2.47797 2.91189 2.35832 3.05017L2.28695 3.13256C2.01991 3.44062 1.81012 3.68261 1.56949 4.0347L1.36992 4.32553L1.36586 4.33241C1.26544 4.48974 1.15916 4.66958 1.0625 4.84834C0.97191 5.01584 0.887642 5.18537 0.821184 5.33944C0.764814 5.4701 0.731318 5.54664 0.702036 5.61361C0.508017 6.05713 0.459126 6.16892 0.278305 6.82173C0.22007 7.03202 0.149931 7.35439 0.0986919 7.66946C0.0568695 7.92688 0.0283279 8.17949 0.0300903 8.36271L0.0287437 8.46789L-0.000383377 8.50433V9.57936L0.0294342 9.60831C0.0311966 9.80268 0.0381413 9.97416 0.052618 10.1408C0.069685 10.3373 0.0972233 10.5248 0.139013 10.7327C0.384306 11.9526 0.881907 13.0983 1.60096 14.0912C2.30233 15.0598 3.21469 15.8827 4.30943 16.4871C4.39932 16.5367 4.49006 16.5848 4.58173 16.6314C4.50418 16.6268 4.42604 16.6245 4.34732 16.6245C3.29889 16.6245 2.34964 17.0372 1.66248 17.7046C0.975332 18.3719 0.550287 19.2938 0.550287 20.312C0.550287 21.3302 0.975332 22.252 1.66248 22.9194C2.34963 23.5867 3.29888 23.9995 4.34732 23.9995C5.39575 23.9995 6.345 23.5867 7.03216 22.9194C7.71931 22.2521 8.14435 21.3302 8.14435 20.312C8.14435 19.2938 7.71931 18.3719 7.03216 17.7046C6.93746 17.6126 6.83771 17.5255 6.73347 17.4436C7.08846 17.5401 7.44986 17.6233 7.81627 17.6957L7.82536 17.6977C8.23194 17.7647 8.83113 17.7994 9.43436 17.8054C10.0752 17.8118 10.7234 17.7856 11.1494 17.7311C11.3774 17.702 11.6226 17.6564 11.8786 17.5967L11.8787 17.5968ZM12.8608 18.771C13.2669 18.3766 13.8279 18.1327 14.4477 18.1327C15.0675 18.1327 15.6285 18.3766 16.0346 18.771C16.4406 19.1653 16.6918 19.7102 16.6918 20.3121C16.6918 20.914 16.4406 21.4588 16.0346 21.8532C15.6285 22.2475 15.0675 22.4914 14.4477 22.4914C13.8279 22.4914 13.2669 22.2475 12.8608 21.8532C12.4547 21.4588 12.2036 20.914 12.2036 20.3121C12.2036 19.7102 12.4548 19.1653 12.8608 18.771ZM14.4477 19.4697C13.9686 19.4697 13.5803 19.8468 13.5803 20.3121C13.5803 20.7773 13.9686 21.1545 14.4477 21.1545C14.9267 21.1545 15.3151 20.7773 15.3151 20.3121C15.3151 19.8468 14.9267 19.4697 14.4477 19.4697ZM2.76056 18.771C3.16661 18.3766 3.72767 18.1327 4.34744 18.1327C4.96721 18.1327 5.52827 18.3766 5.93433 18.771C6.34038 19.1653 6.59153 19.7102 6.59153 20.3121C6.59153 20.914 6.34037 21.4588 5.93433 21.8532C5.52827 22.2475 4.96721 22.4914 4.34744 22.4914C3.72767 22.4914 3.16661 22.2475 2.76056 21.8532C2.3545 21.4588 2.10335 20.914 2.10335 20.3121C2.10335 19.7102 2.35452 19.1653 2.76056 18.771ZM4.34744 19.4697C3.86838 19.4697 3.48002 19.8468 3.48002 20.3121C3.48002 20.7773 3.86838 21.1545 4.34744 21.1545C4.82651 21.1545 5.21486 20.7773 5.21486 20.3121C5.21486 19.8468 4.82651 19.4697 4.34744 19.4697ZM9.587 7.77081L9.60668 7.81933L9.62629 7.83841C9.66821 7.9683 9.74659 8.15291 9.82181 8.33018L9.88815 8.48701C9.83072 8.4872 9.7729 8.48626 9.71488 8.48532C9.52466 8.48222 9.33235 8.47909 9.13535 8.50946C8.984 8.53281 3.68873 8.51881 1.8247 8.51388C1.60647 8.5133 1.51543 8.5128 1.46575 8.5124C1.48886 8.17097 1.55478 7.7637 1.64842 7.36127C1.76437 6.86287 1.92125 6.37583 2.09049 6.03371C2.16269 5.8877 2.1785 5.85519 2.19525 5.82074C2.34893 5.50479 2.45576 5.2852 2.69783 4.93409L2.77652 4.81995L2.83622 4.73248L2.86545 4.70411L2.87984 4.68324C3.26697 4.12174 3.68963 3.74897 4.17268 3.32293L4.29453 3.21534L4.6301 2.96385C4.74082 2.88416 4.85827 2.80245 4.98088 2.72341C5.09996 2.64664 5.22073 2.57475 5.33952 2.5137L5.37389 2.49603L5.40577 2.46506L5.89729 2.20007L5.89737 2.20024C5.91294 2.19223 5.93991 2.18223 5.96746 2.17205C6.00876 2.15677 6.05104 2.14113 6.10273 2.11461L6.13707 2.09697L6.15369 2.08082C6.20976 2.05894 6.28372 2.02664 6.37221 1.988L6.37203 1.98764C6.57491 1.89905 6.86506 1.77239 7.10931 1.68937C7.16556 1.83413 7.23962 2.01106 7.31 2.17918C7.39019 2.37073 7.46553 2.55063 7.49585 2.63478L7.49889 2.64361L8.31519 4.65513L8.34459 4.6837L8.6361 5.41507C8.65487 5.46193 8.68379 5.53607 8.71173 5.60776C8.74016 5.6807 8.76751 5.75085 8.79052 5.80772L9.58705 7.77078L9.587 7.77081ZM22.3669 6.37885L22.3374 6.40761L22.3231 6.42834C22.3056 6.45369 22.2623 6.48741 22.2085 6.52015C22.1486 6.55659 22.0833 6.58591 22.0296 6.59779C21.9465 6.61621 21.8588 6.62185 21.7741 6.61578C21.6915 6.60984 21.6154 6.59318 21.5526 6.56684C21.4605 6.52815 21.3773 6.468 21.3115 6.39398C21.2499 6.32466 21.2053 6.24436 21.1856 6.16014C21.1557 6.03275 21.1491 5.89651 21.1717 5.7741C21.1897 5.67679 21.2252 5.59088 21.2811 5.53154C21.3964 5.40927 21.5423 5.32624 21.6942 5.28864C21.8378 5.2531 21.9847 5.25961 22.1115 5.314C22.1553 5.3328 22.2066 5.37105 22.2564 5.40814L22.2565 5.40799C22.2889 5.43222 22.2669 5.4163 22.2891 5.43262C22.3186 5.45426 22.3369 5.4703 22.3507 5.48575C22.3684 5.50553 22.3868 5.53167 22.4111 5.56687L22.4254 5.58762L22.4423 5.60403C22.4575 5.63532 22.4732 5.6728 22.4868 5.71303L22.4871 5.71293C22.5005 5.75249 22.5107 5.79162 22.5141 5.82435C22.5241 5.91919 22.5124 6.00007 22.5013 6.07735L22.4965 6.11052L22.4783 6.1282L22.4618 6.19724C22.4438 6.27226 22.4257 6.29721 22.3942 6.34048C22.3878 6.34926 22.3807 6.35904 22.3669 6.37883V6.37885Z" fill="#2DA5E1"/>
</g>
<defs>
<clipPath id="clip0">
<rect width="24" height="24" fill="white" transform="matrix(-1 0 0 1 24 0)"/>
</clipPath>
</defs>
</svg>
