<svg width="19" height="24" viewBox="0 0 19 24" fill="none" xmlns="http://www.w3.org/2000/svg">
<g clip-path="url(#clip0)">
<path d="M6.61668 8.90408C6.56375 9.46069 6.46529 10.1475 6.36533 10.845C6.20127 11.9898 6.03303 13.1635 6.02851 14.1425C6.02588 14.724 6.16924 15.6373 6.46957 16.3866C6.73425 17.047 7.1334 17.619 7.69427 17.8731C8.74561 18.3482 11.1276 17.9358 12.8519 17.6373C13.4594 17.5321 13.9774 17.4424 14.2747 17.4185C15.0435 17.3567 15.6808 17.5701 16.1751 17.9009C16.8429 18.3477 17.253 18.9831 17.3765 19.4454L17.3829 19.4679C17.1983 19.4904 16.9421 19.4833 16.6962 19.4764L16.6566 19.4753C14.8241 19.4249 13.0297 19.4444 11.2373 19.4639C9.50934 19.4827 7.78309 19.5015 6.0222 19.4562C5.95429 19.4545 5.87549 19.4547 5.79428 19.4549C5.59246 19.4554 5.38313 19.6127 5.36604 19.5344L1.75739 3.00534C1.72326 2.84881 1.69981 2.75853 1.67756 2.67269C1.61518 2.43214 1.57394 2.27319 2.05591 2.00739L2.06508 2.00423L2.28337 1.88059L2.2837 1.88124C2.57326 1.72581 2.81542 1.63421 3.0492 1.61897C3.28916 1.6033 3.56339 1.66193 3.92044 1.80674C4.9359 2.2186 5.60342 3.1067 6.0245 4.15363C6.64958 5.70771 6.7419 7.58733 6.6167 8.90407L6.61668 8.90408ZM8.91809 8.27809C9.31131 5.78822 8.65372 3.43432 7.53086 2.16107C9.30616 2.00811 10.8728 3.05756 11.1164 4.99386C11.2914 6.38733 10.2184 7.96457 8.91809 8.27809ZM6.02295 23.9451C5.89069 23.9382 5.64244 23.7578 5.62467 23.5458C5.56617 23.3795 5.60078 21.88 5.60078 21.6356H16.9401C17.5428 21.6344 17.63 21.6224 17.626 21.9292C17.6218 22.2424 17.6397 23.234 17.593 23.4348C17.5916 23.4406 17.4708 23.6931 17.4484 23.7222C17.2982 23.916 16.9951 23.9703 16.655 23.9767C13.1541 24.0437 9.53963 23.9451 6.02295 23.9451V23.9451ZM16.3145 9.37845C16.1968 9.81959 14.3966 11.8258 14.0916 12.1339C13.5403 12.691 12.9218 12.3566 12.7181 12.336L11.1498 12.0232L11.5902 13.7522C11.6624 13.9563 11.6735 14.1613 11.753 14.3327C12.4977 14.1531 14.4469 13.7958 15.1894 13.8974C15.7184 14.0784 18.0641 14.7889 18.4067 15.062C19.01 15.4938 19.0701 16.3726 18.6289 16.8294C18.531 16.9461 18.5698 16.9663 18.3876 17.0167C17.9899 16.6745 17.404 15.7509 16.0252 15.3094C15.0898 15.01 14.4265 14.9826 13.3521 15.1594C12.0036 15.3813 10.0323 15.7368 9.34182 15.6419C8.82292 15.5705 8.44919 15.1467 8.43299 14.5851C8.23538 13.0184 9.02195 10.8709 8.85687 9.15049C8.84988 9.07761 8.91978 9.03275 9.03799 9.02206C9.41001 8.98837 11.9337 9.70081 12.6541 9.7893C12.8435 9.8125 12.9095 9.78591 13.0274 9.65939C13.0358 9.6502 13.0461 9.63465 13.0543 9.62492C13.2723 9.368 14.2455 8.1753 14.5054 8.00487C14.942 7.71863 15.5203 7.77684 15.9165 8.08903C16.2782 8.45698 16.4694 8.79823 16.3145 9.37845H16.3145ZM7.91478 11.0791C8.0131 10.3931 8.1099 9.71772 8.17225 9.06222C8.31671 7.543 8.20525 5.36205 7.46985 3.5337C6.89921 2.11496 5.96024 0.89756 4.48998 0.301253C3.91236 0.0669452 3.42765 -0.0251761 2.95119 0.00590389C2.46856 0.0373892 2.03659 0.190049 1.56101 0.445304L1.5457 0.454788L1.31179 0.587263L1.31259 0.588787C-0.258442 1.45784 -0.0900307 2.10762 0.164837 3.09017C0.19179 3.19409 0.220232 3.30366 0.232412 3.35956L3.84106 19.8886C4.09948 21.0721 5.02625 21.0698 5.79428 21.0679C5.85848 21.0678 5.92076 21.0676 5.98545 21.0693C7.76091 21.1149 9.50436 21.0959 11.2495 21.0769C13.0244 21.0576 14.8012 21.0383 16.6199 21.0883L16.6595 21.0894C17.1034 21.1018 17.5715 21.1148 17.9863 20.9823C18.7758 20.7303 19.2326 20.1853 18.8779 18.9962C18.6681 18.2333 18.0318 17.2199 17.0264 16.5472C16.2696 16.0408 15.3052 15.7132 14.1584 15.8054C13.8027 15.834 13.2467 15.9302 12.5947 16.0431C11.0616 16.3086 8.94381 16.6752 8.31895 16.3928C8.18019 16.33 8.03902 16.0826 7.91492 15.773C7.69392 15.2216 7.58836 14.5627 7.59021 14.1487C7.59406 13.3168 7.75644 12.1839 7.91478 11.0791V11.0791ZM17.4436 19.4589C17.5039 19.4445 17.5801 19.422 17.527 19.4389C17.5023 19.4468 17.4743 19.4534 17.4436 19.4589Z" fill="#2DA5E1"/>
</g>
<defs>
<clipPath id="clip0">
<rect width="19" height="24" fill="white" transform="matrix(-1 0 0 1 19 0)"/>
</clipPath>
</defs>
</svg>
