<svg width="30" height="30" viewBox="0 0 30 30" fill="none" xmlns="http://www.w3.org/2000/svg">
<g clip-path="url(#clip0)">
<path d="M7.81923 16.9869C7.20354 16.9869 6.70264 17.4878 6.70264 18.1035C6.70264 18.7192 7.20354 19.22 7.81923 19.22C8.43492 19.22 8.93581 18.7192 8.93581 18.1035C8.93581 17.4878 8.43492 16.9869 7.81923 16.9869ZM20.9164 16.9869C20.3008 16.9869 19.7999 17.4878 19.7999 18.1035C19.7999 18.7192 20.3008 19.22 20.9164 19.22C21.5321 19.22 22.033 18.7192 22.033 18.1035C22.033 17.4878 21.5321 16.9869 20.9164 16.9869ZM25.9776 11.9954L22.5591 11.4471L19.1707 8.0463C18.7943 7.66848 18.1828 7.66739 17.805 8.04377C17.4272 8.42021 17.4261 9.03167 17.8026 9.40944L19.7597 11.3738H15.9974V10.5288C15.9974 9.9955 15.5651 9.56311 15.0318 9.56311C14.4984 9.56311 14.0661 9.9955 14.0661 10.5288V11.3738H10.0297L8.62202 8.93378C8.33847 8.4423 7.7101 8.34211 7.30252 8.52161L2.49717 10.638C1.13814 11.2365 0.218435 12.5169 0.0813665 13.961C-0.0239545 14.2062 0.00320564 14.1449 0.00320564 16.69C0.00320564 17.779 0.958397 18.9734 2.32721 19.0379C2.36427 19.0396 3.75583 19.039 3.79295 19.039C4.21816 20.8693 5.8614 22.2378 7.81929 22.2378C9.77717 22.2378 11.4204 20.8693 11.8456 19.039H16.8902C17.3154 20.8693 18.9586 22.2378 20.9166 22.2378C22.8745 22.2378 24.5176 20.8693 24.9429 19.039H27.6953C28.9441 19.039 30.0001 18.0305 30.0001 16.7145C30 14.3664 28.2927 12.3668 25.9776 11.9954ZM7.81923 20.3065C6.60451 20.3065 5.61624 19.3182 5.61624 18.1035C5.61624 16.8887 6.60451 15.9005 7.81923 15.9005C9.03395 15.9005 10.0222 16.8887 10.0222 18.1035C10.0222 19.3182 9.03395 20.3065 7.81923 20.3065ZM20.9164 20.3065C19.7017 20.3065 18.7135 19.3182 18.7135 18.1035C18.7135 16.8887 19.7017 15.9005 20.9164 15.9005C22.1312 15.9005 23.1194 16.8887 23.1194 18.1035C23.1194 19.3182 22.1312 20.3065 20.9164 20.3065ZM27.6951 17.1076H24.9288C24.4818 15.3075 22.8528 13.9691 20.9164 13.9691C18.9801 13.9691 17.351 15.3075 16.9041 17.1076H11.8316C11.3846 15.3075 9.75556 13.9691 7.81923 13.9691C5.88289 13.9691 4.25383 15.3075 3.80689 17.1076H2.40157C2.16666 17.088 1.96797 16.8887 1.93453 16.6413V14.6512C1.97437 14.5425 1.99422 14.4301 1.99495 14.3227C2.00056 13.4982 2.50327 12.7457 3.27564 12.4056L7.35793 10.6076L8.63548 12.822C8.80792 13.121 9.12684 13.3051 9.47195 13.3051H21.9487L25.6717 13.9023C26.1887 13.9853 26.6527 14.2013 27.0318 14.5122H26.6804C26.1471 14.5122 25.7147 14.9446 25.7147 15.4779C25.7147 16.0112 26.1471 16.4436 26.6804 16.4436H28.0558C28.0641 16.5328 28.0686 16.6231 28.0686 16.7144C28.0686 16.9539 27.89 17.1076 27.6951 17.1076Z" fill="#2DA5E1"/>
</g>
<defs>
<clipPath id="clip0">
<rect width="30" height="30" fill="white"/>
</clipPath>
</defs>
</svg>
