<svg width="30" height="16" viewBox="0 0 30 16" fill="none" xmlns="http://www.w3.org/2000/svg">
<g clip-path="url(#clip0)">
<path d="M7.77828 10.6598C7.16145 10.6598 6.65964 11.1692 6.65964 11.7954C6.65964 12.4215 7.16145 12.931 7.77828 12.931C8.39509 12.931 8.89692 12.4215 8.89692 11.7954C8.89692 11.1692 8.39503 10.6598 7.77828 10.6598ZM20.8996 10.6598C20.2828 10.6598 19.781 11.1692 19.781 11.7954C19.781 12.4215 20.2828 12.931 20.8996 12.931C21.5164 12.931 22.0182 12.4215 22.0182 11.7954C22.0182 11.1692 21.5163 10.6598 20.8996 10.6598ZM25.9662 5.58455L22.5508 5.03116L19.1507 1.56695C18.7736 1.18268 18.1609 1.18157 17.7825 1.56437C17.404 1.94721 17.4029 2.56911 17.78 2.95329L19.7414 4.95176C18.3235 4.95254 17.18 4.95386 15.9715 4.95495L14.0366 4.95604C12.5377 4.95623 11.3277 4.95396 10.2876 4.94547L8.35269 4.91836C6.88142 4.88667 5.66658 4.82966 4.12003 4.72911V1.34154C4.12003 0.799137 3.68684 0.359406 3.15256 0.359406C2.61825 0.359406 2.18509 0.799137 2.18509 1.34154V4.65642C1.40808 4.77464 0.726379 5.28694 0.405533 6.03097C-0.0913242 7.18346 0.00825022 7.85136 0.00814874 10.3332C0.00808785 11.6201 1.04252 12.6753 2.31399 12.6853L3.7331 12.6965C4.14071 14.5832 5.79911 16 7.77824 16C9.73975 16 11.386 14.6082 11.812 12.7467L16.8659 12.7467C17.2919 14.6082 18.9381 16 20.8996 16C22.8611 16 24.5073 14.6082 24.9334 12.7467H27.6849C28.9482 12.7467 30 11.7064 30 10.3845C29.9998 7.99489 28.2871 5.96059 25.9662 5.58455H25.9662ZM7.77828 14.0358C6.56133 14.0358 5.57122 13.0308 5.57122 11.7953C5.57122 10.5599 6.56131 9.55486 7.77828 9.55486C8.99524 9.55486 9.98532 10.5599 9.98532 11.7953C9.98532 13.0307 8.99526 14.0358 7.77828 14.0358ZM20.8996 14.0358C19.6826 14.0358 18.6925 13.0308 18.6925 11.7953C18.6925 10.5599 19.6826 9.55486 20.8996 9.55486C22.1165 9.55486 23.1066 10.5599 23.1066 11.7953C23.1066 13.0307 22.1166 14.0358 20.8996 14.0358ZM27.6848 10.7825H24.9193C24.4715 8.95178 22.8395 7.59058 20.8996 7.59058C18.9597 7.59058 17.3276 8.95176 16.8799 10.7825H11.7981C11.3503 8.95178 9.71824 7.59058 7.77832 7.59058C5.85602 7.59058 4.23564 8.92702 3.77064 10.7326L2.32915 10.7212C2.11626 10.7195 1.94313 10.5455 1.94313 10.3333C1.94325 7.87129 1.87015 7.53301 2.17816 6.81863C2.24045 6.67425 2.39193 6.58438 2.55541 6.59513C8.45602 6.98136 8.18277 6.91561 21.9032 6.91538L25.6614 7.52423C26.1793 7.60813 26.6442 7.82734 27.0241 8.14303H26.7393C26.205 8.14303 25.7719 8.58278 25.7719 9.12516C25.7719 9.66755 26.205 10.1073 26.7393 10.1073H28.052C28.0605 10.1986 28.065 10.2911 28.065 10.3846C28.0649 10.6184 27.886 10.7825 27.6847 10.7825V10.7825H27.6848Z" fill="#2DA5E1"/>
<path d="M16.791 2.22387L19.0301 0.524303L19.4632 0.195607C19.8911 -0.129195 20.4974 -0.0403297 20.8173 0.394065C21.1373 0.82846 21.0497 1.44396 20.6218 1.76875L20.1888 2.09746L17.9496 3.79701L17.5166 4.12572C17.0887 4.4505 16.4823 4.36164 16.1624 3.92724C15.8425 3.49285 15.93 2.87737 16.3579 2.55256L16.791 2.22387Z" fill="#2DA5E1"/>
</g>
<defs>
<clipPath id="clip0">
<rect width="30" height="16" fill="white"/>
</clipPath>
</defs>
</svg>
