<svg width="26" height="26" viewBox="0 0 26 26" fill="none" xmlns="http://www.w3.org/2000/svg">
<path d="M25.1613 1.43573H17.4032C16.94 1.43573 16.5645 1.81126 16.5645 2.27444C16.5645 2.73762 16.94 3.11315 17.4032 3.11315H20.4435V10.5498L15.2168 13.9419C15.0158 14.0723 14.8803 14.2824 14.8442 14.5192L14.5617 16.3752H8.86448C8.48507 14.7841 7.05239 13.597 5.34677 13.597C3.64115 13.597 2.20843 14.7841 1.82907 16.3752H0.83871C0.37548 16.3752 0 16.7508 0 17.214C0 17.6771 0.37548 18.0527 0.83871 18.0527H1.82907C2.20843 19.6438 3.64115 20.8309 5.34677 20.8309C7.05239 20.8309 8.48512 19.6438 8.86448 18.0527H17.7646C18.1439 19.6438 19.5766 20.8309 21.2823 20.8309C23.2767 20.8309 24.8992 19.2084 24.8992 17.214C24.8992 15.5083 23.7121 14.0756 22.121 13.6962V3.11315H25.1613C25.6245 3.11315 26 2.73762 26 2.27444C26 1.81126 25.6245 1.43573 25.1613 1.43573ZM16.4459 15.1439L20.4435 12.5495V13.6962C19.1218 14.0114 18.0797 15.0535 17.7646 16.3752H16.2585L16.4459 15.1439ZM5.34677 19.1535C4.27731 19.1535 3.40726 18.2834 3.40726 17.214C3.40726 16.1445 4.27731 15.2744 5.34677 15.2744C6.41623 15.2744 7.28629 16.1445 7.28629 17.214C7.28629 18.2834 6.41623 19.1535 5.34677 19.1535ZM23.2218 17.214C23.2218 18.2834 22.3517 19.1535 21.2823 19.1535C20.2128 19.1535 19.3427 18.2834 19.3427 17.214C19.3427 16.1445 20.2128 15.2744 21.2823 15.2744C22.3517 15.2744 23.2218 16.1445 23.2218 17.214ZM5.34677 16.1656C4.76869 16.1656 4.29839 16.6359 4.29839 17.214C4.29839 17.792 4.76869 18.2623 5.34677 18.2623C5.92485 18.2623 6.39516 17.792 6.39516 17.214C6.39516 16.6359 5.92485 16.1656 5.34677 16.1656ZM20.2339 17.214C20.2339 17.792 20.7042 18.2623 21.2823 18.2623C21.8603 18.2623 22.3306 17.792 22.3306 17.214C22.3306 16.6359 21.8603 16.1656 21.2823 16.1656C20.7042 16.1656 20.2339 16.6359 20.2339 17.214Z" fill="#2DA5E1"/>
</svg>
