<svg width="30" height="18" viewBox="0 0 30 18" fill="none" xmlns="http://www.w3.org/2000/svg">
<g clip-path="url(#clip0)">
<path d="M23.0545 6.47674L21.4725 1.86415H22.8027C23.3372 1.86415 23.7704 1.44691 23.7704 0.93213C23.7704 0.417353 23.3372 9.15527e-05 22.8027 9.15527e-05H20.1337C19.4753 9.15527e-05 19.008 0.621523 19.2149 1.22449L20.1633 3.98973L12.9691 7.63981L11.609 5.46362H11.8526C12.387 5.46362 12.8203 5.04638 12.8203 4.5316C12.8203 4.01682 12.387 3.59956 11.8526 3.59956H8.82851C8.29403 3.59956 7.8608 4.01682 7.8608 4.5316C7.8608 5.04638 8.29403 5.46362 8.82851 5.46362H9.35015L11.2539 8.50998L10.7965 8.74208C8.7478 6.1535 4.55602 5.4486 1.76647 8.13533C-0.588196 10.4032 -0.589286 14.0299 1.76647 16.2988C5.18851 19.5948 10.9542 17.8192 11.8863 13.3765C11.9682 12.9859 12.0321 11.6503 11.8953 11.104C11.8339 10.8585 11.7783 10.6163 11.698 10.3843L20.7859 5.80518L20.893 6.11747L20.9018 6.14304L20.9387 6.25047L21.2155 7.05783C19.2856 8.02418 17.9642 9.96816 17.9642 12.204C17.9642 15.4 20.6638 18.0001 23.9821 18.0001C27.3003 18.0001 30 15.4 30 12.204C30 8.6724 26.7207 5.92787 23.0545 6.47678L23.0545 6.47674ZM5.32978 11.5469C5.13753 11.7172 5.017 11.9615 5.017 12.233C5.017 12.7478 5.45021 13.165 5.98469 13.165C6.27937 13.1633 6.43628 13.0368 6.69415 12.9068L9.9496 11.2652C10.0932 11.8976 9.96744 13.1712 9.84366 13.5111C9.28754 15.0374 7.77684 16.135 6.0044 16.135L6.00442 16.1349C3.76139 16.1349 1.93655 14.3774 1.93655 12.217C1.93655 10.0567 3.76141 8.29912 6.00442 8.29912C7.2172 8.29912 8.3072 8.81317 9.05278 9.62679L5.65062 11.3529C5.51134 11.4236 5.44606 11.4439 5.32978 11.5469V11.5469ZM23.9821 16.1359C21.7309 16.1359 19.8996 14.3721 19.8996 12.2039C19.8996 10.7943 20.6741 9.55626 21.8343 8.86198L23.0779 12.4878C23.2123 12.8796 23.5905 13.1277 23.9965 13.1277C24.6534 13.1277 25.1228 12.5074 24.9156 11.9031L23.6744 8.28419C26.063 8.11182 28.0646 9.93779 28.0646 12.2039C28.0646 14.3721 26.2332 16.1359 23.9821 16.1359V16.1359L23.9821 16.1359Z" fill="#2DA5E1"/>
</g>
<defs>
<clipPath id="clip0">
<rect width="30" height="18" fill="white"/>
</clipPath>
</defs>
</svg>
