<svg width="26" height="22" viewBox="0 0 26 22" fill="none" xmlns="http://www.w3.org/2000/svg">
<g clip-path="url(#clip0)">
<path d="M24.1 17.4436C24.1274 17.3808 24.1512 17.3263 24.1739 17.2587C24.2542 17.019 24.3647 16.5577 24.4443 16.1037C24.5068 15.7466 24.549 15.4018 24.5394 15.1893C24.5149 14.6494 24.4336 14.1583 24.2812 13.6913C24.1298 13.2271 23.9066 12.7846 23.5976 12.3391L23.5979 12.3389C23.2461 11.8987 22.8785 11.505 22.4587 11.1737C22.0411 10.8442 21.5717 10.5777 21.014 10.3908C20.8305 10.3292 20.5939 10.2583 20.3609 10.2067C20.188 10.1683 20.0174 10.1405 19.8736 10.1352C19.8072 10.1327 19.736 10.1339 19.6658 10.135C19.5956 10.1361 19.5562 10.1372 19.5407 10.1372C18.336 10.1372 16.8491 10.1297 15.3596 10.1221C14.0477 10.1154 12.7331 10.1088 11.1526 10.1088V10.1079C10.6421 10.1109 10.1222 10.1076 9.59862 10.1044C8.36905 10.0966 7.119 10.0887 5.92397 10.1642C5.60199 10.1846 5.2661 10.3001 4.9487 10.4093L4.83487 10.448C4.67334 10.5029 4.48674 10.5831 4.30332 10.6743C4.1189 10.7659 3.93831 10.8685 3.79016 10.9676C3.76123 10.9869 3.7348 11.0053 3.70338 11.0279H3.70246C3.67023 11.051 3.64703 11.0683 3.6192 11.0893C3.40903 11.248 3.24196 11.4171 3.0549 11.6064C2.96948 11.6929 3.02998 11.6329 2.95301 11.7102L2.95285 11.71L2.94842 11.7149C2.33887 12.3814 2.29821 12.4259 1.85051 13.2992C1.69886 13.6862 1.60094 13.9955 1.53966 14.3142C1.4772 14.639 1.45118 14.9773 1.44387 15.4192C1.44072 15.6104 1.46941 15.8741 1.51356 16.1399C1.56339 16.4396 1.63147 16.7336 1.69515 16.9253C1.91988 17.6019 2.08017 17.8439 2.42004 18.357L2.49342 18.4679C2.56792 18.5537 2.60523 18.5993 2.63842 18.64L2.63786 18.6404C2.70395 18.7214 2.75529 18.7841 2.89632 18.9256C3.05447 19.0843 3.23442 19.2546 3.41977 19.4089C3.6025 19.561 3.79053 19.6986 3.96788 19.796L3.96798 19.7958L4.57477 20.1113C4.88175 20.2351 5.22288 20.3471 5.56533 20.4234C5.86148 20.4894 6.15918 20.5292 6.43696 20.5273C7.13492 20.5224 7.85106 20.42 8.51104 20.18C9.08046 19.973 9.60752 19.6634 10.0432 19.2252V19.2243L10.5108 18.7551L10.5127 18.7541C10.5865 18.6809 10.7713 18.4555 10.9254 18.2455C11.0289 18.1044 11.1131 17.9811 11.1228 17.9444L11.1697 17.7683H14.8203L14.8663 17.9472C14.8706 17.9638 14.9161 18.0362 14.9734 18.1229C15.0729 18.2735 15.1947 18.4375 15.2345 18.4835L15.5967 18.9039C15.8187 19.1282 16.0049 19.3079 16.2046 19.4649C16.4033 19.6211 16.6204 19.7594 16.9075 19.9041L16.9077 19.9038L17.6454 20.2371C17.9787 20.3681 18.2871 20.4432 18.6034 20.4842C18.9293 20.5264 19.2682 20.5338 19.6523 20.5289C19.8953 20.5259 20.187 20.4769 20.479 20.405C20.8348 20.3174 21.1862 20.1963 21.4512 20.0823C21.9209 19.8802 22.3538 19.6002 22.7396 19.2635C23.1434 18.9112 23.4959 18.4962 23.7856 18.0427C23.821 17.9872 23.8839 17.8768 23.9432 17.7666C23.9954 17.6697 24.0433 17.5758 24.0653 17.5239L24.0656 17.5241C24.0873 17.4728 24.0932 17.4593 24.1 17.4437L24.1 17.4436ZM19.3257 12.1907C19.8439 12.1907 20.2641 12.6124 20.2641 13.1325C20.2641 13.6527 19.8439 14.0744 19.3257 14.0744C18.8074 14.0744 18.3872 13.6527 18.3872 13.1325C18.3872 12.6124 18.8074 12.1907 19.3257 12.1907ZM19.3244 16.5694C19.8427 16.5694 20.2628 16.991 20.2628 17.5112C20.2628 18.0314 19.8427 18.453 19.3244 18.453C18.8061 18.453 18.3859 18.0314 18.3859 17.5112C18.3859 16.991 18.8061 16.5694 19.3244 16.5694ZM21.5201 14.3809C22.0384 14.3809 22.4585 14.8026 22.4585 15.3227C22.4585 15.8429 22.0384 16.2646 21.5201 16.2646C21.0018 16.2646 20.5816 15.8429 20.5816 15.3227C20.5816 14.8026 21.0018 14.3809 21.5201 14.3809ZM17.172 14.3809C17.6903 14.3809 18.1104 14.8026 18.1104 15.3227C18.1104 15.8429 17.6903 16.2646 17.172 16.2646C16.6537 16.2646 16.2335 15.8429 16.2335 15.3227C16.2335 14.8026 16.6537 14.3809 17.172 14.3809ZM6.62652 12.1552C7.02622 12.1552 7.35323 12.4834 7.35323 12.8845V14.5921H9.05463C9.45429 14.5921 9.78133 14.9203 9.78133 15.3214C9.78133 15.7226 9.45433 16.0508 9.05463 16.0508H7.35323V17.7583C7.35323 18.1595 7.02622 18.4877 6.62652 18.4877C6.22682 18.4877 5.89982 18.1595 5.89982 17.7583V16.0508H4.19843C3.79873 16.0508 3.47173 15.7226 3.47173 15.3214C3.47173 14.9203 3.79877 14.5921 4.19843 14.5921H5.89982V12.8845C5.89982 12.4834 6.22682 12.1552 6.62652 12.1552ZM11.2097 8.1215C11.2286 8.02799 11.2587 7.93962 11.305 7.87952C11.4749 7.64379 11.9048 7.59568 12.4166 7.58749V2.72791C11.9851 2.47623 11.695 2.00733 11.695 1.47039C11.695 0.667594 12.3434 0.016832 13.1433 0.0168152C13.9432 0.0168152 14.5916 0.667611 14.5916 1.47037C14.5916 2.00735 14.3015 2.47623 13.87 2.72791V7.56845C14.2448 7.55823 14.5572 7.56362 14.7352 7.66298C15.1664 7.90374 15.1626 8.21588 15.158 8.60262L15.158 8.60797L15.1864 8.6365V8.69656L19.7838 8.69807L19.792 8.69898C19.9037 8.71163 19.9801 8.71959 20.0551 8.72736C20.5612 8.77993 21.0002 8.82555 21.5378 9.04652L21.5377 9.04684C22.4539 9.42336 23.2578 9.90835 23.9248 10.5297C24.5955 11.1547 25.1274 11.9169 25.4954 12.8443C25.6051 13.1206 25.7312 13.5189 25.8223 13.9157C25.8975 14.2432 25.9502 14.5754 25.9527 14.8479L25.9528 14.8721L25.9832 14.9129V15.7808L25.9535 15.8202C25.9543 15.8405 25.9547 15.8667 25.9546 15.9016L25.9546 15.9216L25.9479 15.9637C25.8015 16.8852 25.6742 17.6862 25.1668 18.5132L25.1659 18.5151C24.7866 19.1186 24.401 19.6425 23.9505 20.0965C23.4953 20.5555 22.9772 20.9407 22.3381 21.261C21.3877 21.7373 20.3707 21.9799 19.3518 21.9832C18.3406 21.9865 17.3303 21.7538 16.3844 21.2799C15.8769 21.0257 15.4257 20.7164 15.0193 20.3561C14.6452 20.0244 14.3114 19.6508 14.0084 19.2383H11.9746C11.639 19.661 11.4243 19.9147 11.1816 20.1456C10.9211 20.3935 10.641 20.6035 10.1577 20.9562L10.1503 20.9609C9.62986 21.3102 9.05116 21.5569 8.44773 21.7177C7.78833 21.8933 7.09782 21.9663 6.42118 21.9587C5.99292 21.9539 5.52595 21.8974 5.07399 21.7927C4.64346 21.6931 4.22305 21.5493 3.85799 21.3643C3.22397 21.0431 2.67037 20.681 2.18485 20.2474C1.69757 19.8124 1.2792 19.3058 0.917392 18.6971C0.833598 18.5562 0.756228 18.4138 0.685349 18.2698C0.615292 18.1275 0.549662 17.9794 0.488494 17.8251C0.358225 17.4969 0.249306 17.1549 0.170896 16.8078C0.0975348 16.4829 0.0505056 16.1524 0.0371885 15.8229L0.0332135 15.727C0.0132043 15.2489 -0.00531216 14.8058 0.083899 14.3116C0.0916478 14.2687 0.0985411 14.226 0.105267 14.1843V14.1834C0.111741 14.1434 0.117997 14.1047 0.129452 14.0426C0.153923 13.9099 0.182939 13.7739 0.215359 13.6446C0.245549 13.5242 0.280586 13.4019 0.319951 13.2839C0.3755 13.1174 0.457113 12.9097 0.543976 12.7095C0.630169 12.5108 0.722868 12.3165 0.801798 12.1737C1.04712 11.7301 1.17129 11.5654 1.38133 11.2868C1.44094 11.2078 1.50556 11.1221 1.53784 11.0785C1.73079 10.818 1.98125 10.5684 2.24838 10.3404C2.51227 10.1151 2.78928 9.91294 3.04142 9.74317C3.51882 9.42162 4.03272 9.17026 4.5704 8.99412C5.10614 8.81863 5.66707 8.7174 6.24069 8.69545C7.4943 8.64756 8.87074 8.65604 10.1844 8.66416C10.5328 8.66631 10.8768 8.66845 11.2106 8.66946C11.2401 8.66953 11.2559 8.67028 11.2701 8.67096C11.3637 8.67538 11.1642 8.66527 11.1712 8.44114C11.1732 8.38173 11.1861 8.23818 11.2097 8.12156L11.2097 8.1215Z" fill="#2DA5E1" stroke="#2DA5E1" stroke-width="0.199983" stroke-miterlimit="22.9256"/>
</g>
<defs>
<clipPath id="clip0">
<rect width="26" height="22" fill="white"/>
</clipPath>
</defs>
</svg>
