<svg width="22" height="22" viewBox="0 0 22 22" fill="none" xmlns="http://www.w3.org/2000/svg">
<g clip-path="url(#clip0)">
<path d="M21.5625 3.90898C21.4819 3.70561 21.3043 3.55646 21.0901 3.5122C20.8756 3.46786 20.6537 3.53437 20.4991 3.68906L17.1478 7.04037L15.346 6.65296L14.9586 4.8512L18.3099 1.49985C18.4646 1.34516 18.531 1.12301 18.4868 0.908812C18.4425 0.69457 18.2933 0.517066 18.09 0.43637C15.7892 -0.476028 13.1717 0.0649484 11.4218 1.81472C10.5795 2.65708 10.001 3.71506 9.74905 4.87436C9.53352 5.86616 9.56377 6.89092 9.8346 7.86257L0.890914 16.8063C0.316379 17.3808 0 18.1447 0 18.9571C0 19.7696 0.316379 20.5335 0.890957 21.108C1.46545 21.6826 2.2293 21.999 3.0418 21.999C3.85425 21.999 4.61815 21.6826 5.19264 21.108L14.1364 12.1643C15.108 12.4352 16.1327 12.4654 17.1246 12.2499C18.2838 11.9979 19.3419 11.4194 20.1842 10.5771C21.934 8.82727 22.4749 6.20991 21.5625 3.90898ZM19.2652 9.65815C17.9398 10.9835 15.9404 11.4371 14.1713 10.8136C13.9354 10.7305 13.6727 10.7901 13.4958 10.967L4.27367 20.1891C3.94462 20.5182 3.50707 20.6994 3.04171 20.6994C2.57632 20.6994 2.13886 20.5182 1.80976 20.1891C1.4807 19.86 1.29946 19.4225 1.29946 18.9571C1.29946 18.4918 1.4807 18.0543 1.8098 17.7252L11.0319 8.50307C11.2088 8.32621 11.2684 8.06354 11.1853 7.82764C10.5618 6.05857 11.0153 4.05907 12.3407 2.73369C13.2774 1.79698 14.5286 1.29862 15.8038 1.29862C16.0713 1.29862 16.34 1.32054 16.6069 1.36501L13.7894 4.18247C13.6335 4.33841 13.5673 4.56283 13.6136 4.77849L14.1636 7.33655C14.2173 7.58637 14.4124 7.78149 14.6622 7.8352L17.2203 8.3852C17.4361 8.43157 17.6604 8.36535 17.8164 8.20937L20.6338 5.39191C20.8901 6.93118 20.3984 8.52494 19.2652 9.65815Z" fill="#2DA5E1"/>
</g>
<defs>
<clipPath id="clip0">
<rect width="22" height="22" fill="white"/>
</clipPath>
</defs>
</svg>
