<svg width="11" height="11" viewBox="0 0 11 11" fill="none" xmlns="http://www.w3.org/2000/svg">
<path d="M5.5 0C2.4673 0 0 2.46733 0 5.50003C0 8.53273 2.4673 11 5.5 11C8.5327 11 11 8.53273 11 5.50003C11 2.46733 8.5327 0 5.5 0ZM5.5 10C3.01867 10 1 7.98133 1 5.50003C1 3.01873 3.01867 1 5.5 1C7.98133 1 10 3.01873 10 5.50003C10 7.98133 7.9813 10 5.5 10Z" fill="#2DA5E1"/>
<path d="M5.49954 2.33325C5.13201 2.33325 4.83301 2.63245 4.83301 3.00022C4.83301 3.36765 5.13201 3.66658 5.49954 3.66658C5.86707 3.66658 6.16607 3.36765 6.16607 3.00022C6.16607 2.63245 5.86707 2.33325 5.49954 2.33325Z" fill="#2DA5E1"/>
<path d="M5.50098 4.66675C5.22484 4.66675 5.00098 4.89061 5.00098 5.16675V8.16675C5.00098 8.44288 5.22484 8.66675 5.50098 8.66675C5.77711 8.66675 6.00098 8.44288 6.00098 8.16675V5.16675C6.00098 4.89061 5.77711 4.66675 5.50098 4.66675Z" fill="#2DA5E1"/>
</svg>
