<svg width="22" height="22" viewBox="0 0 22 22" fill="none" xmlns="http://www.w3.org/2000/svg">
<path d="M20.2547 4.11859C19.1159 2.88341 17.5532 2.20312 15.8543 2.20312C14.5844 2.20312 13.4214 2.60461 12.3975 3.39635C11.8809 3.79599 11.4127 4.28493 11 4.85561C10.5874 4.2851 10.1191 3.79599 9.60234 3.39635C8.57864 2.60461 7.41563 2.20312 6.14571 2.20312C4.44676 2.20312 2.88394 2.88341 1.7451 4.11859C0.619858 5.33934 0 7.00706 0 8.81477C0 10.6754 0.693375 12.3785 2.18201 14.1748C3.5137 15.7816 5.42766 17.4127 7.64407 19.3015C8.40089 19.9465 9.25876 20.6777 10.1495 21.4565C10.3848 21.6626 10.6868 21.7761 11 21.7761C11.313 21.7761 11.6152 21.6626 11.8501 21.4568C12.7409 20.6778 13.5993 19.9464 14.3564 19.301C16.5725 17.4126 18.4865 15.7816 19.8182 14.1746C21.3068 12.3785 22 10.6754 22 8.81461C22 7.00706 21.3801 5.33934 20.2547 4.11859Z" fill="#C4C4C4"/>
</svg>
