<svg width="22" height="22" viewBox="0 0 22 22" fill="none" xmlns="http://www.w3.org/2000/svg">
<path d="M18.04 11.3623C18.04 10.9223 17.7035 10.5859 17.2635 10.5859C16.8235 10.5859 16.487 10.9223 16.487 11.3623C16.487 14.3906 14.0282 16.8494 11 16.8494C7.97176 16.8494 5.51293 14.3906 5.51293 11.3623C5.51293 10.9223 5.17646 10.5859 4.73646 10.5859C4.29646 10.5859 3.95999 10.9223 3.95999 11.3623C3.95999 14.96 6.65176 17.9882 10.2235 18.3765V20.4471H7.40234C6.96234 20.4471 6.62587 20.7835 6.62587 21.2235C6.62587 21.6635 6.96234 22 7.40234 22H14.5976C15.0376 22 15.3741 21.6635 15.3741 21.2235C15.3741 20.7835 15.0376 20.4471 14.5976 20.4471H11.7765V18.3765C15.3482 17.9882 18.04 14.96 18.04 11.3623Z" fill="#2DA5E1"/>
<path d="M11 0C8.61882 0 6.67764 1.94118 6.67764 4.32235V11.3365C6.67764 13.7435 8.61882 15.6588 11 15.6847C13.3812 15.6847 15.3223 13.7435 15.3223 11.3624V4.32235C15.3223 1.94118 13.3812 0 11 0Z" fill="#2DA5E1"/>
</svg>
