<svg width="16" height="14" viewBox="0 0 16 14" fill="none" xmlns="http://www.w3.org/2000/svg">
<path d="M15.1006 5.74527L15.1256 5.75074H4.41913L7.78485 2.3776C7.94966 2.21292 8.04007 1.98983 8.04007 1.75568C8.04007 1.52153 7.94966 1.30001 7.78485 1.13493L7.26114 0.610964C7.09646 0.446281 6.87701 0.355225 6.643 0.355225C6.40885 0.355225 6.18927 0.445631 6.02459 0.610314L0.255093 6.37929C0.0897596 6.54462 -0.000646921 6.76485 3.48506e-06 6.99913C-0.000646921 7.23471 0.0897596 7.45506 0.255093 7.62014L6.02459 13.3896C6.18927 13.5542 6.40872 13.6447 6.643 13.6447C6.87701 13.6447 7.09646 13.5541 7.26114 13.3896L7.78485 12.8657C7.94966 12.7012 8.04007 12.4817 8.04007 12.2475C8.04007 12.0135 7.94966 11.8055 7.78485 11.6409L4.38114 8.24895H15.1126C15.5948 8.24895 16 7.83334 16 7.35139V6.61032C16 6.12836 15.5828 5.74527 15.1006 5.74527Z" fill="#0077FA"/>
</svg>
