<svg width="24" height="9" viewBox="0 0 24 9" fill="none" xmlns="http://www.w3.org/2000/svg">
<path d="M5.36719 6.57422H5.50781V1.71094C5.50781 1.58594 5.51562 1.46875 5.53125 1.35938C5.54688 1.24609 5.58008 1.14844 5.63086 1.06641C5.68555 0.984375 5.76367 0.919922 5.86523 0.873047C5.9707 0.822266 6.11328 0.796875 6.29297 0.796875C6.49219 0.796875 6.64844 0.822266 6.76172 0.873047C6.87891 0.919922 6.9668 0.984375 7.02539 1.06641C7.08398 1.14844 7.12109 1.24609 7.13672 1.35938C7.15234 1.46875 7.16016 1.58594 7.16016 1.71094V7.65234C7.16016 7.82422 7.1543 7.99023 7.14258 8.15039C7.13477 8.31055 7.10352 8.45508 7.04883 8.58398C6.99805 8.70898 6.91211 8.81055 6.79102 8.88867C6.67383 8.96289 6.50781 9 6.29297 9H5.51953C5.33594 9 5.18164 8.96484 5.05664 8.89453C4.93555 8.82031 4.83398 8.73242 4.75195 8.63086C4.66992 8.52539 4.60352 8.41602 4.55273 8.30273C4.50586 8.18945 4.46875 8.09375 4.44141 8.01562L2.67188 3.22266H2.53125V8.08594C2.53125 8.21094 2.52344 8.33008 2.50781 8.44336C2.49219 8.55273 2.45703 8.64844 2.40234 8.73047C2.35156 8.8125 2.27344 8.87891 2.16797 8.92969C2.06641 8.97656 1.92578 9 1.74609 9C1.54297 9 1.38281 8.97656 1.26562 8.92969C1.14844 8.87891 1.06055 8.8125 1.00195 8.73047C0.943359 8.64844 0.90625 8.55273 0.890625 8.44336C0.875 8.33008 0.867188 8.21094 0.867188 8.08594V2.14453C0.867188 1.97656 0.871094 1.8125 0.878906 1.65234C0.890625 1.48828 0.923828 1.34375 0.978516 1.21875C1.0332 1.08984 1.11914 0.988281 1.23633 0.914062C1.35742 0.835938 1.52734 0.796875 1.74609 0.796875H2.51953C2.71484 0.796875 2.87305 0.835938 2.99414 0.914062C3.11914 0.988281 3.2207 1.07031 3.29883 1.16016C3.38477 1.26562 3.45312 1.38672 3.50391 1.52344L5.36719 6.57422ZM11.9648 0.796875C12.1211 0.796875 12.2793 0.802734 12.4395 0.814453C12.5996 0.826172 12.7441 0.859375 12.873 0.914062C13.002 0.96875 13.1074 1.05273 13.1895 1.16602C13.2715 1.27539 13.3125 1.42969 13.3125 1.62891C13.3125 1.82812 13.2715 1.98438 13.1895 2.09766C13.1074 2.20703 13.002 2.28906 12.873 2.34375C12.7441 2.39844 12.5996 2.43164 12.4395 2.44336C12.2793 2.45508 12.1211 2.46094 11.9648 2.46094H10.5703V4.05469H11.3086C11.4648 4.05469 11.6211 4.06055 11.7773 4.07227C11.9375 4.08008 12.0781 4.11133 12.1992 4.16602C12.3242 4.2168 12.4258 4.29688 12.5039 4.40625C12.582 4.51172 12.6211 4.66016 12.6211 4.85156C12.6211 5.04688 12.582 5.19727 12.5039 5.30273C12.4258 5.4082 12.3242 5.48828 12.1992 5.54297C12.0781 5.59375 11.9375 5.625 11.7773 5.63672C11.6211 5.64453 11.4648 5.64844 11.3086 5.64844H10.5703V7.33594H11.9648C12.1211 7.33594 12.2793 7.3418 12.4395 7.35352C12.5996 7.36523 12.7441 7.39844 12.873 7.45312C13.002 7.50391 13.1074 7.58594 13.1895 7.69922C13.2715 7.80859 13.3125 7.96094 13.3125 8.15625C13.3125 8.35938 13.2695 8.51758 13.1836 8.63086C13.1016 8.74414 12.9961 8.82812 12.8672 8.88281C12.7383 8.9375 12.5938 8.9707 12.4336 8.98242C12.2734 8.99414 12.1172 9 11.9648 9H9.66797C9.44922 9 9.2793 8.96094 9.1582 8.88281C9.04102 8.80469 8.95508 8.70312 8.90039 8.57812C8.8457 8.44922 8.8125 8.30469 8.80078 8.14453C8.79297 7.98438 8.78906 7.82031 8.78906 7.65234V2.14453C8.78906 1.97656 8.79297 1.8125 8.80078 1.65234C8.8125 1.49219 8.8457 1.34961 8.90039 1.22461C8.95508 1.0957 9.04102 0.992188 9.1582 0.914062C9.2793 0.835938 9.44922 0.796875 9.66797 0.796875H11.9648ZM18.6797 0.832031C18.7891 0.832031 18.8906 0.851562 18.9844 0.890625C19.082 0.929688 19.168 0.984375 19.2422 1.05469C19.3203 1.12109 19.3867 1.20312 19.4414 1.30078C19.4961 1.39453 19.5352 1.49609 19.5586 1.60547L20.5664 6.28125H20.7656C20.9297 5.51953 21.0977 4.74219 21.2695 3.94922C21.4414 3.15234 21.6133 2.37109 21.7852 1.60547C21.8203 1.45703 21.873 1.32227 21.9434 1.20117C22.0059 1.09961 22.0918 1.00781 22.2012 0.925781C22.3145 0.839844 22.4609 0.796875 22.6406 0.796875C22.7773 0.796875 22.8965 0.822266 22.998 0.873047C23.1035 0.919922 23.1895 0.982422 23.2559 1.06055C23.3262 1.13477 23.377 1.2168 23.4082 1.30664C23.4434 1.39648 23.4609 1.48438 23.4609 1.57031C23.4609 1.61719 23.459 1.66211 23.4551 1.70508C23.4512 1.74805 23.4453 1.78516 23.4375 1.81641C23.4297 1.85547 23.4219 1.89062 23.4141 1.92188L21.8086 8.29688C21.75 8.42969 21.6719 8.54688 21.5742 8.64844C21.4922 8.73828 21.3848 8.82031 21.252 8.89453C21.123 8.96484 20.9609 9 20.7656 9H20.5664C20.3711 9 20.2109 8.96484 20.0859 8.89453C19.9609 8.82031 19.8613 8.73828 19.7871 8.64844C19.7012 8.54688 19.6367 8.42969 19.5938 8.29688L18.7734 4.86328H18.5742C18.4492 5.41797 18.3145 5.99023 18.1699 6.58008C18.0293 7.16992 17.8945 7.74219 17.7656 8.29688C17.7148 8.42969 17.6465 8.54688 17.5605 8.64844C17.4824 8.73828 17.3809 8.82031 17.2559 8.89453C17.1348 8.96484 16.9766 9 16.7812 9H16.582C16.3867 9 16.2207 8.96484 16.084 8.89453C15.9512 8.82031 15.8418 8.73828 15.7559 8.64844C15.6543 8.54688 15.5742 8.42969 15.5156 8.29688L13.9336 1.92188C13.9258 1.89062 13.918 1.85547 13.9102 1.81641C13.9023 1.78516 13.8965 1.74805 13.8926 1.70508C13.8887 1.66211 13.8867 1.61719 13.8867 1.57031C13.8867 1.48438 13.9023 1.39648 13.9336 1.30664C13.9688 1.2168 14.0195 1.13477 14.0859 1.06055C14.1562 0.982422 14.2422 0.919922 14.3438 0.873047C14.4492 0.822266 14.5703 0.796875 14.707 0.796875C14.8867 0.796875 15.0312 0.839844 15.1406 0.925781C15.2539 1.00781 15.3418 1.09961 15.4043 1.20117C15.4746 1.32227 15.5273 1.45703 15.5625 1.60547L16.582 6.28125H16.7812C16.8555 5.92188 16.9355 5.54492 17.0215 5.15039C17.1074 4.75195 17.1934 4.35156 17.2793 3.94922C17.3691 3.54297 17.457 3.14258 17.543 2.74805C17.6328 2.34961 17.7188 1.96875 17.8008 1.60547C17.8555 1.38281 17.9609 1.19922 18.1172 1.05469C18.2734 0.90625 18.4609 0.832031 18.6797 0.832031Z" fill="white"/>
</svg>
