<svg width="30" height="30" viewBox="0 0 30 30" fill="none" xmlns="http://www.w3.org/2000/svg">
<g clip-path="url(#clip0)">
<path d="M28.9816 13.858L26.9388 12.9739L25.2041 9.59823C24.7352 8.67393 23.7841 8.09792 22.746 8.10461H19.7587V7.26069C19.7587 5.73359 18.5397 4.48779 17.0126 4.48779H2.73289C1.20579 4.48779 0.000178215 5.74029 0.000178215 7.26069V20.1875C-0.0132174 21.1185 0.730241 21.882 1.66124 21.8954C1.66794 21.8954 1.67463 21.8954 1.68803 21.8954H2.04301C2.04301 21.9624 2.03632 21.9892 2.03632 22.0294C2.02962 23.945 3.57681 25.5055 5.49239 25.5122C7.40797 25.5189 8.96856 23.9717 8.97526 22.0562C8.97526 22.0428 8.97526 22.0361 8.97526 22.0227C8.97526 21.9758 8.97526 21.9557 8.96856 21.8887H20.5089C20.5089 21.9557 20.5089 21.9825 20.5089 22.0227C20.5022 23.9383 22.0494 25.4988 23.965 25.5055C25.8806 25.5122 27.4411 23.965 27.4478 22.0495C27.4478 22.0361 27.4478 22.0294 27.4478 22.016C27.4478 21.9691 27.4478 21.949 27.4478 21.882H28.3119C29.2429 21.882 29.9997 21.1252 29.9997 20.1942C29.9997 20.1875 29.9997 20.1808 29.9997 20.1674V15.4119C30.0131 14.7555 29.6112 14.1327 28.9816 13.858ZM5.51248 24.1794C4.33367 24.1794 3.38258 23.2283 3.38258 22.0495C3.38258 20.8707 4.33367 19.9196 5.51248 19.9196C6.6913 19.9196 7.64239 20.8707 7.64239 22.0495C7.64239 23.2216 6.6846 24.1794 5.51248 24.1794ZM18.4192 20.5693H8.65376C8.09114 19.3436 6.85875 18.5599 5.51248 18.5666C4.15952 18.5599 2.93382 19.3369 2.37121 20.5693H1.68803C1.4804 20.5693 1.33974 20.4085 1.33974 20.2009V16.7515H18.4192V20.5693ZM18.4192 7.26739V15.4119H1.33974V7.26739C1.33974 6.48374 1.94924 5.83405 2.73289 5.83405H17.0126C17.7963 5.84075 18.4259 6.48374 18.4192 7.26069V7.26739ZM19.7587 9.45088H22.746C23.2751 9.44418 23.7707 9.73219 24.0186 10.2077L25.3581 12.7998H19.7587V9.45088ZM23.9851 24.1794C22.8063 24.1794 21.8552 23.2283 21.8552 22.0495C21.8552 20.8707 22.8063 19.9196 23.9851 19.9196C25.1639 19.9196 26.115 20.8707 26.115 22.0495C26.115 23.2216 25.1639 24.1794 23.9851 24.1794ZM28.6668 20.2009C28.6668 20.4085 28.5262 20.5693 28.3186 20.5693H27.1263C26.3159 18.8345 24.253 18.0844 22.5182 18.8948C21.7815 19.2364 21.1854 19.8325 20.8438 20.5693H19.7587V14.1393H26.3226L28.4525 15.077C28.5865 15.144 28.6735 15.2914 28.6668 15.4387V20.2009Z" fill="#0077fa"/>
</g>
<defs>
<clipPath id="clip0">
<rect width="30" height="30" fill="white"/>
</clipPath>
</defs>
</svg>
