<svg width="24" height="24" viewBox="0 0 24 24" fill="none" xmlns="http://www.w3.org/2000/svg">
<g clip-path="url(#clip0)">
<path d="M22.1947 6.51178L22.194 6.4931C22.1835 6.26257 22.1766 6.01868 22.1724 5.74731C22.1528 4.42401 21.1008 3.32941 19.7773 3.25544C17.018 3.10145 14.8833 2.20167 13.0594 0.423903L13.0438 0.409072C12.4489 -0.136398 11.5515 -0.136398 10.9564 0.409072L10.9409 0.423903C9.11698 2.20167 6.98234 3.10145 4.22295 3.25562C2.89965 3.32941 1.84753 4.42401 1.82793 5.7475C1.8239 6.01703 1.81676 6.26092 1.80633 6.4931L1.80523 6.5365C1.75158 9.35027 1.68493 12.8522 2.85643 16.0307C3.5006 17.7786 4.47618 19.298 5.7559 20.547C7.21342 21.9693 9.12247 23.0985 11.43 23.9031C11.505 23.9293 11.583 23.9505 11.6625 23.9664C11.7746 23.9888 11.8874 23.9999 12.0001 23.9999C12.1129 23.9999 12.2259 23.9888 12.3378 23.9664C12.4173 23.9505 12.4958 23.9291 12.5713 23.9027C14.876 23.0967 16.783 21.9669 18.2393 20.5448C19.5184 19.2954 20.494 17.7757 21.1387 16.0274C22.3146 12.8393 22.2482 9.33086 22.1947 6.51178ZM19.8174 15.5401C18.5819 18.8902 16.0596 21.1909 12.1065 22.5734C12.0924 22.5781 12.0774 22.5823 12.0619 22.5855C12.021 22.5935 11.9795 22.5935 11.9381 22.5853C11.9227 22.5822 11.9077 22.5781 11.8938 22.5734C7.9365 21.1935 5.41258 18.8941 4.1779 15.5438C3.09813 12.6139 3.15929 9.39934 3.21331 6.56341L3.21367 6.54767C3.22466 6.30395 3.23198 6.0487 3.23601 5.76819C3.2448 5.1806 3.71282 4.69446 4.3015 4.66168C5.86302 4.57453 7.23484 4.27277 8.49533 3.7392C9.75418 3.20637 10.8722 2.45527 11.913 1.44307C11.9659 1.39839 12.0346 1.3982 12.0873 1.44307C13.1283 2.45527 14.2463 3.20637 15.505 3.7392C16.7655 4.27277 18.1373 4.57453 19.699 4.66168C20.2877 4.69446 20.7557 5.1806 20.7643 5.76837C20.7685 6.05035 20.7758 6.3056 20.7868 6.54767C20.8406 9.38689 20.9003 12.604 19.8174 15.5401Z" fill="#0077fa"/>
<path d="M11.9987 6.01926C8.70062 6.01926 6.01758 8.70248 6.01758 12.0004C6.01758 15.2985 8.70062 17.9817 11.9987 17.9817C15.2966 17.9817 17.9799 15.2985 17.9799 12.0004C17.9799 8.70248 15.2966 6.01926 11.9987 6.01926ZM11.9987 16.5733C9.47717 16.5733 7.42584 14.5219 7.42584 12.0004C7.42584 9.47885 9.47717 7.42752 11.9987 7.42752C14.5201 7.42752 16.5714 9.47885 16.5714 12.0004C16.5714 14.5219 14.5201 16.5733 11.9987 16.5733Z" fill="#0077fa"/>
<path d="M13.7185 10.1435L10.9404 12.9216L10.1864 12.1676C9.91139 11.8925 9.46553 11.8925 9.19051 12.1676C8.91566 12.4426 8.91566 12.8884 9.19051 13.1633L10.4426 14.4154C10.5801 14.5529 10.7603 14.6215 10.9404 14.6215C11.1206 14.6215 11.3008 14.5529 11.4383 14.4154L14.7144 11.1392C14.9893 10.8642 14.9893 10.4183 14.7144 10.1435C14.4394 9.8683 13.9935 9.8683 13.7185 10.1435Z" fill="#0077fa"/>
</g>
<defs>
<clipPath id="clip0">
<rect width="24" height="24" fill="white"/>
</clipPath>
</defs>
</svg>
