<svg width="24" height="24" viewBox="0 0 24 24" fill="none" xmlns="http://www.w3.org/2000/svg">
<path d="M22.6563 10.6587H22.0853V7.22804C22.0853 5.82525 20.9434 4.68826 19.5455 4.68826H19.0189L19.0238 3.41344C19.0238 2.4684 18.2559 1.70056 17.3109 1.70056H2.08203C0.945037 1.70056 0.0147662 2.61607 0 3.75306C0 3.76291 0 3.77275 0 3.7826V20.5865C0 21.5316 0.767842 22.2994 1.71288 22.2994H19.5505C20.9532 22.2994 22.0902 21.1575 22.0902 19.7596V16.324H22.6612C23.3995 16.324 24 15.7235 24 14.9852V11.9975C23.9951 11.2592 23.3946 10.6587 22.6563 10.6587ZM2.08203 2.88186H17.3109C17.6013 2.88186 17.8425 3.11812 17.8425 3.40852L17.8376 4.68826H2.08203C1.58491 4.68826 1.1813 4.28465 1.1813 3.78752C1.1813 3.29039 1.58491 2.88186 2.08203 2.88186ZM20.904 19.7547C20.904 20.5029 20.2937 21.1132 19.5455 21.1132H1.70796C1.41756 21.1132 1.17637 20.8769 1.17637 20.5816V5.66283C1.45201 5.79572 1.75718 5.86955 2.08203 5.86955H19.5455C20.2937 5.86955 20.904 6.47989 20.904 7.22804V10.6587H16.8728C16.1345 10.6587 15.534 11.2592 15.534 11.9975V14.9852C15.534 15.7235 16.1345 16.324 16.8728 16.324H20.904V19.7547ZM22.8138 14.9852C22.8138 15.0738 22.7449 15.1427 22.6563 15.1427H16.8778C16.7892 15.1427 16.7203 15.0738 16.7203 14.9852V11.9975C16.7203 11.9139 16.7892 11.84 16.8778 11.84H22.6563C22.74 11.84 22.8138 11.9089 22.8138 11.9975V14.9852Z" fill="#2DA5E1"/>
</svg>
