<svg width="24" height="24" viewBox="0 0 24 24" fill="none" xmlns="http://www.w3.org/2000/svg">
<g clip-path="url(#clip0)">
<path d="M19.5088 10.3089V2.66199C19.5088 1.6853 18.7141 0.890625 17.7375 0.890625H1.72449C0.747804 0.890625 -0.046875 1.6853 -0.046875 2.66199V18.675C-0.046875 19.6516 0.747804 20.4463 1.72449 20.4463H12.0366C13.2387 22.0809 15.1749 23.144 17.355 23.144C20.9933 23.144 23.9532 20.1839 23.9532 16.5456C23.9532 13.6613 22.0926 11.2037 19.5088 10.3089ZM11.4705 2.33258V6.34517L9.97908 5.79878C9.81887 5.74018 9.64309 5.74018 9.48305 5.79878L7.99165 6.34517V2.33258H11.4705ZM1.72449 19.0044C1.54285 19.0044 1.39508 18.8566 1.39508 18.675V2.66199C1.39508 2.48035 1.54285 2.33258 1.72449 2.33258H6.54951V7.37715C6.54951 7.61262 6.6645 7.83345 6.85768 7.96822C7.05067 8.10316 7.2975 8.13521 7.51851 8.05409L9.73098 7.24367L11.9434 8.05409C12.0238 8.08376 12.1079 8.09822 12.1914 8.09822C12.3371 8.09822 12.4816 8.05409 12.6043 7.96822C12.7975 7.83345 12.9124 7.61262 12.9124 7.37715V2.33258H17.7375C17.9191 2.33258 18.0669 2.48035 18.0669 2.66199V9.98586C17.833 9.96077 17.5956 9.94741 17.355 9.94741C13.7166 9.94741 10.7567 12.9075 10.7567 16.5456C10.7567 17.4143 10.9257 18.2441 11.2321 19.0044H1.72449ZM17.355 21.7021C14.5117 21.7021 12.1987 19.3889 12.1987 16.5456C12.1987 13.7025 14.5117 11.3895 17.355 11.3895C20.1982 11.3895 22.5112 13.7025 22.5112 16.5456C22.5112 19.3889 20.1982 21.7021 17.355 21.7021Z" fill="#2DA5E1"/>
<path d="M18.1404 13.5002H17.53C17.1317 13.5002 16.8089 13.823 16.8089 14.2211C16.8089 14.6193 17.1317 14.9421 17.53 14.9421H18.1404C18.644 14.9421 19.0536 15.3517 19.0536 15.8553C19.0536 16.359 18.644 16.7686 18.1404 16.7686H16.7961L16.9352 16.6417C17.2293 16.3733 17.2504 15.9174 16.9819 15.6231C16.7135 15.3289 16.2576 15.308 15.9633 15.5764L14.45 16.9569C14.3002 17.0935 14.2148 17.287 14.2148 17.4897C14.2148 17.6922 14.3002 17.8858 14.45 18.0223L15.9633 19.4028C16.1017 19.5289 16.2757 19.5912 16.4491 19.5912C16.6447 19.5912 16.8397 19.5121 16.9819 19.3561C17.2504 19.0618 17.2293 18.6059 16.9352 18.3375L16.7961 18.2106H18.1404C19.439 18.2106 20.4957 17.1541 20.4957 15.8553C20.4957 14.5567 19.439 13.5002 18.1404 13.5002Z" fill="#2DA5E1"/>
</g>
<defs>
<clipPath id="clip0">
<rect width="24" height="24" fill="white"/>
</clipPath>
</defs>
</svg>
