<svg width="78" height="14" viewBox="0 0 78 14" fill="none" xmlns="http://www.w3.org/2000/svg">
<g clip-path="url(#clip0)">
<path d="M13.9636 5.37035C13.8719 5.08687 13.6205 4.88552 13.323 4.85871L9.28222 4.49181L7.68438 0.751919C7.56657 0.477834 7.29825 0.300415 7.00013 0.300415C6.70201 0.300415 6.4337 0.477834 6.31588 0.75256L4.71805 4.49181L0.676621 4.85871C0.379677 4.88616 0.128877 5.08687 0.0366966 5.37035C-0.0554842 5.65384 0.0296468 5.96478 0.254277 6.16078L3.30863 8.83947L2.40797 12.8069C2.34207 13.0986 2.45529 13.4001 2.69733 13.5751C2.82743 13.6691 2.97964 13.7169 3.13314 13.7169C3.26548 13.7169 3.39675 13.6813 3.51457 13.6108L7.00013 11.5276L10.4844 13.6108C10.7394 13.7641 11.0608 13.7501 11.3023 13.5751C11.5444 13.3996 11.6576 13.0979 11.5917 12.8069L10.691 8.83947L13.7453 6.16131C13.97 5.96478 14.0557 5.65437 13.9636 5.37035Z" fill="#FFC107"/>
</g>
<g clip-path="url(#clip1)">
<path d="M29.9636 5.37035C29.8719 5.08687 29.6205 4.88552 29.323 4.85871L25.2822 4.49181L23.6844 0.751919C23.5666 0.477834 23.2983 0.300415 23.0001 0.300415C22.702 0.300415 22.4337 0.477834 22.3159 0.75256L20.718 4.49181L16.6766 4.85871C16.3797 4.88616 16.1289 5.08687 16.0367 5.37035C15.9445 5.65384 16.0296 5.96478 16.2543 6.16078L19.3086 8.83947L18.408 12.8069C18.3421 13.0986 18.4553 13.4001 18.6973 13.5751C18.8274 13.6691 18.9796 13.7169 19.1331 13.7169C19.2655 13.7169 19.3968 13.6813 19.5146 13.6108L23.0001 11.5276L26.4844 13.6108C26.7394 13.7641 27.0608 13.7501 27.3023 13.5751C27.5444 13.3996 27.6576 13.0979 27.5917 12.8069L26.691 8.83947L29.7453 6.16131C29.97 5.96478 30.0557 5.65437 29.9636 5.37035Z" fill="#FFC107"/>
</g>
<g clip-path="url(#clip2)">
<path d="M61.9636 5.37035C61.8719 5.08687 61.6205 4.88552 61.323 4.85871L57.2822 4.49181L55.6844 0.751919C55.5666 0.477834 55.2983 0.300415 55.0001 0.300415C54.702 0.300415 54.4337 0.477834 54.3159 0.75256L52.718 4.49181L48.6766 4.85871C48.3797 4.88616 48.1289 5.08687 48.0367 5.37035C47.9445 5.65384 48.0296 5.96478 48.2543 6.16078L51.3086 8.83947L50.408 12.8069C50.3421 13.0986 50.4553 13.4001 50.6973 13.5751C50.8274 13.6691 50.9796 13.7169 51.1331 13.7169C51.2655 13.7169 51.3968 13.6813 51.5146 13.6108L55.0001 11.5276L58.4844 13.6108C58.7394 13.7641 59.0608 13.7501 59.3023 13.5751C59.5444 13.3996 59.6576 13.0979 59.5917 12.8069L58.691 8.83947L61.7453 6.16131C61.97 5.96478 62.0557 5.65437 61.9636 5.37035Z" fill="#FFC107"/>
</g>
<g clip-path="url(#clip3)">
<path d="M45.9636 5.37035C45.8719 5.08687 45.6205 4.88552 45.323 4.85871L41.2822 4.49181L39.6844 0.751919C39.5666 0.477834 39.2983 0.300415 39.0001 0.300415C38.702 0.300415 38.4337 0.477834 38.3159 0.75256L36.718 4.49181L32.6766 4.85871C32.3797 4.88616 32.1289 5.08687 32.0367 5.37035C31.9445 5.65384 32.0296 5.96478 32.2543 6.16078L35.3086 8.83947L34.408 12.8069C34.3421 13.0986 34.4553 13.4001 34.6973 13.5751C34.8274 13.6691 34.9796 13.7169 35.1331 13.7169C35.2655 13.7169 35.3968 13.6813 35.5146 13.6108L39.0001 11.5276L42.4844 13.6108C42.7394 13.7641 43.0608 13.7501 43.3023 13.5751C43.5444 13.3996 43.6576 13.0979 43.5917 12.8069L42.691 8.83947L45.7453 6.16131C45.97 5.96478 46.0557 5.65437 45.9636 5.37035Z" fill="#FFC107"/>
</g>
<g clip-path="url(#clip4)">
<path d="M77.9636 5.37035C77.8719 5.08687 77.6205 4.88552 77.323 4.85871L73.2822 4.49181L71.6844 0.751919C71.5666 0.477834 71.2983 0.300415 71.0001 0.300415C70.702 0.300415 70.4337 0.477834 70.3159 0.75256L68.718 4.49181L64.6766 4.85871C64.3797 4.88616 64.1289 5.08687 64.0367 5.37035C63.9445 5.65384 64.0296 5.96477 64.2543 6.16078L67.3086 8.83947L66.408 12.8069C66.3421 13.0986 66.4553 13.4001 66.6973 13.5751C66.8274 13.6691 66.9796 13.7169 67.1331 13.7169C67.2655 13.7169 67.3968 13.6812 67.5146 13.6108L71.0001 11.5276L74.4844 13.6108C74.7394 13.7641 75.0608 13.7501 75.3023 13.5751C75.5444 13.3996 75.6576 13.0979 75.5917 12.8069L74.691 8.83947L77.7453 6.16131C77.97 5.96477 78.0557 5.65437 77.9636 5.37035Z" fill="#C4C4C4"/>
</g>
<defs>
<clipPath id="clip0">
<rect width="14" height="14" fill="white"/>
</clipPath>
<clipPath id="clip1">
<rect width="14" height="14" fill="white" transform="translate(16)"/>
</clipPath>
<clipPath id="clip2">
<rect width="14" height="14" fill="white" transform="translate(48)"/>
</clipPath>
<clipPath id="clip3">
<rect width="14" height="14" fill="white" transform="translate(32)"/>
</clipPath>
<clipPath id="clip4">
<rect width="14" height="14" fill="white" transform="translate(64)"/>
</clipPath>
</defs>
</svg>
