<svg width="26" height="26" viewBox="0 0 26 26" fill="none" xmlns="http://www.w3.org/2000/svg">
<g clip-path="url(#clip0_3_3544)">
<path d="M20.8203 21.582H0.761719C0.340988 21.582 0 21.241 0 20.8203V0.761719C0 0.340988 0.340988 0 0.761719 0H20.8203C21.241 0 21.582 0.340988 21.582 0.761719V20.8203C21.582 21.241 21.241 21.582 20.8203 21.582Z" fill="#0077FA"/>
<path d="M18.0146 26C13.6116 26 10.0293 22.4177 10.0293 18.0146C10.0293 13.6116 13.6116 10.0293 18.0146 10.0293C22.4177 10.0293 26 13.6116 26 18.0146C26 22.4177 22.4177 26 18.0146 26Z" fill="#00C941"/>
<path d="M18.0146 10.0293V26C22.4177 26 26 22.4177 26 18.0146C26 13.6116 22.4177 10.0293 18.0146 10.0293Z" fill="#00C941"/>
<path d="M19.1444 15.4374H17.0306L17.4754 14.9921C17.7725 14.6944 17.7721 14.212 17.4744 13.9148C17.1766 13.6177 16.6942 13.6179 16.397 13.9158L14.6501 15.666C14.5072 15.809 14.4273 16.0028 14.4275 16.2047C14.4277 16.4069 14.508 16.6005 14.651 16.7433L16.4014 18.4903C16.55 18.6386 16.7448 18.7128 16.9394 18.7128C17.1348 18.7128 17.3298 18.6383 17.4785 18.4893C17.7759 18.1915 17.7753 17.7093 17.4775 17.412L17.0257 16.9609H19.1444C19.9285 16.9609 20.5665 17.5988 20.5665 18.383V18.4333C20.5665 19.2175 19.9285 19.8554 19.1444 19.8554H15.5899C15.1692 19.8554 14.8282 20.1964 14.8282 20.6171C14.8282 21.0379 15.1692 21.3789 15.5899 21.3789H19.1444C20.7686 21.3789 22.0899 20.0575 22.0899 18.4333V18.383C22.0899 16.7588 20.7686 15.4374 19.1444 15.4374Z" fill="white"/>
<path d="M19.1443 15.4375H18.0146V16.9609H19.1443C19.9285 16.9609 20.5664 17.5989 20.5664 18.383V18.4334C20.5664 19.2175 19.9285 19.8555 19.1443 19.8555H18.0146V21.3789H19.1443C20.7685 21.3789 22.0898 20.0576 22.0898 18.4334V18.383C22.0898 16.7588 20.7685 15.4375 19.1443 15.4375Z" fill="white"/>
<path d="M2.225 6.25C2.225 5.73333 2.39667 5.30333 2.74 4.96C3.08 4.61667 3.515 4.445 4.045 4.445C4.575 4.445 5.01167 4.61167 5.355 4.945C5.69833 5.27833 5.87 5.71333 5.87 6.25C5.87 6.77333 5.69667 7.205 5.35 7.545C5.00333 7.885 4.56833 8.055 4.045 8.055C3.51833 8.055 3.08333 7.88833 2.74 7.555C2.39667 7.22167 2.225 6.78667 2.225 6.25ZM2.875 6.25C2.875 6.59667 2.98833 6.88833 3.215 7.125C3.44167 7.36167 3.71833 7.48 4.045 7.48C4.405 7.48 4.69167 7.36333 4.905 7.13C5.115 6.89333 5.22 6.6 5.22 6.25C5.22 5.88667 5.10833 5.59167 4.885 5.365C4.66167 5.135 4.38167 5.02 4.045 5.02C3.70833 5.02 3.43 5.135 3.21 5.365C2.98667 5.59167 2.875 5.88667 2.875 6.25ZM8.65668 6.895C8.65668 7.21833 8.54668 7.49167 8.32668 7.715C8.10668 7.94167 7.82335 8.055 7.47668 8.055C7.10001 8.055 6.80335 7.92667 6.58668 7.67C6.36668 7.41667 6.25668 7.07 6.25668 6.63C6.25668 5.67 6.54001 5.06667 7.10668 4.82C7.23335 4.76667 7.38168 4.72333 7.55168 4.69C7.74168 4.65333 7.86501 4.62 7.92168 4.59C8.03168 4.54333 8.12168 4.52 8.19168 4.52C8.28168 4.52 8.35001 4.55 8.39668 4.61C8.44335 4.67667 8.46668 4.73667 8.46668 4.79C8.46668 4.89 8.41668 4.97667 8.31668 5.05C8.19668 5.14 8.02835 5.20167 7.81168 5.235C7.58835 5.27167 7.42335 5.31667 7.31668 5.37C7.03001 5.5 6.87001 5.78 6.83668 6.21C6.91001 6.08667 7.02001 5.98667 7.16668 5.91C7.31335 5.83 7.46835 5.79 7.63168 5.79C7.94168 5.79 8.19001 5.89 8.37668 6.09C8.56335 6.29 8.65668 6.55833 8.65668 6.895ZM6.87168 6.75C6.87501 6.97667 6.93001 7.16167 7.03668 7.305C7.14335 7.44833 7.28501 7.52 7.46168 7.52C7.63501 7.52 7.77501 7.46333 7.88168 7.35C7.98835 7.23667 8.04168 7.09333 8.04168 6.92C8.04168 6.74333 7.99168 6.6 7.89168 6.49C7.79501 6.38 7.66001 6.325 7.48668 6.325C7.33668 6.325 7.20668 6.365 7.09668 6.445C6.98668 6.52167 6.91168 6.62333 6.87168 6.75ZM10.2014 7.235L9.71141 6.645V7.76C9.71141 7.83667 9.68307 7.90333 9.62641 7.96C9.57307 8.01333 9.50641 8.04 9.42641 8.04C9.34307 8.04 9.27307 8.01333 9.21641 7.96C9.16307 7.90333 9.13641 7.83667 9.13641 7.76V6.03C9.13641 5.93667 9.16474 5.86167 9.22141 5.805C9.27807 5.745 9.35141 5.715 9.44141 5.715C9.54807 5.715 9.65974 5.78333 9.77641 5.92L10.4214 6.71L11.0314 5.92C11.1381 5.78333 11.2464 5.715 11.3564 5.715C11.4464 5.715 11.5181 5.74167 11.5714 5.795C11.6247 5.845 11.6514 5.91167 11.6514 5.995V7.76C11.6514 7.83667 11.6231 7.90333 11.5664 7.96C11.5131 8.01333 11.4464 8.04 11.3664 8.04C11.2831 8.04 11.2131 8.01333 11.1564 7.96C11.1031 7.90333 11.0764 7.83667 11.0764 7.76V6.645L10.6064 7.235C10.5531 7.305 10.4864 7.34 10.4064 7.34C10.3297 7.34 10.2614 7.305 10.2014 7.235ZM13.8307 6.665V6.655C13.8307 6.51167 13.784 6.39667 13.6907 6.31C13.5974 6.22 13.4724 6.175 13.3157 6.175C12.989 6.175 12.7924 6.33833 12.7257 6.665H13.8307ZM14.1807 7.05H12.7457C12.769 7.21333 12.8407 7.34167 12.9607 7.435C13.084 7.52833 13.2374 7.575 13.4207 7.575C13.5707 7.575 13.7107 7.54667 13.8407 7.49C13.8907 7.46667 13.934 7.455 13.9707 7.455C14.044 7.455 14.104 7.49 14.1507 7.56C14.174 7.59667 14.1857 7.63333 14.1857 7.67C14.1857 7.75333 14.1474 7.81833 14.0707 7.865C13.854 7.99167 13.6174 8.055 13.3607 8.055C13.0007 8.055 12.709 7.94667 12.4857 7.73C12.2624 7.51667 12.1507 7.23167 12.1507 6.875C12.1507 6.53833 12.259 6.25667 12.4757 6.03C12.689 5.80667 12.9774 5.695 13.3407 5.695C13.6407 5.695 13.8924 5.79167 14.0957 5.985C14.3024 6.18167 14.4057 6.43333 14.4057 6.74V6.845C14.389 6.98167 14.314 7.05 14.1807 7.05ZM17.0429 5.995V7.76C17.0429 7.83667 17.0146 7.90333 16.9579 7.96C16.9046 8.01333 16.8379 8.04 16.7579 8.04C16.6746 8.04 16.6046 8.01333 16.5479 7.96C16.4946 7.90333 16.4679 7.83667 16.4679 7.76V7.14H15.4829V7.76C15.4829 7.83667 15.4546 7.90333 15.3979 7.96C15.3446 8.01333 15.2779 8.04 15.1979 8.04C15.1146 8.04 15.0446 8.01333 14.9879 7.96C14.9346 7.90333 14.9079 7.83667 14.9079 7.76V5.995C14.9079 5.91833 14.9346 5.85333 14.9879 5.8C15.0446 5.74333 15.1146 5.715 15.1979 5.715C15.2779 5.715 15.3446 5.74333 15.3979 5.8C15.4546 5.85333 15.4829 5.91833 15.4829 5.995V6.6H16.4679V5.995C16.4679 5.91833 16.4946 5.85333 16.5479 5.8C16.6046 5.74333 16.6746 5.715 16.7579 5.715C16.8379 5.715 16.9046 5.74333 16.9579 5.8C17.0146 5.85333 17.0429 5.91833 17.0429 5.995Z" fill="white"/>
</g>
<defs>
<clipPath id="clip0_3_3544">
<rect width="26" height="26" fill="white"/>
</clipPath>
</defs>
</svg>
