<svg width="22" height="22" viewBox="0 0 22 22" fill="none" xmlns="http://www.w3.org/2000/svg">
<path d="M21.8657 20.5695L15.4749 14.1787C16.687 12.6822 17.4167 10.7797 17.4167 8.70835C17.4167 3.90659 13.5101 0 8.70831 0C3.90655 0 0 3.90659 0 8.70835C0 13.5101 3.90659 17.4167 8.70835 17.4167C10.7797 17.4167 12.6822 16.687 14.1787 15.4749L20.5695 21.8657C20.7485 22.0447 21.0387 22.0447 21.2177 21.8657L21.8657 21.2177C22.0447 21.0387 22.0447 20.7484 21.8657 20.5695ZM8.70835 15.5833C4.91726 15.5833 1.83335 12.4994 1.83335 8.70835C1.83335 4.91726 4.91726 1.83335 8.70835 1.83335C12.4994 1.83335 15.5833 4.91726 15.5833 8.70835C15.5833 12.4994 12.4994 15.5833 8.70835 15.5833Z" fill="black"/>
</svg>
