<svg width="18" height="18" viewBox="0 0 18 18" fill="none" xmlns="http://www.w3.org/2000/svg">
<g clip-path="url(#clip0_1_680)">
<path d="M16.6756 2.99995C16.6756 4.34619 15.5844 5.43755 14.2382 5.43755C12.8919 5.43755 11.8007 4.34619 11.8007 2.99995C11.8007 1.65385 12.8919 0.5625 14.2382 0.5625C15.5844 0.5625 16.6756 1.65385 16.6756 2.99995Z" fill="#0077FA"/>
<path d="M14.2382 6.00005C12.5836 6.00005 11.2382 4.6545 11.2382 2.99995C11.2382 1.34555 12.5836 0 14.2382 0C15.8927 0 17.2381 1.34555 17.2381 2.99995C17.2381 4.6545 15.8927 6.00005 14.2382 6.00005ZM14.2382 1.125C13.2039 1.125 12.3632 1.96655 12.3632 2.99995C12.3632 4.03349 13.2039 4.87505 14.2382 4.87505C15.2724 4.87505 16.1131 4.03349 16.1131 2.99995C16.1131 1.96655 15.2724 1.125 14.2382 1.125Z" fill="#0077FA"/>
<path d="M16.6756 15.0001C16.6756 16.3462 15.5844 17.4375 14.2382 17.4375C12.8919 17.4375 11.8007 16.3462 11.8007 15.0001C11.8007 13.6539 12.8919 12.5625 14.2382 12.5625C15.5844 12.5625 16.6756 13.6539 16.6756 15.0001Z" fill="#0077FA"/>
<path d="M14.2382 18C12.5836 18 11.2382 16.6545 11.2382 15.0001C11.2382 13.3455 12.5836 12 14.2382 12C15.8927 12 17.2381 13.3455 17.2381 15.0001C17.2381 16.6545 15.8927 18 14.2382 18ZM14.2382 13.125C13.2039 13.125 12.3632 13.9666 12.3632 15.0001C12.3632 16.0335 13.2039 16.875 14.2382 16.875C15.2724 16.875 16.1131 16.0335 16.1131 15.0001C16.1131 13.9666 15.2724 13.125 14.2382 13.125Z" fill="#0077FA"/>
<path d="M6.17583 8.99995C6.17583 10.3462 5.08447 11.4374 3.73824 11.4374C2.39214 11.4374 1.30078 10.3462 1.30078 8.99995C1.30078 7.65372 2.39214 6.5625 3.73824 6.5625C5.08447 6.5625 6.17583 7.65372 6.17583 8.99995Z" fill="#0077FA"/>
<path d="M3.73824 11.9999C2.08383 11.9999 0.738281 10.6545 0.738281 8.99995C0.738281 7.34541 2.08383 6 3.73824 6C5.39278 6 6.73833 7.34541 6.73833 8.99995C6.73833 10.6545 5.39278 11.9999 3.73824 11.9999ZM3.73824 7.125C2.70401 7.125 1.86328 7.96642 1.86328 8.99995C1.86328 10.0335 2.70401 10.8749 3.73824 10.8749C4.7726 10.8749 5.61333 10.0335 5.61333 8.99995C5.61333 7.96642 4.7726 7.125 3.73824 7.125Z" fill="#0077FA"/>
<path d="M5.50922 8.64009C5.24815 8.64009 4.99464 8.50427 4.85663 8.26133C4.65187 7.90208 4.77794 7.44381 5.13719 7.23823L12.0963 3.27079C12.4556 3.06452 12.9139 3.19059 13.1194 3.55122C13.3242 3.91047 13.1981 4.36874 12.8389 4.57432L5.87959 8.54176C5.76259 8.6085 5.63515 8.64009 5.50922 8.64009Z" fill="#0077FA"/>
<path d="M12.4674 14.8277C12.3413 14.8277 12.2139 14.7961 12.0969 14.7294L5.13761 10.7619C4.77835 10.5572 4.65242 10.0989 4.85718 9.73881C5.06112 9.37887 5.52007 9.25212 5.88015 9.45839L12.8394 13.4258C13.1987 13.6306 13.3246 14.0889 13.1199 14.4489C12.9812 14.6919 12.7276 14.8277 12.4674 14.8277Z" fill="#0077FA"/>
</g>
<defs>
<clipPath id="clip0_1_680">
<rect width="18" height="18" fill="white"/>
</clipPath>
</defs>
</svg>
