<svg width="21" height="21" viewBox="0 0 21 21" fill="none" xmlns="http://www.w3.org/2000/svg">
<g clip-path="url(#clip0_1_3172)">
<path d="M1.16642 6.38779H12.9208V4.05493H1.16642C0.522252 4.05493 0 4.57718 0 5.22134C0 5.8655 0.522252 6.38779 1.16642 6.38779Z" fill="#0077FA"/>
<path d="M1.16642 11.069H12.9208V8.73608H1.16642C0.522252 8.73608 0 9.25835 0 9.90257C0 10.5468 0.522252 11.069 1.16642 11.069Z" fill="#0077FA"/>
<path d="M1.16642 13.4121V13.4122C0.522252 13.4122 0 13.9344 0 14.5786C0 15.2228 0.522252 15.745 1.16642 15.745H9.33249C9.24024 15.4609 9.19154 15.1613 9.19154 14.8539C9.19154 14.3392 9.32651 13.8454 9.5786 13.4121H1.16642Z" fill="#0077FA"/>
<path d="M20.5682 13.8147C19.9922 13.2386 19.0582 13.2386 18.4821 13.8147L17.271 15.0258V2.41817C17.271 1.60348 16.6106 0.943115 15.7959 0.943115C14.9812 0.943115 14.3208 1.60353 14.3208 2.41817V15.0258L13.1096 13.8147C12.5336 13.2386 11.5996 13.2386 11.0235 13.8147C10.4475 14.3907 10.4475 15.3247 11.0235 15.9007L14.7526 19.6298C15.3275 20.2049 16.2627 20.2068 16.8392 19.6298L20.5682 15.9007C21.1442 15.3247 21.1443 14.3907 20.5682 13.8147Z" fill="#0077FA"/>
</g>
<defs>
<clipPath id="clip0_1_3172">
<rect width="21" height="21" fill="white"/>
</clipPath>
</defs>
</svg>
