<svg width="11" height="12" viewBox="0 0 11 12" fill="none" xmlns="http://www.w3.org/2000/svg">
<path d="M10.0234 3.07935L9.98555 3.61223L9.48282 10.8163C9.43611 11.483 8.89111 12 8.23712 12H2.76938C2.11316 12 1.57039 11.483 1.52367 10.8163L0.985352 3.07935L5.62559 2.78003L10.0234 3.07935Z" fill="#D0D5E0"/>
<path d="M9.98583 3.61218L9.4831 10.8163C9.43639 11.4829 8.89139 11.9999 8.2374 11.9999H3.99311C3.33689 11.9999 2.79412 11.4829 2.74741 10.8163L2.28249 4.14733C2.26247 3.85935 2.48714 3.61445 2.76965 3.61445H9.98583V3.61218Z" fill="#D0D5E0"/>
<path d="M11 2.37188C11 2.55782 10.9622 2.73242 10.8932 2.88662C10.7442 3.21995 10.4572 3.44444 10.128 3.44444H0.871992C0.631749 3.44444 0.413751 3.32426 0.255814 3.13152C0.0978766 2.9365 0 2.66893 0 2.37188C0 1.78004 0.391507 1.29932 0.871992 1.29932H10.128C10.3683 1.29932 10.5862 1.4195 10.7442 1.61224C10.9021 1.80952 11 2.07709 11 2.37188Z" fill="#D0D5E0"/>
<path d="M11.0001 2.19052C11.0001 2.34472 10.9623 2.48984 10.8933 2.61683H2.86299C2.62274 2.61683 2.40475 2.51706 2.24681 2.35606C2.08665 2.19506 1.98877 1.97284 1.98877 1.72794C1.98877 1.57374 2.02659 1.42862 2.09554 1.30164H10.1281C10.3683 1.30164 10.5863 1.40141 10.7443 1.56241C10.9022 1.7234 11.0001 1.94563 11.0001 2.19052Z" fill="#D0D5E0"/>
<path d="M7.26125 10.8344C6.96317 10.8344 6.7207 10.5873 6.7207 10.2834V4.48522C6.7207 4.18137 6.96317 3.9342 7.26125 3.9342C7.55933 3.9342 7.80179 4.18137 7.80179 4.48522V10.2834C7.80179 10.5873 7.55933 10.8344 7.26125 10.8344Z" fill="white"/>
<path d="M3.74807 10.8344C3.44999 10.8344 3.20752 10.5873 3.20752 10.2834V4.48522C3.20752 4.18137 3.44999 3.9342 3.74807 3.9342C4.04614 3.9342 4.28861 4.18137 4.28861 4.48522V10.2834C4.28861 10.5873 4.04614 10.8344 3.74807 10.8344Z" fill="white"/>
<path d="M8.41191 0.580559C8.41191 0.87466 8.20331 1.11389 7.94687 1.11389L3.05342 1.11389C2.79698 1.11389 2.58838 0.87466 2.58838 0.580559C2.58838 0.286457 2.79698 0.0472249 3.05342 0.0472249L7.94687 0.0472249C8.20331 0.0472249 8.41191 0.284262 8.41191 0.580559Z" fill="#D0D5E0"/>
</svg>
