<svg width="15" height="15" viewBox="0 0 15 15" fill="none" xmlns="http://www.w3.org/2000/svg">
<g clip-path="url(#clip0)">
<path d="M7.39311 7.22554C8.38577 7.22554 9.24534 6.86952 9.94766 6.16708C10.65 5.46476 11.006 4.60543 11.006 3.61266C11.006 2.62023 10.65 1.76078 9.94755 1.05823C9.24511 0.356024 8.38566 0 7.39311 0C6.40034 0 5.541 0.356024 4.83868 1.05835C4.13635 1.76067 3.78021 2.62011 3.78021 3.61266C3.78021 4.60543 4.13635 5.46488 4.83879 6.1672C5.54123 6.8694 6.40068 7.22554 7.39311 7.22554Z" fill="white"/>
<path d="M13.7147 11.5342C13.6945 11.2419 13.6535 10.9231 13.5932 10.5864C13.5323 10.2472 13.4539 9.92654 13.3601 9.63346C13.2631 9.33053 13.1313 9.03139 12.9683 8.74471C12.7992 8.44717 12.6005 8.18808 12.3776 7.97487C12.1445 7.75183 11.8591 7.5725 11.529 7.4417C11.2001 7.31158 10.8356 7.24566 10.4457 7.24566C10.2926 7.24566 10.1445 7.30849 9.85851 7.49468C9.6825 7.60947 9.47662 7.74222 9.24683 7.88904C9.05033 8.01424 8.78414 8.13154 8.45535 8.23774C8.13457 8.34154 7.80888 8.39418 7.48741 8.39418C7.16595 8.39418 6.84036 8.34154 6.51924 8.23774C6.1908 8.13166 5.92461 8.01436 5.72834 7.88916C5.50072 7.7437 5.29472 7.61095 5.11608 7.49457C4.83044 7.30837 4.68224 7.24554 4.52911 7.24554C4.1391 7.24554 3.77472 7.31158 3.44593 7.44181C3.11611 7.57239 2.83058 7.75171 2.59724 7.97499C2.37442 8.1883 2.17564 8.44728 2.00672 8.74471C1.84387 9.03139 1.71204 9.33042 1.61499 9.63357C1.52126 9.92666 1.44287 10.2472 1.38199 10.5864C1.32168 10.9226 1.28071 11.2416 1.26045 11.5345C1.24054 11.8216 1.23047 12.1194 1.23047 12.4203C1.23047 13.2033 1.47938 13.8372 1.97021 14.3047C2.45499 14.766 3.09643 15 3.87646 15H11.0991C11.8791 15 12.5203 14.7661 13.0052 14.3047C13.4961 13.8375 13.745 13.2035 13.745 12.4202C13.7449 12.118 13.7347 11.8198 13.7147 11.5342Z" fill="white"/>
</g>
<defs>
<clipPath id="clip0">
<rect width="15" height="15" fill="white"/>
</clipPath>
</defs>
</svg>
