<svg width="34" height="27" viewBox="0 0 39 27" fill="none" xmlns="http://www.w3.org/2000/svg">
<g clip-path="url(#clip0_3_3552)">
<path d="M23.8637 5.70811C17.5807 5.29717 11.2976 5.29717 5.01457 5.70811C3.07189 5.83518 1.51851 7.22284 1.34834 8.98683C0.884539 13.7955 0.884539 18.6043 1.34834 23.413C1.51845 25.177 3.07189 26.5646 5.01457 26.6917C11.2976 27.1027 17.5807 27.1027 23.8637 26.6917C25.8064 26.5646 27.3598 25.177 27.5299 23.413C27.9937 18.6043 27.9937 13.7955 27.5299 8.98683C27.3598 7.22284 25.8064 5.83518 23.8637 5.70811Z" fill="#0077FA"/>
<path d="M7.21396 26.8186C6.48072 26.7822 5.74741 26.7397 5.01416 26.6918C3.07122 26.5644 1.51797 25.1771 1.3478 23.4131C0.884067 18.604 0.884067 13.7955 1.3478 8.98698C1.51797 7.22299 3.07122 5.83509 5.01416 5.70832C5.74741 5.66042 6.48 5.61794 7.21331 5.58154C6.00034 6.16996 5.14495 7.28548 5.01816 8.59939C4.52972 13.6663 4.52972 18.7332 5.01816 23.8002C5.14495 25.114 6.00034 26.2302 7.21396 26.8186Z" fill="#0077FA"/>
<path d="M23.2372 20.2817H27.5218C28.2593 20.2817 28.8571 19.7382 28.8571 19.0678V13.2164C28.8571 12.5459 28.2593 12.0024 27.5218 12.0024H23.2372C20.7224 12.0024 18.6839 13.8558 18.6839 16.1421C18.6839 18.4283 20.7224 20.2817 23.2372 20.2817Z" fill="#FCBC3C"/>
<path d="M22.1594 19.0696C22.9834 19.8187 24.1216 20.2822 25.3787 20.2822H23.237C21.9799 20.2822 20.8417 19.8187 20.0176 19.0696C19.1936 18.3205 18.6839 17.285 18.6839 16.1421C18.6839 13.8559 20.7222 12.0027 23.237 12.0027H25.3787C22.864 12.0027 20.8256 13.8559 20.8256 16.1421C20.8256 17.285 21.3354 18.3205 22.1594 19.0696Z" fill="#0077FA"/>
<path d="M24.5791 18.0891C25.7619 18.0891 26.7207 17.2174 26.7207 16.1421C26.7207 15.0668 25.7619 14.1951 24.5791 14.1951C23.3964 14.1951 22.4376 15.0668 22.4376 16.1421C22.4376 17.2174 23.3964 18.0891 24.5791 18.0891Z" fill="white"/>
<path d="M25.1771 18.0121C24.9876 18.0624 24.7868 18.0891 24.5793 18.0891C23.3964 18.0891 22.4376 17.2174 22.4376 16.1419C22.4376 15.067 23.3964 14.1953 24.5793 14.1953C24.7868 14.1953 24.9877 14.222 25.1771 14.2723C24.285 14.5071 23.6332 15.2556 23.6332 16.1419C23.6332 17.0287 24.285 17.7773 25.1771 18.0121Z" fill="white"/>
<path d="M3.225 15.25C3.225 14.7333 3.39667 14.3033 3.74 13.96C4.08 13.6167 4.515 13.445 5.045 13.445C5.575 13.445 6.01167 13.6117 6.355 13.945C6.69833 14.2783 6.87 14.7133 6.87 15.25C6.87 15.7733 6.69667 16.205 6.35 16.545C6.00333 16.885 5.56833 17.055 5.045 17.055C4.51833 17.055 4.08333 16.8883 3.74 16.555C3.39667 16.2217 3.225 15.7867 3.225 15.25ZM3.875 15.25C3.875 15.5967 3.98833 15.8883 4.215 16.125C4.44167 16.3617 4.71833 16.48 5.045 16.48C5.405 16.48 5.69167 16.3633 5.905 16.13C6.115 15.8933 6.22 15.6 6.22 15.25C6.22 14.8867 6.10833 14.5917 5.885 14.365C5.66167 14.135 5.38167 14.02 5.045 14.02C4.70833 14.02 4.43 14.135 4.21 14.365C3.98667 14.5917 3.875 14.8867 3.875 15.25ZM9.52668 15.03V16.76C9.52668 16.8367 9.49835 16.9033 9.44168 16.96C9.38835 17.0133 9.32168 17.04 9.24168 17.04C9.15835 17.04 9.08835 17.0133 9.03168 16.96C8.97835 16.9033 8.95168 16.8367 8.95168 16.76V15.29H7.99168V16.76C7.99168 16.8367 7.96335 16.9033 7.90668 16.96C7.85335 17.0133 7.78668 17.04 7.70668 17.04C7.62335 17.04 7.55335 17.0133 7.49668 16.96C7.44335 16.9033 7.41668 16.8367 7.41668 16.76V15.03C7.41668 14.9533 7.44335 14.8883 7.49668 14.835C7.55335 14.7783 7.62001 14.75 7.69668 14.75H9.24668C9.32335 14.75 9.38835 14.7783 9.44168 14.835C9.49835 14.8883 9.52668 14.9533 9.52668 15.03ZM12.1707 15.03V16.76C12.1707 16.8367 12.1424 16.9033 12.0857 16.96C12.0324 17.0133 11.9657 17.04 11.8857 17.04C11.8024 17.04 11.7324 17.0133 11.6757 16.96C11.6224 16.9033 11.5957 16.8367 11.5957 16.76V15.325H11.0007L10.9857 15.565C10.9424 16.0717 10.8607 16.445 10.7407 16.685C10.6207 16.9217 10.4557 17.04 10.2457 17.04C10.1557 17.04 10.0824 17.015 10.0257 16.965C9.96904 16.915 9.9407 16.845 9.9407 16.755C9.9407 16.6317 10.0057 16.5283 10.1357 16.445C10.2257 16.385 10.294 16.28 10.3407 16.13C10.3874 15.9767 10.4174 15.75 10.4307 15.45L10.4507 15.03C10.4574 14.9533 10.489 14.8883 10.5457 14.835C10.6024 14.7783 10.669 14.75 10.7457 14.75H11.8907C11.9674 14.75 12.0324 14.7783 12.0857 14.835C12.1424 14.8883 12.1707 14.9533 12.1707 15.03ZM12.6672 16.34C12.6672 16.1067 12.7422 15.9267 12.8922 15.8C13.0422 15.6733 13.2405 15.61 13.4872 15.61C13.6905 15.61 13.8605 15.6583 13.9972 15.755V15.685C13.9972 15.5083 13.9639 15.38 13.8972 15.3C13.8339 15.2167 13.7272 15.175 13.5772 15.175C13.4439 15.175 13.3272 15.1917 13.2272 15.225C13.1772 15.2383 13.1389 15.245 13.1122 15.245C13.0222 15.245 12.9572 15.205 12.9172 15.125C12.9039 15.0983 12.8972 15.0667 12.8972 15.03C12.8972 14.93 12.9522 14.8583 13.0622 14.815C13.2455 14.735 13.4372 14.695 13.6372 14.695C13.9505 14.695 14.1789 14.7717 14.3222 14.925C14.4655 15.0783 14.5372 15.3133 14.5372 15.63V16.775C14.5372 16.845 14.5122 16.905 14.4622 16.955C14.4122 17.005 14.3522 17.03 14.2822 17.03C14.2089 17.03 14.1489 17.005 14.1022 16.955C14.0589 16.905 14.0372 16.84 14.0372 16.76C13.8939 16.94 13.6722 17.03 13.3722 17.03C13.1589 17.03 12.9872 16.9683 12.8572 16.845C12.7305 16.7183 12.6672 16.55 12.6672 16.34ZM13.9972 16.34V16.11C13.9039 16.0367 13.7722 16 13.6022 16C13.4955 16 13.4089 16.025 13.3422 16.075C13.2755 16.125 13.2422 16.1933 13.2422 16.28C13.2422 16.36 13.2722 16.425 13.3322 16.475C13.3922 16.5217 13.4689 16.545 13.5622 16.545C13.7555 16.545 13.9005 16.4767 13.9972 16.34ZM16.2066 15.325V16.76C16.2066 16.8367 16.1783 16.9033 16.1216 16.96C16.0683 17.0133 16.0016 17.04 15.9216 17.04C15.8383 17.04 15.7683 17.0133 15.7116 16.96C15.6583 16.9033 15.6316 16.8367 15.6316 16.76V15.325H15.1716C15.095 15.325 15.0283 15.2983 14.9716 15.245C14.9183 15.1883 14.8916 15.1183 14.8916 15.035C14.8916 14.955 14.9183 14.8883 14.9716 14.835C15.0283 14.7783 15.095 14.75 15.1716 14.75H16.6616C16.7383 14.75 16.8033 14.7783 16.8566 14.835C16.9133 14.8883 16.9416 14.955 16.9416 15.035C16.9416 15.1183 16.9133 15.1883 16.8566 15.245C16.8033 15.2983 16.7383 15.325 16.6616 15.325H16.2066ZM17.2033 16.34C17.2033 16.1067 17.2783 15.9267 17.4283 15.8C17.5783 15.6733 17.7767 15.61 18.0233 15.61C18.2267 15.61 18.3967 15.6583 18.5333 15.755V15.685C18.5333 15.5083 18.5 15.38 18.4333 15.3C18.37 15.2167 18.2633 15.175 18.1133 15.175C17.98 15.175 17.8633 15.1917 17.7633 15.225C17.7133 15.2383 17.675 15.245 17.6483 15.245C17.5583 15.245 17.4933 15.205 17.4533 15.125C17.44 15.0983 17.4333 15.0667 17.4333 15.03C17.4333 14.93 17.4883 14.8583 17.5983 14.815C17.7817 14.735 17.9733 14.695 18.1733 14.695C18.4867 14.695 18.715 14.7717 18.8583 14.925C19.0017 15.0783 19.0733 15.3133 19.0733 15.63V16.775C19.0733 16.845 19.0483 16.905 18.9983 16.955C18.9483 17.005 18.8883 17.03 18.8183 17.03C18.745 17.03 18.685 17.005 18.6383 16.955C18.595 16.905 18.5733 16.84 18.5733 16.76C18.43 16.94 18.2083 17.03 17.9083 17.03C17.695 17.03 17.5233 16.9683 17.3933 16.845C17.2667 16.7183 17.2033 16.55 17.2033 16.34ZM18.5333 16.34V16.11C18.44 16.0367 18.3083 16 18.1383 16C18.0317 16 17.945 16.025 17.8783 16.075C17.8117 16.125 17.7783 16.1933 17.7783 16.28C17.7783 16.36 17.8083 16.425 17.8683 16.475C17.9283 16.5217 18.005 16.545 18.0983 16.545C18.2917 16.545 18.4367 16.4767 18.5333 16.34Z" fill="white"/>
</g>
<defs>
<clipPath id="clip0_3_3552">
<rect width="34" height="27" fill="white"/>
</clipPath>
</defs>
</svg>
