<svg width="26" height="26" viewBox="0 0 26 26" fill="none" xmlns="http://www.w3.org/2000/svg">
<path d="M22.75 1.625H17.875C16.978 1.625 16.25 2.353 16.25 3.25C16.25 4.147 16.978 4.875 17.875 4.875H18.85L15.1125 8.61331C14.8525 8.87331 14.625 9.217 14.625 9.75C14.625 10.6389 15.3229 11.375 16.25 11.375C16.7708 11.375 17.1023 11.1735 17.3875 10.8875L21.125 7.15V8.125C21.125 9.022 21.853 9.75 22.75 9.75C23.647 9.75 24.375 9.022 24.375 8.125V3.25C24.375 2.353 23.647 1.625 22.75 1.625ZM9.75 14.625C9.22919 14.625 8.89769 14.8265 8.6125 15.1125L4.875 18.85V17.875C4.875 16.978 4.147 16.25 3.25 16.25C2.353 16.25 1.625 16.978 1.625 17.875V22.75C1.625 23.647 2.353 24.375 3.25 24.375H8.125C9.022 24.375 9.75 23.647 9.75 22.75C9.75 21.853 9.022 21.125 8.125 21.125H7.15L10.8875 17.3867C11.1475 17.1267 11.375 16.783 11.375 16.25C11.375 15.3611 10.6771 14.625 9.75 14.625Z" fill="#D32543"/>
</svg>
